G04 Layer_Color=8388736*
%FSLAX25Y25*%
%MOIN*%
G70*
G01*
G75*
%ADD18R,0.01600X0.07500*%
%ADD41R,0.03556X0.04147*%
%ADD42R,0.06312X0.06706*%
%ADD43R,0.07690X0.05328*%
%ADD44R,0.08674X0.15761*%
%ADD45R,0.08674X0.06706*%
G04:AMPARAMS|DCode=46|XSize=69.81mil|YSize=24.14mil|CornerRadius=6.02mil|HoleSize=0mil|Usage=FLASHONLY|Rotation=270.000|XOffset=0mil|YOffset=0mil|HoleType=Round|Shape=RoundedRectangle|*
%AMROUNDEDRECTD46*
21,1,0.06981,0.01211,0,0,270.0*
21,1,0.05778,0.02414,0,0,270.0*
1,1,0.01204,-0.00605,-0.02889*
1,1,0.01204,-0.00605,0.02889*
1,1,0.01204,0.00605,0.02889*
1,1,0.01204,0.00605,-0.02889*
%
%ADD46ROUNDEDRECTD46*%
%ADD47R,0.06312X0.04737*%
%ADD48R,0.04147X0.03556*%
%ADD49R,0.05328X0.07690*%
%ADD50R,0.04737X0.06312*%
%ADD51C,0.11824*%
%ADD52C,0.07493*%
%ADD53R,0.07493X0.07493*%
%ADD54C,0.05524*%
%ADD55R,0.05524X0.05524*%
D18*
X351697Y88521D02*
D03*
X349197D02*
D03*
X346697D02*
D03*
X344197D02*
D03*
X341697D02*
D03*
X339197D02*
D03*
X336697D02*
D03*
X334197D02*
D03*
X331697D02*
D03*
X329197D02*
D03*
X326697D02*
D03*
X324197D02*
D03*
Y109821D02*
D03*
X326697D02*
D03*
X329197D02*
D03*
X331697D02*
D03*
X334197D02*
D03*
X336697D02*
D03*
X339197D02*
D03*
X341697D02*
D03*
X344197D02*
D03*
X346697D02*
D03*
X349197D02*
D03*
X351697D02*
D03*
D41*
X161054Y244600D02*
D03*
X167746D02*
D03*
D42*
X174695D02*
D03*
X186505D02*
D03*
D43*
X342126Y283760D02*
D03*
Y295177D02*
D03*
X330800Y372617D02*
D03*
Y361200D02*
D03*
X341053Y372617D02*
D03*
Y361200D02*
D03*
X177953Y277067D02*
D03*
Y288484D02*
D03*
X327272Y171043D02*
D03*
Y182461D02*
D03*
X317019Y171043D02*
D03*
Y182461D02*
D03*
D44*
X295169Y372913D02*
D03*
X362131Y170748D02*
D03*
D45*
X319972Y381968D02*
D03*
Y372913D02*
D03*
Y363858D02*
D03*
X337328Y161693D02*
D03*
Y170748D02*
D03*
Y179803D02*
D03*
D46*
X160138Y294764D02*
D03*
X157579D02*
D03*
X155020D02*
D03*
X152461D02*
D03*
X149902D02*
D03*
X147343D02*
D03*
X144783D02*
D03*
X142224D02*
D03*
Y272165D02*
D03*
X144783D02*
D03*
X147343D02*
D03*
X149902D02*
D03*
X152461D02*
D03*
X155020D02*
D03*
X157579D02*
D03*
X160138D02*
D03*
X324311Y301457D02*
D03*
X321752D02*
D03*
X319193D02*
D03*
X316634D02*
D03*
X314075D02*
D03*
X311516D02*
D03*
X308957D02*
D03*
X306398D02*
D03*
Y278858D02*
D03*
X308957D02*
D03*
X311516D02*
D03*
X314075D02*
D03*
X316634D02*
D03*
X319193D02*
D03*
X321752D02*
D03*
X324311D02*
D03*
D47*
X167717Y286417D02*
D03*
Y279134D02*
D03*
X331890Y293110D02*
D03*
Y285827D02*
D03*
X362700Y95658D02*
D03*
Y102942D02*
D03*
D48*
X191800Y214054D02*
D03*
Y220746D02*
D03*
D49*
X349554Y131266D02*
D03*
X360971D02*
D03*
X137188Y180709D02*
D03*
X148606D02*
D03*
X137188Y205118D02*
D03*
X148606D02*
D03*
X137188Y168504D02*
D03*
X148606D02*
D03*
X137188Y192913D02*
D03*
X148606D02*
D03*
X137188Y217323D02*
D03*
X148606D02*
D03*
D50*
X356542Y121800D02*
D03*
X349258D02*
D03*
D51*
X117717Y145276D02*
D03*
X136221D02*
D03*
X154724D02*
D03*
D52*
X118639Y90300D02*
D03*
X128639D02*
D03*
D53*
X138639D02*
D03*
D54*
X251969Y96457D02*
D03*
X244094Y72835D02*
D03*
X228346Y64961D02*
D03*
X244094Y96457D02*
D03*
X228346Y88583D02*
D03*
X251969Y72835D02*
D03*
X236221D02*
D03*
X251969Y57087D02*
D03*
X236221Y96457D02*
D03*
X251969Y80709D02*
D03*
X236221Y64961D02*
D03*
X228346Y72835D02*
D03*
X244094Y57087D02*
D03*
X228346Y80709D02*
D03*
X244094Y80709D02*
D03*
X236221Y88583D02*
D03*
X251969Y64961D02*
D03*
X236221Y57087D02*
D03*
X251969Y88583D02*
D03*
X236221Y80709D02*
D03*
X244094Y64961D02*
D03*
X228346Y57087D02*
D03*
X244094Y88583D02*
D03*
Y139765D02*
D03*
X228346Y124017D02*
D03*
X244094Y116143D02*
D03*
X236221Y147639D02*
D03*
X251969Y139765D02*
D03*
X236221Y124017D02*
D03*
X251969Y116143D02*
D03*
X236221Y139765D02*
D03*
X244094Y147639D02*
D03*
X228346Y131891D02*
D03*
X244094Y124017D02*
D03*
X228346Y108269D02*
D03*
X236221Y116143D02*
D03*
X251969Y147639D02*
D03*
X236221Y131891D02*
D03*
X251969Y124017D02*
D03*
X236221Y108269D02*
D03*
X251969D02*
D03*
X228346Y139765D02*
D03*
X244094Y131891D02*
D03*
X228346Y116143D02*
D03*
X244094Y108269D02*
D03*
X251969Y131891D02*
D03*
Y273624D02*
D03*
X244094Y250002D02*
D03*
X228346Y257876D02*
D03*
X244094Y273624D02*
D03*
X228346Y281498D02*
D03*
X251969Y250002D02*
D03*
X236221D02*
D03*
X251969Y265750D02*
D03*
X236221Y273624D02*
D03*
X251969Y289372D02*
D03*
X236221Y257876D02*
D03*
X228346Y250002D02*
D03*
X244094Y265750D02*
D03*
X228346Y273624D02*
D03*
X244094Y289372D02*
D03*
X236221Y281498D02*
D03*
X251969Y257876D02*
D03*
X236221Y265750D02*
D03*
X251969Y281498D02*
D03*
X236221Y289372D02*
D03*
X244094Y257876D02*
D03*
X228346Y265750D02*
D03*
X244094Y281498D02*
D03*
X228346Y289372D02*
D03*
X244094Y328742D02*
D03*
X228346Y312994D02*
D03*
X244094Y305120D02*
D03*
X236221Y336616D02*
D03*
X251969Y328742D02*
D03*
X236221Y312994D02*
D03*
X251969Y305120D02*
D03*
X236221Y328742D02*
D03*
X244094Y336616D02*
D03*
X228346Y320868D02*
D03*
X244094Y312994D02*
D03*
X228346Y297246D02*
D03*
X236221Y305120D02*
D03*
X251969Y336616D02*
D03*
X236221Y320868D02*
D03*
X251969Y312994D02*
D03*
X236221Y297246D02*
D03*
X251969D02*
D03*
X228346Y328742D02*
D03*
X244094Y320868D02*
D03*
X228346Y305120D02*
D03*
X244094Y297246D02*
D03*
X251969Y320868D02*
D03*
Y226380D02*
D03*
X244094Y202758D02*
D03*
X228346Y210632D02*
D03*
X244094Y226380D02*
D03*
X228346Y234254D02*
D03*
X251969Y202758D02*
D03*
X236221D02*
D03*
X251969Y218506D02*
D03*
X236221Y226380D02*
D03*
X251969Y242128D02*
D03*
X236221Y210632D02*
D03*
X228346Y202758D02*
D03*
X244094Y218506D02*
D03*
X228346Y226380D02*
D03*
X244094Y242128D02*
D03*
X236221Y234254D02*
D03*
X251969Y210632D02*
D03*
X236221Y218506D02*
D03*
X251969Y234254D02*
D03*
X236221Y242128D02*
D03*
X244094Y210632D02*
D03*
X228346Y218506D02*
D03*
X244094Y234254D02*
D03*
X228346Y242128D02*
D03*
Y194884D02*
D03*
Y171262D02*
D03*
X244094Y163388D02*
D03*
X236221Y194884D02*
D03*
X251969Y187010D02*
D03*
X236221Y171262D02*
D03*
X251969Y163388D02*
D03*
X236221Y187010D02*
D03*
X244094Y194884D02*
D03*
X228346Y179136D02*
D03*
X244094Y171262D02*
D03*
X228346Y155514D02*
D03*
X236221Y163388D02*
D03*
X251969Y194884D02*
D03*
X236221Y179136D02*
D03*
X251969Y171262D02*
D03*
X236221Y155514D02*
D03*
X251969D02*
D03*
X228346Y187010D02*
D03*
X244094Y179136D02*
D03*
X228346Y163388D02*
D03*
X244094Y155514D02*
D03*
X251969Y179136D02*
D03*
D55*
X228346Y96457D02*
D03*
Y147639D02*
D03*
Y336616D02*
D03*
M02*
