M48
;Layer_Color=9474304
;FILE_FORMAT=2:5
INCH
;TYPE=PLATED
T1F00S00C0.01800
T2F00S00C0.02953
T3F00S00C0.03200
T4F00S00C0.03504
T5F00S00C0.06299
T6F00S00C0.12205
%
T01
X0324800Y0122300
X0331100Y0129400
X0335000Y0137800
X0341700Y0138100
X0196600Y0205000
X0191800Y0226300
T02
X0228346Y0057087
Y0064961
X0236221
Y0057087
X0244094
Y0064961
Y0072835
X0236221
Y0080709
X0244094
X0251969
Y0072835
Y0064961
Y0057087
Y0088583
Y0096457
X0244094
X0236221
Y0088583
X0244094
X0228346
Y0080709
Y0072835
Y0096457
Y0108269
X0236221
X0244094
Y0116143
Y0124017
X0236221
Y0116143
X0228346
Y0124017
Y0131891
Y0139765
Y0147639
X0236221
X0244094
Y0139765
X0236221
Y0131891
X0244094
X0251969
Y0139765
Y0147639
Y0155514
Y0163388
Y0171262
X0244094
Y0163388
X0236221
Y0171262
X0228346
Y0163388
Y0155514
X0236221
X0244094
Y0179136
Y0187010
X0236221
Y0179136
X0228346
Y0187010
Y0194884
Y0202758
X0236221
X0244094
Y0194884
X0236221
X0251969
Y0202758
Y0187010
Y0179136
Y0124017
Y0116143
Y0108269
Y0210632
Y0218506
Y0226380
Y0234254
Y0242128
Y0250002
X0244094
X0236221
Y0257876
Y0265750
X0244094
Y0257876
X0251969
Y0265750
Y0273624
Y0281498
Y0289372
Y0297246
Y0305120
Y0312994
X0244094
Y0305120
X0236221
Y0312994
X0228346
Y0305120
Y0297246
Y0289372
Y0281498
Y0273624
X0236221
X0244094
Y0281498
X0236221
Y0289372
X0244094
Y0297246
X0236221
Y0320868
Y0328742
X0244094
Y0320868
X0251969
Y0328742
Y0336616
X0244094
X0236221
X0228346
Y0328742
Y0320868
Y0265750
Y0257876
Y0250002
Y0242128
Y0234254
Y0226380
X0236221
X0244094
Y0234254
X0236221
Y0242128
X0244094
Y0218506
X0236221
Y0210632
X0244094
X0228346
Y0218506
T03
X0370079Y0043307
X0368766Y0131266
X0362700Y0110800
X0360121Y0088521
X0346700Y0097000
X0316721Y0088521
X0318121Y0109821
X0349900Y0150400
X0177953Y0268853
X0187484Y0288484
X0157480Y0251969
X0331890Y0278210
X0342200Y0303100
X0341053Y0353447
X0307400Y0354200
T04
X0118639Y0090300
X0128639
X0138639
T05
X0117717Y0145276
X0136221
X0154724
T06
X0098425Y0019685
X0196949Y0033027
X0244193
X0362205Y0019685
Y0409449
X0244193Y0396014
X0196949
X0098425Y0409449
M30
