G04 Layer_Color=16711935*
%FSLAX25Y25*%
%MOIN*%
G70*
G01*
G75*
%ADD51C,0.11824*%
%ADD52C,0.07493*%
%ADD53R,0.07493X0.07493*%
%ADD54C,0.05524*%
%ADD55R,0.05524X0.05524*%
D51*
X117717Y145276D02*
D03*
X136221D02*
D03*
X154724D02*
D03*
D52*
X118639Y90300D02*
D03*
X128639D02*
D03*
D53*
X138639D02*
D03*
D54*
X251969Y96457D02*
D03*
X244094Y72835D02*
D03*
X228346Y64961D02*
D03*
X244094Y96457D02*
D03*
X228346Y88583D02*
D03*
X251969Y72835D02*
D03*
X236221D02*
D03*
X251969Y57087D02*
D03*
X236221Y96457D02*
D03*
X251969Y80709D02*
D03*
X236221Y64961D02*
D03*
X228346Y72835D02*
D03*
X244094Y57087D02*
D03*
X228346Y80709D02*
D03*
X244094Y80709D02*
D03*
X236221Y88583D02*
D03*
X251969Y64961D02*
D03*
X236221Y57087D02*
D03*
X251969Y88583D02*
D03*
X236221Y80709D02*
D03*
X244094Y64961D02*
D03*
X228346Y57087D02*
D03*
X244094Y88583D02*
D03*
Y139765D02*
D03*
X228346Y124017D02*
D03*
X244094Y116143D02*
D03*
X236221Y147639D02*
D03*
X251969Y139765D02*
D03*
X236221Y124017D02*
D03*
X251969Y116143D02*
D03*
X236221Y139765D02*
D03*
X244094Y147639D02*
D03*
X228346Y131891D02*
D03*
X244094Y124017D02*
D03*
X228346Y108269D02*
D03*
X236221Y116143D02*
D03*
X251969Y147639D02*
D03*
X236221Y131891D02*
D03*
X251969Y124017D02*
D03*
X236221Y108269D02*
D03*
X251969D02*
D03*
X228346Y139765D02*
D03*
X244094Y131891D02*
D03*
X228346Y116143D02*
D03*
X244094Y108269D02*
D03*
X251969Y131891D02*
D03*
Y273624D02*
D03*
X244094Y250002D02*
D03*
X228346Y257876D02*
D03*
X244094Y273624D02*
D03*
X228346Y281498D02*
D03*
X251969Y250002D02*
D03*
X236221D02*
D03*
X251969Y265750D02*
D03*
X236221Y273624D02*
D03*
X251969Y289372D02*
D03*
X236221Y257876D02*
D03*
X228346Y250002D02*
D03*
X244094Y265750D02*
D03*
X228346Y273624D02*
D03*
X244094Y289372D02*
D03*
X236221Y281498D02*
D03*
X251969Y257876D02*
D03*
X236221Y265750D02*
D03*
X251969Y281498D02*
D03*
X236221Y289372D02*
D03*
X244094Y257876D02*
D03*
X228346Y265750D02*
D03*
X244094Y281498D02*
D03*
X228346Y289372D02*
D03*
X244094Y328742D02*
D03*
X228346Y312994D02*
D03*
X244094Y305120D02*
D03*
X236221Y336616D02*
D03*
X251969Y328742D02*
D03*
X236221Y312994D02*
D03*
X251969Y305120D02*
D03*
X236221Y328742D02*
D03*
X244094Y336616D02*
D03*
X228346Y320868D02*
D03*
X244094Y312994D02*
D03*
X228346Y297246D02*
D03*
X236221Y305120D02*
D03*
X251969Y336616D02*
D03*
X236221Y320868D02*
D03*
X251969Y312994D02*
D03*
X236221Y297246D02*
D03*
X251969D02*
D03*
X228346Y328742D02*
D03*
X244094Y320868D02*
D03*
X228346Y305120D02*
D03*
X244094Y297246D02*
D03*
X251969Y320868D02*
D03*
Y226380D02*
D03*
X244094Y202758D02*
D03*
X228346Y210632D02*
D03*
X244094Y226380D02*
D03*
X228346Y234254D02*
D03*
X251969Y202758D02*
D03*
X236221D02*
D03*
X251969Y218506D02*
D03*
X236221Y226380D02*
D03*
X251969Y242128D02*
D03*
X236221Y210632D02*
D03*
X228346Y202758D02*
D03*
X244094Y218506D02*
D03*
X228346Y226380D02*
D03*
X244094Y242128D02*
D03*
X236221Y234254D02*
D03*
X251969Y210632D02*
D03*
X236221Y218506D02*
D03*
X251969Y234254D02*
D03*
X236221Y242128D02*
D03*
X244094Y210632D02*
D03*
X228346Y218506D02*
D03*
X244094Y234254D02*
D03*
X228346Y242128D02*
D03*
Y194884D02*
D03*
X244094Y187010D02*
D03*
X228346Y171262D02*
D03*
X244094Y163388D02*
D03*
X236221Y194884D02*
D03*
X251969Y187010D02*
D03*
X236221Y171262D02*
D03*
X251969Y163388D02*
D03*
X236221Y187010D02*
D03*
X244094Y194884D02*
D03*
X228346Y179136D02*
D03*
X244094Y171262D02*
D03*
X228346Y155514D02*
D03*
X236221Y163388D02*
D03*
X251969Y194884D02*
D03*
X236221Y179136D02*
D03*
X251969Y171262D02*
D03*
X236221Y155514D02*
D03*
X251969D02*
D03*
X228346Y187010D02*
D03*
X244094Y179136D02*
D03*
X228346Y163388D02*
D03*
X244094Y155514D02*
D03*
X251969Y179136D02*
D03*
D55*
X228346Y96457D02*
D03*
Y147639D02*
D03*
Y336616D02*
D03*
M02*
