G04 Layer_Physical_Order=1*
G04 Layer_Color=255*
%FSLAX25Y25*%
%MOIN*%
G70*
G01*
G75*
%ADD10R,0.02756X0.03347*%
%ADD11R,0.05512X0.05906*%
%ADD12R,0.06890X0.04528*%
%ADD13R,0.07874X0.14961*%
%ADD14R,0.07874X0.05906*%
G04:AMPARAMS|DCode=15|XSize=61.81mil|YSize=16.14mil|CornerRadius=2.02mil|HoleSize=0mil|Usage=FLASHONLY|Rotation=270.000|XOffset=0mil|YOffset=0mil|HoleType=Round|Shape=RoundedRectangle|*
%AMROUNDEDRECTD15*
21,1,0.06181,0.01211,0,0,270.0*
21,1,0.05778,0.01614,0,0,270.0*
1,1,0.00404,-0.00605,-0.02889*
1,1,0.00404,-0.00605,0.02889*
1,1,0.00404,0.00605,0.02889*
1,1,0.00404,0.00605,-0.02889*
%
%ADD15ROUNDEDRECTD15*%
%ADD16R,0.05512X0.03937*%
%ADD17R,0.03347X0.02756*%
%ADD18R,0.01600X0.07500*%
%ADD19R,0.04528X0.06890*%
%ADD20R,0.03937X0.05512*%
%ADD21C,0.01200*%
%ADD22C,0.01400*%
%ADD23C,0.02000*%
%ADD24C,0.11024*%
%ADD25C,0.06693*%
%ADD26R,0.06693X0.06693*%
%ADD27C,0.04724*%
%ADD28R,0.04724X0.04724*%
%ADD29C,0.06200*%
%ADD30C,0.24410*%
%ADD31C,0.03600*%
%ADD32C,0.22835*%
G36*
X365655Y426793D02*
X367889Y426194D01*
X370026Y425309D01*
X372029Y424152D01*
X373864Y422744D01*
X375500Y421108D01*
X376908Y419273D01*
X378065Y417270D01*
X378950Y415133D01*
X379549Y412899D01*
X379851Y410605D01*
Y409449D01*
Y363038D01*
X379351Y362868D01*
X379054Y363254D01*
X379054Y363254D01*
X367837Y374472D01*
X367294Y374888D01*
X366661Y375150D01*
X365983Y375240D01*
X365983Y375240D01*
X346098D01*
Y376481D01*
X344136D01*
X343675Y376608D01*
X343586Y377286D01*
X343324Y377919D01*
X342907Y378462D01*
X342907Y378462D01*
X337547Y383822D01*
X337004Y384239D01*
X336372Y384501D01*
X335693Y384590D01*
X335693Y384590D01*
X325509D01*
Y386521D01*
X314435D01*
Y377415D01*
Y375535D01*
X312613D01*
X312613Y375535D01*
X311934Y375446D01*
X311301Y375184D01*
X310758Y374767D01*
X310758Y374767D01*
X305546Y369554D01*
X305129Y369011D01*
X304867Y368379D01*
X304778Y367700D01*
X304778Y367700D01*
Y358112D01*
X304048Y357552D01*
X303294Y356570D01*
X302821Y355427D01*
X302659Y354200D01*
X302821Y352973D01*
X303294Y351830D01*
X304048Y350848D01*
X305030Y350095D01*
X306173Y349621D01*
X307400Y349459D01*
X308627Y349621D01*
X309770Y350095D01*
X310752Y350848D01*
X311506Y351830D01*
X311979Y352973D01*
X312141Y354200D01*
X311979Y355427D01*
X311506Y356570D01*
X310752Y357552D01*
X310022Y358112D01*
Y366614D01*
X313699Y370290D01*
X314435D01*
Y368360D01*
X325509D01*
Y368360D01*
X325755Y368754D01*
X335845D01*
Y368754D01*
X336008Y368754D01*
Y368754D01*
X346098D01*
Y369995D01*
X364896D01*
X374578Y360314D01*
Y144022D01*
X348986D01*
X346733Y146276D01*
X347063Y146652D01*
X347530Y146295D01*
X348673Y145821D01*
X349900Y145659D01*
X351127Y145821D01*
X352270Y146295D01*
X353252Y147048D01*
X354006Y148030D01*
X354479Y149173D01*
X354641Y150400D01*
X354479Y151627D01*
X354006Y152770D01*
X353252Y153752D01*
X352522Y154312D01*
Y165200D01*
X352433Y165879D01*
X352171Y166511D01*
X351754Y167054D01*
X351754Y167054D01*
X346206Y172602D01*
X345663Y173019D01*
X345031Y173281D01*
X344352Y173371D01*
X344352Y173371D01*
X342865D01*
Y175301D01*
X331791D01*
Y174907D01*
X322227D01*
Y174907D01*
X322063D01*
Y174907D01*
X311974D01*
Y167180D01*
X314396D01*
Y165582D01*
X314396Y165582D01*
X314485Y164903D01*
X314747Y164270D01*
X315164Y163727D01*
X319053Y159839D01*
X319053Y159839D01*
X319596Y159422D01*
X320228Y159160D01*
X320907Y159071D01*
X331791D01*
Y157140D01*
X334705D01*
Y151972D01*
X334705Y151972D01*
X334794Y151294D01*
X335056Y150661D01*
X335473Y150118D01*
X346046Y139546D01*
X346046Y139546D01*
X346589Y139129D01*
X347221Y138867D01*
X347900Y138777D01*
X347900Y138778D01*
X374578D01*
Y63326D01*
X319074Y7822D01*
X233386D01*
X223022Y18186D01*
Y71676D01*
X224492Y73145D01*
X224965Y72912D01*
X224955Y72835D01*
X225071Y71957D01*
X225410Y71139D01*
X225949Y70437D01*
X226651Y69898D01*
X227469Y69559D01*
X227847Y69509D01*
Y72835D01*
X228346D01*
Y73335D01*
X231672D01*
X231622Y73712D01*
X231283Y74530D01*
X230744Y75233D01*
X230042Y75771D01*
X229224Y76110D01*
X228414Y76217D01*
Y76721D01*
X229381Y76848D01*
X230345Y77248D01*
X231172Y77883D01*
X231807Y78710D01*
X232207Y79674D01*
X232289Y80295D01*
X232334Y80641D01*
X232838D01*
X232945Y79831D01*
X233284Y79013D01*
X233822Y78311D01*
X234525Y77772D01*
X235343Y77433D01*
X235720Y77383D01*
Y80709D01*
Y84034D01*
X235343Y83984D01*
X234525Y83645D01*
X233822Y83107D01*
X233284Y82404D01*
X232945Y81586D01*
X232838Y80777D01*
X232334D01*
X232289Y81122D01*
X232207Y81743D01*
X231807Y82707D01*
X231172Y83534D01*
X230969Y83691D01*
Y85601D01*
X231172Y85757D01*
X231807Y86584D01*
X232207Y87548D01*
X232289Y88169D01*
X232334Y88515D01*
X232838D01*
X232945Y87705D01*
X233284Y86887D01*
X233822Y86185D01*
X234525Y85646D01*
X235343Y85307D01*
X235720Y85257D01*
Y88583D01*
Y91908D01*
X235343Y91858D01*
X234525Y91519D01*
X233822Y90981D01*
X233284Y90278D01*
X232945Y89460D01*
X232838Y88651D01*
X232334D01*
X232289Y88996D01*
X232207Y89617D01*
X231807Y90581D01*
X231172Y91408D01*
X230969Y91565D01*
Y92494D01*
X232309D01*
Y100419D01*
X224384D01*
Y99079D01*
X204630D01*
X161271Y142437D01*
X161327Y142541D01*
X161733Y143881D01*
X161871Y145276D01*
X161733Y146670D01*
X161327Y148010D01*
X160666Y149246D01*
X159777Y150329D01*
X158695Y151217D01*
X157459Y151878D01*
X157347Y151912D01*
Y162385D01*
X157347Y162385D01*
X157257Y163064D01*
X156995Y163697D01*
X156579Y164240D01*
X156579Y164240D01*
X152470Y168349D01*
Y173549D01*
X151228D01*
Y175664D01*
X152470D01*
Y185754D01*
X151228D01*
Y187868D01*
X152470D01*
Y197958D01*
X151228D01*
Y200073D01*
X152470D01*
Y210163D01*
X151228D01*
Y212278D01*
X152470D01*
Y222368D01*
X144742D01*
Y212278D01*
X145983D01*
Y210163D01*
X144742D01*
Y200073D01*
X145983D01*
Y197958D01*
X144742D01*
Y187868D01*
X145983D01*
Y185754D01*
X144742D01*
Y175664D01*
X145983D01*
Y173549D01*
X144742D01*
Y163459D01*
X149942D01*
X152102Y161299D01*
Y151912D01*
X151990Y151878D01*
X150754Y151217D01*
X149671Y150329D01*
X148783Y149246D01*
X148122Y148010D01*
X147715Y146670D01*
X147578Y145276D01*
X147715Y143881D01*
X148122Y142541D01*
X148783Y141305D01*
X149671Y140223D01*
X150754Y139334D01*
X151990Y138673D01*
X153330Y138267D01*
X154724Y138129D01*
X156119Y138267D01*
X157459Y138673D01*
X157563Y138729D01*
X201689Y94602D01*
X201689Y94602D01*
X202232Y94186D01*
X202865Y93924D01*
X203543Y93834D01*
X224384D01*
Y92494D01*
X225724D01*
Y91565D01*
X225521Y91408D01*
X224886Y90581D01*
X224486Y89617D01*
X224350Y88583D01*
X224486Y87548D01*
X224886Y86584D01*
X225521Y85757D01*
X225724Y85601D01*
Y83691D01*
X225521Y83534D01*
X224886Y82707D01*
X224486Y81743D01*
X224350Y80709D01*
X224383Y80454D01*
X218546Y74616D01*
X218129Y74073D01*
X217867Y73441D01*
X217778Y72762D01*
X217778Y72762D01*
Y58934D01*
X217278Y58835D01*
X217099Y59266D01*
X216987Y59433D01*
X216911Y59618D01*
X216587Y60102D01*
X216445Y60244D01*
X216334Y60411D01*
X215923Y60822D01*
X215756Y60934D01*
X215614Y61076D01*
X215130Y61399D01*
X214944Y61476D01*
X214777Y61587D01*
X214240Y61810D01*
X214043Y61849D01*
X213858Y61926D01*
X213287Y62039D01*
X213086Y62039D01*
X212889Y62078D01*
X212308D01*
X212111Y62039D01*
X211910Y62039D01*
X211339Y61926D01*
X211154Y61849D01*
X210957Y61810D01*
X210419Y61587D01*
X210252Y61476D01*
X210067Y61399D01*
X209583Y61076D01*
X209441Y60934D01*
X209274Y60822D01*
X208863Y60411D01*
X208751Y60244D01*
X208609Y60102D01*
X208286Y59618D01*
X208209Y59433D01*
X208098Y59266D01*
X207875Y58728D01*
X207836Y58531D01*
X207759Y58346D01*
X207646Y57775D01*
Y57574D01*
X207607Y57377D01*
Y56796D01*
X207646Y56599D01*
Y56398D01*
X207759Y55827D01*
X207836Y55642D01*
X207875Y55445D01*
X208098Y54908D01*
X208209Y54741D01*
X208286Y54555D01*
X208609Y54071D01*
X208751Y53929D01*
X208863Y53762D01*
X209274Y53351D01*
X209441Y53240D01*
X209583Y53097D01*
X210067Y52774D01*
X210252Y52697D01*
X210419Y52586D01*
X210957Y52363D01*
X211154Y52324D01*
X211339Y52247D01*
X211910Y52134D01*
X212111D01*
X212308Y52095D01*
X212889D01*
X213086Y52134D01*
X213287D01*
X213858Y52247D01*
X214043Y52324D01*
X214240Y52363D01*
X214777Y52586D01*
X214944Y52697D01*
X215130Y52774D01*
X215614Y53097D01*
X215756Y53240D01*
X215923Y53351D01*
X216334Y53762D01*
X216445Y53929D01*
X216587Y54071D01*
X216911Y54555D01*
X216987Y54741D01*
X217099Y54908D01*
X217278Y55339D01*
X217778Y55239D01*
Y17100D01*
X217778Y17100D01*
X217867Y16421D01*
X218129Y15789D01*
X218546Y15246D01*
X230446Y3346D01*
X230446Y3346D01*
X230989Y2929D01*
X231621Y2667D01*
X232300Y2578D01*
X232300Y2578D01*
X320161D01*
X320161Y2578D01*
X320839Y2667D01*
X321472Y2929D01*
X322015Y3346D01*
X379054Y60385D01*
X379054Y60385D01*
X379351Y60771D01*
X379851Y60601D01*
Y19685D01*
Y18528D01*
X379549Y16235D01*
X378950Y14001D01*
X378065Y11864D01*
X376908Y9860D01*
X375500Y8025D01*
X373864Y6390D01*
X372029Y4981D01*
X370026Y3825D01*
X367889Y2940D01*
X365655Y2341D01*
X363361Y2039D01*
X97269D01*
X94975Y2341D01*
X92741Y2940D01*
X90604Y3825D01*
X88601Y4981D01*
X86765Y6390D01*
X85130Y8025D01*
X83722Y9860D01*
X82565Y11864D01*
X81680Y14001D01*
X81081Y16235D01*
X80779Y18528D01*
Y19685D01*
Y409449D01*
Y410605D01*
X81081Y412899D01*
X81680Y415133D01*
X82565Y417270D01*
X83722Y419273D01*
X85130Y421108D01*
X86765Y422744D01*
X88601Y424152D01*
X90604Y425309D01*
X92741Y426194D01*
X94975Y426793D01*
X97269Y427095D01*
X363361D01*
X365655Y426793D01*
D02*
G37*
%LPC*%
G36*
X362205Y423296D02*
X360038Y423126D01*
X357926Y422618D01*
X355918Y421787D01*
X354065Y420652D01*
X352413Y419240D01*
X351002Y417588D01*
X349867Y415735D01*
X349035Y413728D01*
X348528Y411615D01*
X348357Y409449D01*
X348528Y407283D01*
X349035Y405170D01*
X349867Y403162D01*
X351002Y401309D01*
X352413Y399657D01*
X354065Y398246D01*
X355918Y397111D01*
X357926Y396279D01*
X360038Y395772D01*
X362205Y395601D01*
X364371Y395772D01*
X366484Y396279D01*
X368491Y397111D01*
X370344Y398246D01*
X371996Y399657D01*
X373408Y401309D01*
X374543Y403162D01*
X375374Y405170D01*
X375882Y407283D01*
X376052Y409449D01*
X375882Y411615D01*
X375374Y413728D01*
X374543Y415735D01*
X373408Y417588D01*
X371996Y419240D01*
X370344Y420652D01*
X368491Y421787D01*
X366484Y422618D01*
X364371Y423126D01*
X362205Y423296D01*
D02*
G37*
G36*
X98425D02*
X96259Y423126D01*
X94146Y422618D01*
X92139Y421787D01*
X90286Y420652D01*
X88634Y419240D01*
X87222Y417588D01*
X86087Y415735D01*
X85255Y413728D01*
X84748Y411615D01*
X84578Y409449D01*
X84748Y407283D01*
X85255Y405170D01*
X86087Y403162D01*
X87222Y401309D01*
X88634Y399657D01*
X90286Y398246D01*
X92139Y397111D01*
X94146Y396279D01*
X96259Y395772D01*
X98425Y395601D01*
X100591Y395772D01*
X102704Y396279D01*
X104712Y397111D01*
X106564Y398246D01*
X108217Y399657D01*
X109628Y401309D01*
X110763Y403162D01*
X111595Y405170D01*
X112102Y407283D01*
X112273Y409449D01*
X112102Y411615D01*
X111595Y413728D01*
X110763Y415735D01*
X109628Y417588D01*
X108217Y419240D01*
X106564Y420652D01*
X104712Y421787D01*
X102704Y422618D01*
X100591Y423126D01*
X98425Y423296D01*
D02*
G37*
G36*
X244193Y409071D02*
X242150Y408911D01*
X240158Y408432D01*
X238265Y407648D01*
X236518Y406578D01*
X234960Y405247D01*
X233629Y403689D01*
X232558Y401942D01*
X231774Y400049D01*
X231296Y398056D01*
X231135Y396014D01*
X231296Y393971D01*
X231774Y391979D01*
X232558Y390086D01*
X233629Y388339D01*
X234960Y386781D01*
X236518Y385450D01*
X238265Y384379D01*
X240158Y383595D01*
X242150Y383117D01*
X244193Y382956D01*
X246236Y383117D01*
X248228Y383595D01*
X250121Y384379D01*
X251868Y385450D01*
X253426Y386781D01*
X254757Y388339D01*
X255827Y390086D01*
X256611Y391979D01*
X257090Y393971D01*
X257250Y396014D01*
X257090Y398056D01*
X256611Y400049D01*
X255827Y401942D01*
X254757Y403689D01*
X253426Y405247D01*
X251868Y406578D01*
X250121Y407648D01*
X248228Y408432D01*
X246236Y408911D01*
X244193Y409071D01*
D02*
G37*
G36*
X196949D02*
X194906Y408911D01*
X192914Y408432D01*
X191021Y407648D01*
X189274Y406578D01*
X187716Y405247D01*
X186385Y403689D01*
X185314Y401942D01*
X184530Y400049D01*
X184052Y398056D01*
X183891Y396014D01*
X184052Y393971D01*
X184530Y391979D01*
X185314Y390086D01*
X186385Y388339D01*
X187716Y386781D01*
X189274Y385450D01*
X191021Y384379D01*
X192914Y383595D01*
X194906Y383117D01*
X196949Y382956D01*
X198992Y383117D01*
X200984Y383595D01*
X202877Y384379D01*
X204624Y385450D01*
X206182Y386781D01*
X207513Y388339D01*
X208583Y390086D01*
X209367Y391979D01*
X209846Y393971D01*
X210006Y396014D01*
X209846Y398056D01*
X209367Y400049D01*
X208583Y401942D01*
X207513Y403689D01*
X206182Y405247D01*
X204624Y406578D01*
X202877Y407648D01*
X200984Y408432D01*
X198992Y408911D01*
X196949Y409071D01*
D02*
G37*
G36*
X324909Y367810D02*
X320472D01*
Y364357D01*
X324909D01*
Y367810D01*
D02*
G37*
G36*
X319472D02*
X315035D01*
Y364357D01*
X319472D01*
Y367810D01*
D02*
G37*
G36*
X300706Y381993D02*
X289632D01*
Y363832D01*
X300706D01*
Y381993D01*
D02*
G37*
G36*
X335245Y364464D02*
X331300D01*
Y361700D01*
X335245D01*
Y364464D01*
D02*
G37*
G36*
X330300D02*
X326355D01*
Y361700D01*
X330300D01*
Y364464D01*
D02*
G37*
G36*
X345498Y364464D02*
X341553D01*
Y361700D01*
X345498D01*
Y364464D01*
D02*
G37*
G36*
X340553D02*
X336608D01*
Y361700D01*
X340553D01*
Y364464D01*
D02*
G37*
G36*
X324909Y363357D02*
X320472D01*
Y359905D01*
X324909D01*
Y363357D01*
D02*
G37*
G36*
X319472D02*
X315035D01*
Y359905D01*
X319472D01*
Y363357D01*
D02*
G37*
G36*
X335245Y360700D02*
X331300D01*
Y357936D01*
X335245D01*
Y360700D01*
D02*
G37*
G36*
X330300D02*
X326355D01*
Y357936D01*
X330300D01*
Y360700D01*
D02*
G37*
G36*
X345498Y360700D02*
X336608D01*
Y357936D01*
X339916D01*
X339983Y357441D01*
X338985Y357028D01*
X338129Y356371D01*
X337472Y355515D01*
X337058Y354517D01*
X336983Y353947D01*
X345123D01*
X345047Y354517D01*
X344634Y355515D01*
X343977Y356371D01*
X343121Y357028D01*
X342123Y357441D01*
X342190Y357936D01*
X345498D01*
Y360700D01*
D02*
G37*
G36*
X345123Y352947D02*
X341553D01*
Y349377D01*
X342123Y349453D01*
X343121Y349866D01*
X343977Y350523D01*
X344634Y351379D01*
X345047Y352377D01*
X345123Y352947D01*
D02*
G37*
G36*
X340553D02*
X336983D01*
X337058Y352377D01*
X337472Y351379D01*
X338129Y350523D01*
X338985Y349866D01*
X339983Y349453D01*
X340553Y349377D01*
Y352947D01*
D02*
G37*
G36*
X239370Y352637D02*
X178347D01*
X177488Y352466D01*
X176760Y351980D01*
X129910Y305129D01*
X129424Y304402D01*
X129253Y303543D01*
Y288583D01*
X129424Y287724D01*
X129910Y286997D01*
X133453Y283453D01*
X134181Y282967D01*
X135039Y282796D01*
X144488D01*
X145347Y282967D01*
X146074Y283453D01*
X151488Y288867D01*
X151974Y289594D01*
X152062Y290038D01*
X153066D01*
X153740Y290172D01*
X154414Y290038D01*
X155336D01*
Y289370D01*
X155506Y288512D01*
X155993Y287784D01*
X157359Y286417D01*
X150874Y279932D01*
X150388Y279205D01*
X150217Y278346D01*
Y276891D01*
X149296D01*
X148622Y276757D01*
X147948Y276891D01*
X146737D01*
X146063Y276757D01*
X145389Y276891D01*
X144178D01*
X143504Y276757D01*
X142830Y276891D01*
X141619D01*
X140916Y276751D01*
X140320Y276353D01*
X139922Y275757D01*
X139782Y275054D01*
Y269277D01*
X139922Y268574D01*
X139981Y268485D01*
Y240453D01*
X140152Y239594D01*
X140638Y238867D01*
X221642Y157863D01*
X222370Y157377D01*
X223228Y157206D01*
X224309D01*
X224586Y156790D01*
X224486Y156548D01*
X224350Y155514D01*
X224486Y154479D01*
X224886Y153516D01*
X225521Y152688D01*
X226286Y152101D01*
X226269Y151876D01*
X226147Y151601D01*
X224384D01*
Y143677D01*
X226146D01*
X226267Y143408D01*
X226284Y143177D01*
X225521Y142591D01*
X224886Y141763D01*
X224486Y140799D01*
X224350Y139765D01*
X224486Y138730D01*
X224886Y137767D01*
X225521Y136939D01*
X226348Y136304D01*
X226844Y136098D01*
Y135557D01*
X226348Y135352D01*
X225521Y134717D01*
X224886Y133889D01*
X224486Y132925D01*
X224350Y131891D01*
X224486Y130856D01*
X224886Y129893D01*
X225521Y129065D01*
X226348Y128430D01*
X226844Y128224D01*
Y127683D01*
X226348Y127478D01*
X225521Y126843D01*
X224886Y126015D01*
X224486Y125051D01*
X224350Y124017D01*
X224486Y122982D01*
X224886Y122019D01*
X225521Y121191D01*
X226348Y120556D01*
X226844Y120350D01*
Y119809D01*
X226348Y119604D01*
X225521Y118969D01*
X224886Y118141D01*
X224486Y117177D01*
X224350Y116143D01*
X224486Y115108D01*
X224886Y114145D01*
X225521Y113317D01*
X226348Y112682D01*
X226844Y112476D01*
Y111935D01*
X226348Y111730D01*
X225521Y111095D01*
X224886Y110267D01*
X224486Y109303D01*
X224350Y108269D01*
X224486Y107234D01*
X224886Y106271D01*
X225521Y105443D01*
X226348Y104808D01*
X227312Y104409D01*
X228346Y104272D01*
X229075Y104368D01*
X233899Y99544D01*
X233895Y98911D01*
X233822Y98855D01*
X233284Y98152D01*
X232945Y97334D01*
X232895Y96957D01*
X239546D01*
X239496Y97334D01*
X239157Y98152D01*
X239114Y98208D01*
X239335Y98657D01*
X240980D01*
X241201Y98208D01*
X241158Y98152D01*
X240819Y97334D01*
X240769Y96957D01*
X247420D01*
X247370Y97334D01*
X247031Y98152D01*
X246988Y98208D01*
X247209Y98657D01*
X248854D01*
X249075Y98208D01*
X249032Y98152D01*
X248693Y97334D01*
X248643Y96957D01*
X251969D01*
Y96457D01*
X252468D01*
Y93131D01*
X252846Y93181D01*
X253664Y93520D01*
X254366Y94059D01*
X254707Y94503D01*
X255280Y94428D01*
X255342Y94278D01*
X255453Y94111D01*
X255530Y93925D01*
X255854Y93441D01*
X255995Y93300D01*
X256107Y93133D01*
X256518Y92721D01*
X256685Y92610D01*
X256827Y92468D01*
X257311Y92144D01*
X257497Y92068D01*
X257663Y91956D01*
X258201Y91733D01*
X258398Y91694D01*
X258583Y91617D01*
X259154Y91504D01*
X259355D01*
X259552Y91465D01*
X260133D01*
X260330Y91504D01*
X260531D01*
X261102Y91617D01*
X261287Y91694D01*
X261484Y91733D01*
X262021Y91956D01*
X262189Y92068D01*
X262374Y92144D01*
X262858Y92468D01*
X263000Y92610D01*
X263167Y92721D01*
X263578Y93133D01*
X263690Y93300D01*
X263832Y93441D01*
X264155Y93925D01*
X264232Y94111D01*
X264343Y94278D01*
X264566Y94815D01*
X264605Y95012D01*
X264682Y95197D01*
X264795Y95768D01*
X264795Y95969D01*
X264834Y96166D01*
Y96747D01*
X264795Y96944D01*
X264795Y97145D01*
X264682Y97716D01*
X264605Y97901D01*
X264566Y98098D01*
X264542Y98157D01*
X264876Y98657D01*
X267571D01*
X295714Y70514D01*
X296442Y70028D01*
X297300Y69857D01*
X332900D01*
X333758Y70028D01*
X334486Y70514D01*
X340783Y76811D01*
X341270Y77539D01*
X341440Y78397D01*
Y83171D01*
X346597D01*
Y83171D01*
X346797D01*
Y83171D01*
X354097D01*
Y86176D01*
X356005D01*
X356015Y86150D01*
X356769Y85169D01*
X357751Y84415D01*
X358894Y83942D01*
X360121Y83780D01*
X361348Y83942D01*
X362491Y84415D01*
X363473Y85169D01*
X364226Y86150D01*
X364700Y87294D01*
X364861Y88521D01*
X364700Y89748D01*
X364647Y89875D01*
X364867Y90203D01*
X365045Y91100D01*
X365045Y91100D01*
Y92090D01*
X367056D01*
Y99227D01*
X358344D01*
Y92872D01*
X357751Y92626D01*
X356769Y91873D01*
X356015Y90891D01*
X356005Y90866D01*
X354097D01*
Y93871D01*
X350097D01*
X349851Y94371D01*
X350281Y94932D01*
X350694Y95930D01*
X350769Y96500D01*
X342631D01*
X342705Y95930D01*
X343119Y94932D01*
X343549Y94371D01*
X343303Y93871D01*
X336440D01*
Y93903D01*
X336270Y94761D01*
X335783Y95489D01*
X327686Y103586D01*
X327110Y103971D01*
X327262Y104471D01*
X349097D01*
Y104471D01*
X349297D01*
Y104471D01*
X354097D01*
Y108904D01*
X358200Y113007D01*
X358708Y113768D01*
X358887Y114665D01*
Y117444D01*
X360110D01*
Y120001D01*
X362825Y122716D01*
X362825Y122717D01*
X363242Y123260D01*
X363504Y123892D01*
X363593Y124571D01*
Y126221D01*
X364835D01*
Y127846D01*
X365335Y128016D01*
X365413Y127913D01*
X366395Y127160D01*
X367539Y126687D01*
X368766Y126525D01*
X369992Y126687D01*
X371136Y127160D01*
X372118Y127913D01*
X372871Y128895D01*
X373345Y130039D01*
X373506Y131266D01*
X373345Y132492D01*
X372871Y133636D01*
X372118Y134618D01*
X371136Y135371D01*
X369992Y135845D01*
X368766Y136006D01*
X367539Y135845D01*
X366395Y135371D01*
X365413Y134618D01*
X365335Y134515D01*
X364835Y134685D01*
Y136310D01*
X357107D01*
Y126221D01*
X356634Y126156D01*
X352973D01*
Y117444D01*
X354197D01*
Y115637D01*
X353731Y115171D01*
X349297D01*
Y115171D01*
X349097D01*
Y115171D01*
X343943D01*
Y135536D01*
X344125Y135675D01*
X344670Y136385D01*
X345012Y137212D01*
X345129Y138100D01*
X345012Y138988D01*
X344670Y139815D01*
X344125Y140525D01*
X343415Y141070D01*
X342588Y141412D01*
X341700Y141529D01*
X340812Y141412D01*
X339985Y141070D01*
X339275Y140525D01*
X338730Y139815D01*
X338559Y139400D01*
X338017D01*
X337970Y139515D01*
X337425Y140225D01*
X336715Y140770D01*
X335888Y141112D01*
X335000Y141229D01*
X334112Y141112D01*
X333285Y140770D01*
X332575Y140225D01*
X332030Y139515D01*
X331747Y138832D01*
X331226Y138647D01*
X328521Y141351D01*
X327794Y141837D01*
X326935Y142008D01*
X255242D01*
X254794Y142591D01*
X253967Y143226D01*
X253471Y143431D01*
Y143972D01*
X253967Y144178D01*
X254794Y144813D01*
X254997Y145076D01*
X255007Y145081D01*
X255279Y145095D01*
X255586Y145024D01*
X255854Y144624D01*
X255995Y144482D01*
X256107Y144315D01*
X256518Y143903D01*
X256685Y143792D01*
X256827Y143650D01*
X257311Y143326D01*
X257497Y143250D01*
X257663Y143138D01*
X258201Y142915D01*
X258398Y142876D01*
X258583Y142799D01*
X259154Y142686D01*
X259355D01*
X259552Y142647D01*
X260133D01*
X260330Y142686D01*
X260531D01*
X261102Y142799D01*
X261287Y142876D01*
X261484Y142915D01*
X262021Y143138D01*
X262189Y143250D01*
X262374Y143326D01*
X262858Y143650D01*
X263000Y143792D01*
X263167Y143903D01*
X263578Y144315D01*
X263690Y144482D01*
X263832Y144624D01*
X264155Y145107D01*
X264232Y145293D01*
X264343Y145460D01*
X264566Y145997D01*
X264605Y146194D01*
X264682Y146380D01*
X264795Y146950D01*
X264795Y147151D01*
X264834Y147348D01*
Y147930D01*
X264795Y148127D01*
X264795Y148327D01*
X264682Y148898D01*
X264605Y149083D01*
X264566Y149280D01*
X264343Y149818D01*
X264232Y149985D01*
X264155Y150170D01*
X263832Y150654D01*
X263690Y150796D01*
X263578Y150963D01*
X263167Y151374D01*
X263000Y151486D01*
X262858Y151628D01*
X262374Y151951D01*
X262189Y152028D01*
X262021Y152139D01*
X261484Y152362D01*
X261287Y152401D01*
X261102Y152478D01*
X260531Y152592D01*
X260330Y152592D01*
X260133Y152631D01*
X259910D01*
X259703Y153131D01*
X332686Y226114D01*
X333172Y226842D01*
X333343Y227700D01*
Y252171D01*
X354386Y273214D01*
X354872Y273942D01*
X355043Y274800D01*
Y306300D01*
X354872Y307158D01*
X354386Y307886D01*
X348486Y313786D01*
X347758Y314272D01*
X346900Y314443D01*
X328100D01*
X327242Y314272D01*
X326514Y313786D01*
X322725Y309997D01*
X322239Y309269D01*
X322068Y308411D01*
Y306183D01*
X321147D01*
X320472Y306048D01*
X319798Y306183D01*
X318877D01*
Y316043D01*
X318706Y316902D01*
X318220Y317629D01*
X289775Y346074D01*
X289047Y346561D01*
X288189Y346731D01*
X255512D01*
X254653Y346561D01*
X253926Y346074D01*
X250572Y342721D01*
X250518Y342706D01*
X250015Y342768D01*
X249962Y342802D01*
X249618Y343318D01*
X240956Y351980D01*
X240229Y352466D01*
X239370Y352637D01*
D02*
G37*
G36*
X140452Y221768D02*
X137688D01*
Y217823D01*
X140452D01*
Y221768D01*
D02*
G37*
G36*
X136688D02*
X133925D01*
Y217823D01*
X136688D01*
Y221768D01*
D02*
G37*
G36*
X140452Y216823D02*
X137688D01*
Y212878D01*
X140452D01*
Y216823D01*
D02*
G37*
G36*
X136688D02*
X133925D01*
Y212878D01*
X136688D01*
Y216823D01*
D02*
G37*
G36*
X140452Y209563D02*
X137688D01*
Y205618D01*
X140452D01*
Y209563D01*
D02*
G37*
G36*
X136688D02*
X133925D01*
Y205618D01*
X136688D01*
Y209563D01*
D02*
G37*
G36*
X140452Y204618D02*
X137688D01*
Y200673D01*
X140452D01*
Y204618D01*
D02*
G37*
G36*
X136688D02*
X133925D01*
Y200673D01*
X136688D01*
Y204618D01*
D02*
G37*
G36*
X140452Y197358D02*
X137688D01*
Y193413D01*
X140452D01*
Y197358D01*
D02*
G37*
G36*
X136688D02*
X133925D01*
Y193413D01*
X136688D01*
Y197358D01*
D02*
G37*
G36*
X140452Y192413D02*
X137688D01*
Y188469D01*
X140452D01*
Y192413D01*
D02*
G37*
G36*
X136688D02*
X133925D01*
Y188469D01*
X136688D01*
Y192413D01*
D02*
G37*
G36*
X331716Y185724D02*
X327771D01*
Y182961D01*
X331716D01*
Y185724D01*
D02*
G37*
G36*
X321463D02*
X317518D01*
Y182961D01*
X321463D01*
Y185724D01*
D02*
G37*
G36*
X326771D02*
X322827D01*
Y182961D01*
X326771D01*
Y185724D01*
D02*
G37*
G36*
X316518D02*
X312574D01*
Y182961D01*
X316518D01*
Y185724D01*
D02*
G37*
G36*
X140452Y185153D02*
X137688D01*
Y181209D01*
X140452D01*
Y185153D01*
D02*
G37*
G36*
X136688D02*
X133925D01*
Y181209D01*
X136688D01*
Y185153D01*
D02*
G37*
G36*
X342265Y183756D02*
X337828D01*
Y180303D01*
X342265D01*
Y183756D01*
D02*
G37*
G36*
X336828D02*
X332391D01*
Y180303D01*
X336828D01*
Y183756D01*
D02*
G37*
G36*
X331716Y181961D02*
X327771D01*
Y179197D01*
X331716D01*
Y181961D01*
D02*
G37*
G36*
X326771D02*
X322827D01*
Y179197D01*
X326771D01*
Y181961D01*
D02*
G37*
G36*
X321463D02*
X317518D01*
Y179197D01*
X321463D01*
Y181961D01*
D02*
G37*
G36*
X316518D02*
X312574D01*
Y179197D01*
X316518D01*
Y181961D01*
D02*
G37*
G36*
X140452Y180209D02*
X137688D01*
Y176264D01*
X140452D01*
Y180209D01*
D02*
G37*
G36*
X136688D02*
X133925D01*
Y176264D01*
X136688D01*
Y180209D01*
D02*
G37*
G36*
X342265Y179303D02*
X337828D01*
Y175850D01*
X342265D01*
Y179303D01*
D02*
G37*
G36*
X336828D02*
X332391D01*
Y175850D01*
X336828D01*
Y179303D01*
D02*
G37*
G36*
X140452Y172949D02*
X137688D01*
Y169004D01*
X140452D01*
Y172949D01*
D02*
G37*
G36*
X136688D02*
X133925D01*
Y169004D01*
X136688D01*
Y172949D01*
D02*
G37*
G36*
X140452Y168004D02*
X137688D01*
Y164059D01*
X140452D01*
Y168004D01*
D02*
G37*
G36*
X136688D02*
X133925D01*
Y164059D01*
X136688D01*
Y168004D01*
D02*
G37*
G36*
X367668Y179828D02*
X356594D01*
Y161668D01*
X367668D01*
Y179828D01*
D02*
G37*
G36*
X212889Y160506D02*
X212308D01*
X212111Y160467D01*
X211910Y160467D01*
X211339Y160353D01*
X211154Y160276D01*
X210957Y160237D01*
X210419Y160014D01*
X210252Y159903D01*
X210067Y159826D01*
X209583Y159503D01*
X209441Y159361D01*
X209274Y159249D01*
X208863Y158838D01*
X208751Y158671D01*
X208609Y158529D01*
X208286Y158045D01*
X208209Y157860D01*
X208098Y157693D01*
X207875Y157155D01*
X207836Y156958D01*
X207759Y156773D01*
X207646Y156202D01*
Y156002D01*
X207607Y155805D01*
Y155223D01*
X207646Y155026D01*
Y154825D01*
X207759Y154255D01*
X207836Y154069D01*
X207875Y153872D01*
X208098Y153335D01*
X208209Y153168D01*
X208286Y152982D01*
X208609Y152499D01*
X208751Y152357D01*
X208863Y152190D01*
X209274Y151778D01*
X209441Y151667D01*
X209583Y151525D01*
X210067Y151202D01*
X210252Y151125D01*
X210419Y151013D01*
X210957Y150791D01*
X211154Y150751D01*
X211339Y150674D01*
X211910Y150561D01*
X212111D01*
X212308Y150522D01*
X212889D01*
X213086Y150561D01*
X213287D01*
X213858Y150674D01*
X214043Y150751D01*
X214240Y150791D01*
X214777Y151013D01*
X214944Y151125D01*
X215130Y151202D01*
X215614Y151525D01*
X215756Y151667D01*
X215923Y151778D01*
X216334Y152190D01*
X216445Y152357D01*
X216587Y152499D01*
X216911Y152982D01*
X216987Y153168D01*
X217099Y153335D01*
X217322Y153872D01*
X217361Y154069D01*
X217438Y154255D01*
X217551Y154825D01*
X217551Y155026D01*
X217590Y155223D01*
Y155805D01*
X217551Y156002D01*
X217551Y156202D01*
X217438Y156773D01*
X217361Y156958D01*
X217322Y157155D01*
X217099Y157693D01*
X216987Y157860D01*
X216911Y158045D01*
X216587Y158529D01*
X216445Y158671D01*
X216334Y158838D01*
X215923Y159249D01*
X215756Y159361D01*
X215614Y159503D01*
X215130Y159826D01*
X214944Y159903D01*
X214777Y160014D01*
X214240Y160237D01*
X214043Y160276D01*
X213858Y160353D01*
X213287Y160467D01*
X213086Y160467D01*
X212889Y160506D01*
D02*
G37*
G36*
X117717Y152422D02*
X116322Y152285D01*
X114982Y151878D01*
X113746Y151217D01*
X112663Y150329D01*
X111775Y149246D01*
X111114Y148010D01*
X110708Y146670D01*
X110570Y145276D01*
X110708Y143881D01*
X111114Y142541D01*
X111775Y141305D01*
X112663Y140223D01*
X113746Y139334D01*
X114982Y138673D01*
X116322Y138267D01*
X117717Y138129D01*
X119111Y138267D01*
X120451Y138673D01*
X121687Y139334D01*
X122770Y140223D01*
X123658Y141305D01*
X124319Y142541D01*
X124725Y143881D01*
X124863Y145276D01*
X124725Y146670D01*
X124319Y148010D01*
X123658Y149246D01*
X122770Y150329D01*
X121687Y151217D01*
X120451Y151878D01*
X119111Y152285D01*
X117717Y152422D01*
D02*
G37*
G36*
X352817Y135710D02*
X350054D01*
Y131766D01*
X352817D01*
Y135710D01*
D02*
G37*
G36*
X349054D02*
X346290D01*
Y131766D01*
X349054D01*
Y135710D01*
D02*
G37*
G36*
X352817Y130766D02*
X350054D01*
Y126821D01*
X352817D01*
Y130766D01*
D02*
G37*
G36*
X349054D02*
X346290D01*
Y126821D01*
X349054D01*
Y130766D01*
D02*
G37*
G36*
X352227Y125556D02*
X349758D01*
Y122300D01*
X352227D01*
Y125556D01*
D02*
G37*
G36*
X348758D02*
X346290D01*
Y122300D01*
X348758D01*
Y125556D01*
D02*
G37*
G36*
X352227Y121300D02*
X349758D01*
Y118044D01*
X352227D01*
Y121300D01*
D02*
G37*
G36*
X348758D02*
X346290D01*
Y118044D01*
X348758D01*
Y121300D01*
D02*
G37*
G36*
X363200Y114870D02*
Y111300D01*
X366770D01*
X366694Y111870D01*
X366281Y112868D01*
X365624Y113724D01*
X364768Y114381D01*
X363770Y114795D01*
X363200Y114870D01*
D02*
G37*
G36*
X362200D02*
X361630Y114795D01*
X360632Y114381D01*
X359776Y113724D01*
X359119Y112868D01*
X358705Y111870D01*
X358630Y111300D01*
X362200D01*
Y114870D01*
D02*
G37*
G36*
X366770Y110300D02*
X363200D01*
Y106730D01*
X363770Y106806D01*
X364768Y107219D01*
X365624Y107876D01*
X366281Y108732D01*
X366694Y109730D01*
X366770Y110300D01*
D02*
G37*
G36*
X362200D02*
X358630D01*
X358705Y109730D01*
X359119Y108732D01*
X359776Y107876D01*
X360632Y107219D01*
X361630Y106806D01*
X362200Y106730D01*
Y110300D01*
D02*
G37*
G36*
X366456Y105910D02*
X363200D01*
Y103442D01*
X366456D01*
Y105910D01*
D02*
G37*
G36*
X362200D02*
X358944D01*
Y103442D01*
X362200D01*
Y105910D01*
D02*
G37*
G36*
X212889Y113261D02*
X212308D01*
X212111Y113221D01*
X211910Y113221D01*
X211339Y113108D01*
X211154Y113031D01*
X210957Y112992D01*
X210419Y112769D01*
X210252Y112658D01*
X210067Y112581D01*
X209583Y112258D01*
X209441Y112116D01*
X209274Y112004D01*
X208863Y111593D01*
X208751Y111426D01*
X208609Y111284D01*
X208286Y110800D01*
X208209Y110615D01*
X208098Y110448D01*
X207875Y109910D01*
X207836Y109713D01*
X207759Y109528D01*
X207646Y108957D01*
Y108756D01*
X207607Y108560D01*
Y107978D01*
X207646Y107781D01*
Y107580D01*
X207759Y107010D01*
X207836Y106824D01*
X207875Y106627D01*
X208098Y106090D01*
X208209Y105923D01*
X208286Y105737D01*
X208609Y105254D01*
X208751Y105112D01*
X208863Y104945D01*
X209274Y104533D01*
X209441Y104422D01*
X209583Y104280D01*
X210067Y103956D01*
X210252Y103880D01*
X210419Y103768D01*
X210957Y103545D01*
X211154Y103506D01*
X211339Y103429D01*
X211910Y103316D01*
X212111D01*
X212308Y103277D01*
X212889D01*
X213086Y103316D01*
X213287D01*
X213858Y103429D01*
X214043Y103506D01*
X214240Y103545D01*
X214777Y103768D01*
X214944Y103880D01*
X215130Y103956D01*
X215614Y104280D01*
X215756Y104422D01*
X215923Y104533D01*
X216334Y104945D01*
X216445Y105112D01*
X216587Y105254D01*
X216911Y105737D01*
X216987Y105923D01*
X217099Y106090D01*
X217322Y106627D01*
X217361Y106824D01*
X217438Y107009D01*
X217551Y107580D01*
X217551Y107781D01*
X217590Y107978D01*
Y108560D01*
X217551Y108756D01*
X217551Y108957D01*
X217438Y109528D01*
X217361Y109713D01*
X217322Y109910D01*
X217099Y110448D01*
X216987Y110615D01*
X216911Y110800D01*
X216587Y111284D01*
X216445Y111426D01*
X216334Y111593D01*
X215923Y112004D01*
X215756Y112116D01*
X215614Y112258D01*
X215130Y112581D01*
X214944Y112658D01*
X214777Y112769D01*
X214240Y112992D01*
X214043Y113031D01*
X213858Y113108D01*
X213287Y113221D01*
X213086Y113221D01*
X212889Y113261D01*
D02*
G37*
G36*
X366456Y102442D02*
X363200D01*
Y99973D01*
X366456D01*
Y102442D01*
D02*
G37*
G36*
X362200D02*
X358944D01*
Y99973D01*
X362200D01*
Y102442D01*
D02*
G37*
G36*
X347200Y101070D02*
Y97500D01*
X350769D01*
X350694Y98070D01*
X350281Y99068D01*
X349624Y99924D01*
X348768Y100581D01*
X347770Y100995D01*
X347200Y101070D01*
D02*
G37*
G36*
X346200D02*
X345630Y100995D01*
X344632Y100581D01*
X343776Y99924D01*
X343119Y99068D01*
X342705Y98070D01*
X342631Y97500D01*
X346200D01*
Y101070D01*
D02*
G37*
G36*
X251468Y95957D02*
X248643D01*
X248693Y95579D01*
X249032Y94761D01*
X249571Y94059D01*
X250273Y93520D01*
X251091Y93181D01*
X251468Y93131D01*
Y95957D01*
D02*
G37*
G36*
X247420D02*
X244595D01*
Y93131D01*
X244972Y93181D01*
X245790Y93520D01*
X246492Y94059D01*
X247031Y94761D01*
X247370Y95579D01*
X247420Y95957D01*
D02*
G37*
G36*
X243595D02*
X240769D01*
X240819Y95579D01*
X241158Y94761D01*
X241697Y94059D01*
X242399Y93520D01*
X243217Y93181D01*
X243595Y93131D01*
Y95957D01*
D02*
G37*
G36*
X239546D02*
X236720D01*
Y93131D01*
X237098Y93181D01*
X237916Y93520D01*
X238618Y94059D01*
X239157Y94761D01*
X239496Y95579D01*
X239546Y95957D01*
D02*
G37*
G36*
X235720D02*
X232895D01*
X232945Y95579D01*
X233284Y94761D01*
X233822Y94059D01*
X234525Y93520D01*
X235343Y93181D01*
X235720Y93131D01*
Y95957D01*
D02*
G37*
G36*
X129139Y94618D02*
Y90800D01*
X132958D01*
X132874Y91435D01*
X132436Y92492D01*
X131739Y93400D01*
X130831Y94097D01*
X129774Y94535D01*
X129139Y94618D01*
D02*
G37*
G36*
X119140D02*
Y90800D01*
X122958D01*
X122874Y91435D01*
X122436Y92492D01*
X121739Y93400D01*
X120831Y94097D01*
X119774Y94535D01*
X119140Y94618D01*
D02*
G37*
G36*
X128139Y94618D02*
X127505Y94535D01*
X126447Y94097D01*
X125540Y93400D01*
X124843Y92492D01*
X124405Y91435D01*
X124321Y90800D01*
X128139D01*
Y94618D01*
D02*
G37*
G36*
X118140D02*
X117505Y94535D01*
X116447Y94097D01*
X115540Y93400D01*
X114843Y92492D01*
X114405Y91435D01*
X114321Y90800D01*
X118140D01*
Y94618D01*
D02*
G37*
G36*
X252468Y91908D02*
Y89083D01*
X255294D01*
X255244Y89460D01*
X254905Y90278D01*
X254366Y90981D01*
X253664Y91519D01*
X252846Y91858D01*
X252468Y91908D01*
D02*
G37*
G36*
X251468D02*
X251091Y91858D01*
X250273Y91519D01*
X249571Y90981D01*
X249032Y90278D01*
X248693Y89460D01*
X248643Y89083D01*
X251468D01*
Y91908D01*
D02*
G37*
G36*
X244595D02*
Y89083D01*
X247420D01*
X247370Y89460D01*
X247031Y90278D01*
X246492Y90981D01*
X245790Y91519D01*
X244972Y91858D01*
X244595Y91908D01*
D02*
G37*
G36*
X243595D02*
X243217Y91858D01*
X242399Y91519D01*
X241697Y90981D01*
X241158Y90278D01*
X240819Y89460D01*
X240769Y89083D01*
X243595D01*
Y91908D01*
D02*
G37*
G36*
X236720D02*
Y89083D01*
X239546D01*
X239496Y89460D01*
X239157Y90278D01*
X238618Y90981D01*
X237916Y91519D01*
X237098Y91858D01*
X236720Y91908D01*
D02*
G37*
G36*
X132958Y89800D02*
X129139D01*
Y85982D01*
X129774Y86065D01*
X130831Y86503D01*
X131739Y87200D01*
X132436Y88108D01*
X132874Y89165D01*
X132958Y89800D01*
D02*
G37*
G36*
X122958D02*
X119140D01*
Y85982D01*
X119774Y86065D01*
X120831Y86503D01*
X121739Y87200D01*
X122436Y88108D01*
X122874Y89165D01*
X122958Y89800D01*
D02*
G37*
G36*
X128139D02*
X124321D01*
X124405Y89165D01*
X124843Y88108D01*
X125540Y87200D01*
X126447Y86503D01*
X127505Y86065D01*
X128139Y85982D01*
Y89800D01*
D02*
G37*
G36*
X118140D02*
X114321D01*
X114405Y89165D01*
X114843Y88108D01*
X115540Y87200D01*
X116447Y86503D01*
X117505Y86065D01*
X118140Y85982D01*
Y89800D01*
D02*
G37*
G36*
X136221Y152422D02*
X134826Y152285D01*
X133486Y151878D01*
X132250Y151217D01*
X131167Y150329D01*
X130279Y149246D01*
X129618Y148010D01*
X129212Y146670D01*
X129074Y145276D01*
X129212Y143881D01*
X129618Y142541D01*
X130279Y141305D01*
X131167Y140223D01*
X132250Y139334D01*
X133486Y138673D01*
X133598Y138639D01*
Y123622D01*
X133598Y123622D01*
X133687Y122943D01*
X133949Y122311D01*
X134366Y121768D01*
X135941Y120193D01*
Y95246D01*
X133693D01*
Y85353D01*
X143586D01*
Y95246D01*
X141185D01*
Y121280D01*
X141096Y121958D01*
X140834Y122591D01*
X140417Y123134D01*
X140417Y123134D01*
X138843Y124708D01*
Y138639D01*
X138955Y138673D01*
X140191Y139334D01*
X141274Y140223D01*
X142162Y141305D01*
X142823Y142541D01*
X143229Y143881D01*
X143367Y145276D01*
X143229Y146670D01*
X142823Y148010D01*
X142162Y149246D01*
X141274Y150329D01*
X140191Y151217D01*
X138955Y151878D01*
X137615Y152285D01*
X136221Y152422D01*
D02*
G37*
G36*
X255294Y88083D02*
X252468D01*
Y85257D01*
X252846Y85307D01*
X253664Y85646D01*
X254366Y86185D01*
X254905Y86887D01*
X255244Y87705D01*
X255294Y88083D01*
D02*
G37*
G36*
X251468D02*
X248643D01*
X248693Y87705D01*
X249032Y86887D01*
X249571Y86185D01*
X250273Y85646D01*
X251091Y85307D01*
X251468Y85257D01*
Y88083D01*
D02*
G37*
G36*
X247420D02*
X244595D01*
Y85257D01*
X244972Y85307D01*
X245790Y85646D01*
X246492Y86185D01*
X247031Y86887D01*
X247370Y87705D01*
X247420Y88083D01*
D02*
G37*
G36*
X243595D02*
X240769D01*
X240819Y87705D01*
X241158Y86887D01*
X241697Y86185D01*
X242399Y85646D01*
X243217Y85307D01*
X243595Y85257D01*
Y88083D01*
D02*
G37*
G36*
X239546D02*
X236720D01*
Y85257D01*
X237098Y85307D01*
X237916Y85646D01*
X238618Y86185D01*
X239157Y86887D01*
X239496Y87705D01*
X239546Y88083D01*
D02*
G37*
G36*
X252468Y84034D02*
Y81209D01*
X255294D01*
X255244Y81586D01*
X254905Y82404D01*
X254366Y83107D01*
X253664Y83645D01*
X252846Y83984D01*
X252468Y84034D01*
D02*
G37*
G36*
X251468D02*
X251091Y83984D01*
X250273Y83645D01*
X249571Y83107D01*
X249032Y82404D01*
X248693Y81586D01*
X248643Y81209D01*
X251468D01*
Y84034D01*
D02*
G37*
G36*
X244595D02*
Y81209D01*
X247420D01*
X247370Y81586D01*
X247031Y82404D01*
X246492Y83107D01*
X245790Y83645D01*
X244972Y83984D01*
X244595Y84034D01*
D02*
G37*
G36*
X243595D02*
X243217Y83984D01*
X242399Y83645D01*
X241697Y83107D01*
X241158Y82404D01*
X240819Y81586D01*
X240769Y81209D01*
X243595D01*
Y84034D01*
D02*
G37*
G36*
X236720D02*
Y81209D01*
X239546D01*
X239496Y81586D01*
X239157Y82404D01*
X238618Y83107D01*
X237916Y83645D01*
X237098Y83984D01*
X236720Y84034D01*
D02*
G37*
G36*
X255294Y80209D02*
X252468D01*
Y77383D01*
X252846Y77433D01*
X253664Y77772D01*
X254366Y78311D01*
X254905Y79013D01*
X255244Y79831D01*
X255294Y80209D01*
D02*
G37*
G36*
X251468D02*
X248643D01*
X248693Y79831D01*
X249032Y79013D01*
X249571Y78311D01*
X250273Y77772D01*
X251091Y77433D01*
X251468Y77383D01*
Y80209D01*
D02*
G37*
G36*
X247420D02*
X244595D01*
Y77383D01*
X244972Y77433D01*
X245790Y77772D01*
X246492Y78311D01*
X247031Y79013D01*
X247370Y79831D01*
X247420Y80209D01*
D02*
G37*
G36*
X243595D02*
X240769D01*
X240819Y79831D01*
X241158Y79013D01*
X241697Y78311D01*
X242399Y77772D01*
X243217Y77433D01*
X243595Y77383D01*
Y80209D01*
D02*
G37*
G36*
X239546D02*
X236720D01*
Y77383D01*
X237098Y77433D01*
X237916Y77772D01*
X238618Y78311D01*
X239157Y79013D01*
X239496Y79831D01*
X239546Y80209D01*
D02*
G37*
G36*
X252468Y76160D02*
Y73335D01*
X255294D01*
X255244Y73712D01*
X254905Y74530D01*
X254366Y75233D01*
X253664Y75771D01*
X252846Y76110D01*
X252468Y76160D01*
D02*
G37*
G36*
X251468D02*
X251091Y76110D01*
X250273Y75771D01*
X249571Y75233D01*
X249032Y74530D01*
X248693Y73712D01*
X248643Y73335D01*
X251468D01*
Y76160D01*
D02*
G37*
G36*
X244595D02*
Y73335D01*
X247420D01*
X247370Y73712D01*
X247031Y74530D01*
X246492Y75233D01*
X245790Y75771D01*
X244972Y76110D01*
X244595Y76160D01*
D02*
G37*
G36*
X243595D02*
X243217Y76110D01*
X242399Y75771D01*
X241697Y75233D01*
X241158Y74530D01*
X240819Y73712D01*
X240769Y73335D01*
X243595D01*
Y76160D01*
D02*
G37*
G36*
X236720D02*
Y73335D01*
X239546D01*
X239496Y73712D01*
X239157Y74530D01*
X238618Y75233D01*
X237916Y75771D01*
X237098Y76110D01*
X236720Y76160D01*
D02*
G37*
G36*
X235720D02*
X235343Y76110D01*
X234525Y75771D01*
X233822Y75233D01*
X233284Y74530D01*
X232945Y73712D01*
X232895Y73335D01*
X235720D01*
Y76160D01*
D02*
G37*
G36*
X255294Y72335D02*
X252468D01*
Y69509D01*
X252846Y69559D01*
X253664Y69898D01*
X254366Y70437D01*
X254905Y71139D01*
X255244Y71957D01*
X255294Y72335D01*
D02*
G37*
G36*
X251468D02*
X248643D01*
X248693Y71957D01*
X249032Y71139D01*
X249571Y70437D01*
X250273Y69898D01*
X251091Y69559D01*
X251468Y69509D01*
Y72335D01*
D02*
G37*
G36*
X247420D02*
X244595D01*
Y69509D01*
X244972Y69559D01*
X245790Y69898D01*
X246492Y70437D01*
X247031Y71139D01*
X247370Y71957D01*
X247420Y72335D01*
D02*
G37*
G36*
X243595D02*
X240769D01*
X240819Y71957D01*
X241158Y71139D01*
X241697Y70437D01*
X242399Y69898D01*
X243217Y69559D01*
X243595Y69509D01*
Y72335D01*
D02*
G37*
G36*
X239546D02*
X236720D01*
Y69509D01*
X237098Y69559D01*
X237916Y69898D01*
X238618Y70437D01*
X239157Y71139D01*
X239496Y71957D01*
X239546Y72335D01*
D02*
G37*
G36*
X235720D02*
X232895D01*
X232945Y71957D01*
X233284Y71139D01*
X233822Y70437D01*
X234525Y69898D01*
X235343Y69559D01*
X235720Y69509D01*
Y72335D01*
D02*
G37*
G36*
X231672D02*
X228847D01*
Y69509D01*
X229224Y69559D01*
X230042Y69898D01*
X230744Y70437D01*
X231283Y71139D01*
X231622Y71957D01*
X231672Y72335D01*
D02*
G37*
G36*
X252468Y68286D02*
Y65461D01*
X255294D01*
X255244Y65838D01*
X254905Y66656D01*
X254366Y67358D01*
X253664Y67897D01*
X252846Y68236D01*
X252468Y68286D01*
D02*
G37*
G36*
X251468D02*
X251091Y68236D01*
X250273Y67897D01*
X249571Y67358D01*
X249032Y66656D01*
X248693Y65838D01*
X248643Y65461D01*
X251468D01*
Y68286D01*
D02*
G37*
G36*
X244595D02*
Y65461D01*
X247420D01*
X247370Y65838D01*
X247031Y66656D01*
X246492Y67358D01*
X245790Y67897D01*
X244972Y68236D01*
X244595Y68286D01*
D02*
G37*
G36*
X243595D02*
X243217Y68236D01*
X242399Y67897D01*
X241697Y67358D01*
X241158Y66656D01*
X240819Y65838D01*
X240769Y65461D01*
X243595D01*
Y68286D01*
D02*
G37*
G36*
X236720D02*
Y65461D01*
X239546D01*
X239496Y65838D01*
X239157Y66656D01*
X238618Y67358D01*
X237916Y67897D01*
X237098Y68236D01*
X236720Y68286D01*
D02*
G37*
G36*
X235720D02*
X235343Y68236D01*
X234525Y67897D01*
X233822Y67358D01*
X233284Y66656D01*
X232945Y65838D01*
X232895Y65461D01*
X235720D01*
Y68286D01*
D02*
G37*
G36*
X228847D02*
Y65461D01*
X231672D01*
X231622Y65838D01*
X231283Y66656D01*
X230744Y67358D01*
X230042Y67897D01*
X229224Y68236D01*
X228847Y68286D01*
D02*
G37*
G36*
X227847D02*
X227469Y68236D01*
X226651Y67897D01*
X225949Y67358D01*
X225410Y66656D01*
X225071Y65838D01*
X225021Y65461D01*
X227847D01*
Y68286D01*
D02*
G37*
G36*
X255294Y64461D02*
X252468D01*
Y61635D01*
X252846Y61685D01*
X253664Y62024D01*
X254366Y62563D01*
X254905Y63265D01*
X255244Y64083D01*
X255294Y64461D01*
D02*
G37*
G36*
X251468D02*
X248643D01*
X248693Y64083D01*
X249032Y63265D01*
X249571Y62563D01*
X250273Y62024D01*
X251091Y61685D01*
X251468Y61635D01*
Y64461D01*
D02*
G37*
G36*
X247420D02*
X244595D01*
Y61635D01*
X244972Y61685D01*
X245790Y62024D01*
X246492Y62563D01*
X247031Y63265D01*
X247370Y64083D01*
X247420Y64461D01*
D02*
G37*
G36*
X243595D02*
X240769D01*
X240819Y64083D01*
X241158Y63265D01*
X241697Y62563D01*
X242399Y62024D01*
X243217Y61685D01*
X243595Y61635D01*
Y64461D01*
D02*
G37*
G36*
X239546D02*
X236720D01*
Y61635D01*
X237098Y61685D01*
X237916Y62024D01*
X238618Y62563D01*
X239157Y63265D01*
X239496Y64083D01*
X239546Y64461D01*
D02*
G37*
G36*
X235720D02*
X232895D01*
X232945Y64083D01*
X233284Y63265D01*
X233822Y62563D01*
X234525Y62024D01*
X235343Y61685D01*
X235720Y61635D01*
Y64461D01*
D02*
G37*
G36*
X231672D02*
X228847D01*
Y61635D01*
X229224Y61685D01*
X230042Y62024D01*
X230744Y62563D01*
X231283Y63265D01*
X231622Y64083D01*
X231672Y64461D01*
D02*
G37*
G36*
X227847D02*
X225021D01*
X225071Y64083D01*
X225410Y63265D01*
X225949Y62563D01*
X226651Y62024D01*
X227469Y61685D01*
X227847Y61635D01*
Y64461D01*
D02*
G37*
G36*
X252468Y60412D02*
Y57587D01*
X255294D01*
X255244Y57964D01*
X254905Y58782D01*
X254366Y59484D01*
X253664Y60023D01*
X252846Y60362D01*
X252468Y60412D01*
D02*
G37*
G36*
X251468D02*
X251091Y60362D01*
X250273Y60023D01*
X249571Y59484D01*
X249032Y58782D01*
X248693Y57964D01*
X248643Y57587D01*
X251468D01*
Y60412D01*
D02*
G37*
G36*
X244595D02*
Y57587D01*
X247420D01*
X247370Y57964D01*
X247031Y58782D01*
X246492Y59484D01*
X245790Y60023D01*
X244972Y60362D01*
X244595Y60412D01*
D02*
G37*
G36*
X243595D02*
X243217Y60362D01*
X242399Y60023D01*
X241697Y59484D01*
X241158Y58782D01*
X240819Y57964D01*
X240769Y57587D01*
X243595D01*
Y60412D01*
D02*
G37*
G36*
X236720D02*
Y57587D01*
X239546D01*
X239496Y57964D01*
X239157Y58782D01*
X238618Y59484D01*
X237916Y60023D01*
X237098Y60362D01*
X236720Y60412D01*
D02*
G37*
G36*
X235720D02*
X235343Y60362D01*
X234525Y60023D01*
X233822Y59484D01*
X233284Y58782D01*
X232945Y57964D01*
X232895Y57587D01*
X235720D01*
Y60412D01*
D02*
G37*
G36*
X228847D02*
Y57587D01*
X231672D01*
X231622Y57964D01*
X231283Y58782D01*
X230744Y59484D01*
X230042Y60023D01*
X229224Y60362D01*
X228847Y60412D01*
D02*
G37*
G36*
X227847D02*
X227469Y60362D01*
X226651Y60023D01*
X225949Y59484D01*
X225410Y58782D01*
X225071Y57964D01*
X225021Y57587D01*
X227847D01*
Y60412D01*
D02*
G37*
G36*
X255294Y56587D02*
X252468D01*
Y53761D01*
X252846Y53811D01*
X253664Y54150D01*
X254366Y54689D01*
X254905Y55391D01*
X255244Y56209D01*
X255294Y56587D01*
D02*
G37*
G36*
X251468D02*
X248643D01*
X248693Y56209D01*
X249032Y55391D01*
X249571Y54689D01*
X250273Y54150D01*
X251091Y53811D01*
X251468Y53761D01*
Y56587D01*
D02*
G37*
G36*
X247420D02*
X244595D01*
Y53761D01*
X244972Y53811D01*
X245790Y54150D01*
X246492Y54689D01*
X247031Y55391D01*
X247370Y56209D01*
X247420Y56587D01*
D02*
G37*
G36*
X243595D02*
X240769D01*
X240819Y56209D01*
X241158Y55391D01*
X241697Y54689D01*
X242399Y54150D01*
X243217Y53811D01*
X243595Y53761D01*
Y56587D01*
D02*
G37*
G36*
X239546D02*
X236720D01*
Y53761D01*
X237098Y53811D01*
X237916Y54150D01*
X238618Y54689D01*
X239157Y55391D01*
X239496Y56209D01*
X239546Y56587D01*
D02*
G37*
G36*
X235720D02*
X232895D01*
X232945Y56209D01*
X233284Y55391D01*
X233822Y54689D01*
X234525Y54150D01*
X235343Y53811D01*
X235720Y53761D01*
Y56587D01*
D02*
G37*
G36*
X231672D02*
X228847D01*
Y53761D01*
X229224Y53811D01*
X230042Y54150D01*
X230744Y54689D01*
X231283Y55391D01*
X231622Y56209D01*
X231672Y56587D01*
D02*
G37*
G36*
X227847D02*
X225021D01*
X225071Y56209D01*
X225410Y55391D01*
X225949Y54689D01*
X226651Y54150D01*
X227469Y53811D01*
X227847Y53761D01*
Y56587D01*
D02*
G37*
G36*
X370079Y48048D02*
X368852Y47886D01*
X367708Y47412D01*
X366727Y46659D01*
X365973Y45677D01*
X365500Y44534D01*
X365338Y43307D01*
X365500Y42080D01*
X365973Y40937D01*
X366727Y39955D01*
X367708Y39202D01*
X368852Y38728D01*
X370079Y38566D01*
X371306Y38728D01*
X372449Y39202D01*
X373431Y39955D01*
X374184Y40937D01*
X374658Y42080D01*
X374819Y43307D01*
X374658Y44534D01*
X374184Y45677D01*
X373431Y46659D01*
X372449Y47412D01*
X371306Y47886D01*
X370079Y48048D01*
D02*
G37*
G36*
X244193Y46085D02*
X242150Y45924D01*
X240158Y45446D01*
X238265Y44662D01*
X236518Y43591D01*
X234960Y42261D01*
X233629Y40703D01*
X232558Y38956D01*
X231774Y37062D01*
X231296Y35070D01*
X231135Y33027D01*
X231296Y30985D01*
X231774Y28993D01*
X232558Y27099D01*
X233629Y25352D01*
X234960Y23794D01*
X236518Y22464D01*
X238265Y21393D01*
X240158Y20609D01*
X242150Y20131D01*
X244193Y19970D01*
X246236Y20131D01*
X248228Y20609D01*
X250121Y21393D01*
X251868Y22464D01*
X253426Y23794D01*
X254757Y25352D01*
X255827Y27099D01*
X256611Y28993D01*
X257090Y30985D01*
X257250Y33027D01*
X257090Y35070D01*
X256611Y37062D01*
X255827Y38956D01*
X254757Y40703D01*
X253426Y42261D01*
X251868Y43591D01*
X250121Y44662D01*
X248228Y45446D01*
X246236Y45924D01*
X244193Y46085D01*
D02*
G37*
G36*
X196949D02*
X194906Y45924D01*
X192914Y45446D01*
X191021Y44662D01*
X189274Y43591D01*
X187716Y42261D01*
X186385Y40703D01*
X185314Y38956D01*
X184530Y37062D01*
X184052Y35070D01*
X183891Y33027D01*
X184052Y30985D01*
X184530Y28993D01*
X185314Y27099D01*
X186385Y25352D01*
X187716Y23794D01*
X189274Y22464D01*
X191021Y21393D01*
X192914Y20609D01*
X194906Y20131D01*
X196949Y19970D01*
X198992Y20131D01*
X200984Y20609D01*
X202877Y21393D01*
X204624Y22464D01*
X206182Y23794D01*
X207513Y25352D01*
X208583Y27099D01*
X209367Y28993D01*
X209846Y30985D01*
X210006Y33027D01*
X209846Y35070D01*
X209367Y37062D01*
X208583Y38956D01*
X207513Y40703D01*
X206182Y42261D01*
X204624Y43591D01*
X202877Y44662D01*
X200984Y45446D01*
X198992Y45924D01*
X196949Y46085D01*
D02*
G37*
G36*
X362205Y33533D02*
X360038Y33362D01*
X357926Y32855D01*
X355918Y32023D01*
X354065Y30888D01*
X352413Y29477D01*
X351002Y27824D01*
X349867Y25972D01*
X349035Y23964D01*
X348528Y21851D01*
X348357Y19685D01*
X348528Y17519D01*
X349035Y15406D01*
X349867Y13398D01*
X351002Y11546D01*
X352413Y9893D01*
X354065Y8482D01*
X355918Y7347D01*
X357926Y6515D01*
X360038Y6008D01*
X362205Y5838D01*
X364371Y6008D01*
X366484Y6515D01*
X368491Y7347D01*
X370344Y8482D01*
X371996Y9893D01*
X373408Y11546D01*
X374543Y13398D01*
X375374Y15406D01*
X375882Y17519D01*
X376052Y19685D01*
X375882Y21851D01*
X375374Y23964D01*
X374543Y25972D01*
X373408Y27824D01*
X371996Y29477D01*
X370344Y30888D01*
X368491Y32023D01*
X366484Y32855D01*
X364371Y33362D01*
X362205Y33533D01*
D02*
G37*
G36*
X98425D02*
X96259Y33362D01*
X94146Y32855D01*
X92139Y32023D01*
X90286Y30888D01*
X88634Y29477D01*
X87222Y27824D01*
X86087Y25972D01*
X85255Y23964D01*
X84748Y21851D01*
X84578Y19685D01*
X84748Y17519D01*
X85255Y15406D01*
X86087Y13398D01*
X87222Y11546D01*
X88634Y9893D01*
X90286Y8482D01*
X92139Y7347D01*
X94146Y6515D01*
X96259Y6008D01*
X98425Y5838D01*
X100591Y6008D01*
X102704Y6515D01*
X104712Y7347D01*
X106564Y8482D01*
X108217Y9893D01*
X109628Y11546D01*
X110763Y13398D01*
X111595Y15406D01*
X112102Y17519D01*
X112273Y19685D01*
X112102Y21851D01*
X111595Y23964D01*
X110763Y25972D01*
X109628Y27824D01*
X108217Y29477D01*
X106564Y30888D01*
X104712Y32023D01*
X102704Y32855D01*
X100591Y33362D01*
X98425Y33533D01*
D02*
G37*
%LPD*%
G36*
X350557Y305371D02*
Y275729D01*
X329514Y254686D01*
X329028Y253958D01*
X328857Y253100D01*
Y228629D01*
X256339Y156111D01*
X255865Y156272D01*
X255829Y156548D01*
X255430Y157512D01*
X254794Y158340D01*
X253967Y158975D01*
X253471Y159180D01*
Y159721D01*
X253967Y159927D01*
X254794Y160562D01*
X255430Y161390D01*
X255829Y162354D01*
X255935Y163163D01*
X325897Y233125D01*
X326383Y233853D01*
X326554Y234711D01*
Y275178D01*
X326614Y275267D01*
X326753Y275970D01*
Y281747D01*
X326614Y282450D01*
X326215Y283046D01*
X325619Y283444D01*
X324916Y283584D01*
X323706D01*
X323031Y283450D01*
X322357Y283584D01*
X321147D01*
X320444Y283444D01*
X319848Y283046D01*
X319798Y282972D01*
X319798Y282972D01*
X318877D01*
Y284205D01*
X325539Y290867D01*
X327534D01*
Y289542D01*
X336246D01*
Y292555D01*
X337081D01*
Y291313D01*
X347171D01*
Y299041D01*
X345452D01*
X345282Y299541D01*
X345552Y299748D01*
X346305Y300730D01*
X346779Y301873D01*
X346941Y303100D01*
X346779Y304327D01*
X346305Y305470D01*
X345552Y306452D01*
X344570Y307206D01*
X343427Y307679D01*
X342200Y307841D01*
X340973Y307679D01*
X339830Y307206D01*
X338848Y306452D01*
X338094Y305470D01*
X337621Y304327D01*
X337459Y303100D01*
X337621Y301873D01*
X338094Y300730D01*
X338848Y299748D01*
X339118Y299541D01*
X338948Y299041D01*
X337081D01*
Y297800D01*
X333957D01*
X333957Y297800D01*
X333278Y297710D01*
X332646Y297448D01*
X332102Y297031D01*
X332102Y297031D01*
X331750Y296679D01*
X327534D01*
Y295353D01*
X325634D01*
X324718Y296269D01*
X324833Y296547D01*
X324956Y296739D01*
X325619Y296871D01*
X326215Y297269D01*
X326614Y297865D01*
X326753Y298568D01*
Y304345D01*
X326614Y305048D01*
X326554Y305137D01*
Y307482D01*
X329029Y309957D01*
X345971D01*
X350557Y305371D01*
D02*
G37*
G36*
X212982Y314186D02*
X198414Y299618D01*
X197928Y298890D01*
X197757Y298031D01*
Y272976D01*
X185685Y260905D01*
X165496D01*
X162381Y264020D01*
Y268485D01*
X162440Y268574D01*
X162580Y269277D01*
Y275054D01*
X162440Y275757D01*
X162042Y276353D01*
X161446Y276751D01*
X160743Y276891D01*
X159532D01*
X158858Y276757D01*
X158184Y276891D01*
X156973D01*
X156270Y276751D01*
X155674Y276353D01*
X155625Y276279D01*
X155625Y276279D01*
X154704D01*
Y277417D01*
X161461Y284174D01*
X163361D01*
Y282849D01*
X172073D01*
Y285862D01*
X172908D01*
Y284620D01*
X182998D01*
Y285862D01*
X183572D01*
X184132Y285132D01*
X185114Y284379D01*
X186257Y283905D01*
X187484Y283744D01*
X188711Y283905D01*
X189855Y284379D01*
X190836Y285132D01*
X191590Y286114D01*
X192063Y287257D01*
X192225Y288484D01*
X192063Y289711D01*
X191590Y290855D01*
X190836Y291836D01*
X189855Y292590D01*
X188711Y293063D01*
X187484Y293225D01*
X186257Y293063D01*
X185114Y292590D01*
X184132Y291836D01*
X183572Y291107D01*
X182998D01*
Y292348D01*
X172908D01*
Y291107D01*
X169784D01*
X169783Y291107D01*
X169105Y291017D01*
X168472Y290755D01*
X167929Y290339D01*
X167929Y290339D01*
X167576Y289986D01*
X163361D01*
Y288660D01*
X161461D01*
X160545Y289576D01*
X160660Y289854D01*
X160782Y290046D01*
X161446Y290178D01*
X162042Y290576D01*
X162440Y291172D01*
X162580Y291875D01*
Y297653D01*
X162440Y298356D01*
X162381Y298445D01*
Y301335D01*
X175732Y314686D01*
X212775D01*
X212982Y314186D01*
D02*
G37*
G36*
X224586Y306396D02*
X224486Y306154D01*
X224350Y305120D01*
X224486Y304086D01*
X224886Y303122D01*
X225521Y302294D01*
X226348Y301659D01*
X226844Y301454D01*
Y300912D01*
X226348Y300707D01*
X225521Y300072D01*
X224886Y299244D01*
X224486Y298280D01*
X224350Y297246D01*
X224486Y296212D01*
X224886Y295248D01*
X225521Y294420D01*
X226348Y293785D01*
X226844Y293580D01*
Y293039D01*
X226348Y292833D01*
X225521Y292198D01*
X224886Y291370D01*
X224486Y290406D01*
X224350Y289372D01*
X224486Y288338D01*
X224886Y287374D01*
X225521Y286546D01*
X226348Y285911D01*
X226844Y285706D01*
Y285164D01*
X226348Y284959D01*
X225521Y284324D01*
X224886Y283496D01*
X224486Y282532D01*
X224350Y281498D01*
X224486Y280464D01*
X224886Y279500D01*
X225521Y278672D01*
X226348Y278037D01*
X226844Y277832D01*
Y277290D01*
X226348Y277085D01*
X225521Y276450D01*
X224886Y275622D01*
X224486Y274658D01*
X224350Y273624D01*
X224486Y272590D01*
X224886Y271626D01*
X225521Y270798D01*
X226348Y270163D01*
X226844Y269958D01*
Y269416D01*
X226348Y269211D01*
X225521Y268576D01*
X224886Y267748D01*
X224486Y266784D01*
X224350Y265750D01*
X224486Y264716D01*
X224886Y263752D01*
X225521Y262924D01*
X226348Y262289D01*
X226844Y262084D01*
Y261542D01*
X226348Y261337D01*
X225521Y260702D01*
X224886Y259874D01*
X224486Y258910D01*
X224350Y257876D01*
X224486Y256842D01*
X224886Y255878D01*
X225521Y255050D01*
X226103Y254603D01*
Y253275D01*
X225521Y252828D01*
X224886Y252000D01*
X224486Y251036D01*
X224350Y250002D01*
X224486Y248968D01*
X224572Y248761D01*
X224294Y248345D01*
X199000D01*
X198103Y248167D01*
X197342Y247658D01*
X196629Y246945D01*
X190861D01*
Y249153D01*
X182150D01*
Y240047D01*
X190861D01*
Y242255D01*
X197600D01*
X198497Y242433D01*
X199258Y242942D01*
X199971Y243655D01*
X224182D01*
X224497Y243261D01*
X224485Y243155D01*
X224350Y242128D01*
X224486Y241094D01*
X224886Y240130D01*
X225521Y239302D01*
X226348Y238667D01*
X226844Y238461D01*
Y237920D01*
X226348Y237715D01*
X225521Y237080D01*
X224886Y236252D01*
X224486Y235288D01*
X224350Y234254D01*
X224486Y233220D01*
X224886Y232256D01*
X225521Y231428D01*
X226348Y230793D01*
X226844Y230588D01*
Y230046D01*
X226348Y229841D01*
X225521Y229206D01*
X224886Y228378D01*
X224486Y227414D01*
X224350Y226380D01*
X224486Y225346D01*
X224886Y224382D01*
X225521Y223554D01*
X226348Y222919D01*
X226844Y222713D01*
Y222172D01*
X226348Y221967D01*
X225521Y221332D01*
X224886Y220504D01*
X224486Y219540D01*
X224350Y218506D01*
X224486Y217472D01*
X224886Y216508D01*
X225521Y215680D01*
X226348Y215045D01*
X226844Y214840D01*
Y214298D01*
X226348Y214093D01*
X225521Y213458D01*
X224886Y212630D01*
X224486Y211666D01*
X224350Y210632D01*
X224486Y209598D01*
X224886Y208634D01*
X225521Y207806D01*
X226348Y207171D01*
X226844Y206965D01*
Y206424D01*
X226348Y206219D01*
X225521Y205584D01*
X224886Y204756D01*
X224486Y203792D01*
X224350Y202758D01*
X224486Y201724D01*
X224886Y200760D01*
X225521Y199932D01*
X226348Y199297D01*
X226844Y199091D01*
Y198550D01*
X226348Y198345D01*
X225521Y197710D01*
X224886Y196882D01*
X224486Y195918D01*
X224350Y194884D01*
X224486Y193850D01*
X224886Y192886D01*
X225521Y192058D01*
X226348Y191423D01*
X226844Y191218D01*
Y190676D01*
X226348Y190471D01*
X225521Y189836D01*
X224886Y189008D01*
X224486Y188044D01*
X224350Y187010D01*
X224486Y185976D01*
X224886Y185012D01*
X225521Y184184D01*
X226348Y183549D01*
X226844Y183343D01*
Y182802D01*
X226348Y182597D01*
X225521Y181962D01*
X225073Y181379D01*
X223393D01*
X199999Y204773D01*
X200029Y205000D01*
X199913Y205888D01*
X199570Y206715D01*
X199025Y207425D01*
X198315Y207970D01*
X197488Y208313D01*
X196600Y208429D01*
X196373Y208399D01*
X194197Y210576D01*
X194404Y211076D01*
X195073D01*
Y217032D01*
X188527D01*
Y211076D01*
X189557D01*
Y209992D01*
X189068Y209774D01*
X152145Y246697D01*
Y267440D01*
X153066D01*
X153769Y267579D01*
X154365Y267978D01*
X154414Y268051D01*
X154414Y268051D01*
X155336D01*
Y261319D01*
X155506Y260460D01*
X155993Y259733D01*
X159695Y256030D01*
X159412Y255606D01*
X158551Y255963D01*
X157980Y256038D01*
Y252468D01*
X161550D01*
X161475Y253039D01*
X161118Y253900D01*
X161542Y254184D01*
X161800Y253926D01*
X162527Y253439D01*
X163386Y253269D01*
X188189D01*
X189047Y253439D01*
X189775Y253926D01*
X205523Y269674D01*
X206009Y270401D01*
X206180Y271260D01*
Y295134D01*
X217858Y306812D01*
X224309D01*
X224586Y306396D01*
D02*
G37*
G36*
X266214Y284614D02*
X266942Y284128D01*
X267800Y283957D01*
X305103D01*
X305153Y283457D01*
X305089Y283444D01*
X304493Y283046D01*
X304095Y282450D01*
X303955Y281747D01*
Y275970D01*
X304095Y275267D01*
X304155Y275178D01*
Y234494D01*
X256408Y186748D01*
X255960Y186969D01*
X255965Y187010D01*
X255829Y188044D01*
X255430Y189008D01*
X254794Y189836D01*
X253967Y190471D01*
X253471Y190676D01*
Y191218D01*
X253967Y191423D01*
X254794Y192058D01*
X255430Y192886D01*
X255829Y193850D01*
X255965Y194884D01*
X255829Y195918D01*
X255430Y196882D01*
X254794Y197710D01*
X253967Y198345D01*
X253471Y198550D01*
Y199091D01*
X253967Y199297D01*
X254794Y199932D01*
X255430Y200760D01*
X255829Y201724D01*
X255965Y202758D01*
X255829Y203792D01*
X255430Y204756D01*
X254794Y205584D01*
X253967Y206219D01*
X253471Y206424D01*
Y206965D01*
X253967Y207171D01*
X254794Y207806D01*
X255430Y208634D01*
X255829Y209598D01*
X255965Y210632D01*
X255829Y211666D01*
X255430Y212630D01*
X254794Y213458D01*
X253967Y214093D01*
X253471Y214298D01*
Y214840D01*
X253967Y215045D01*
X254794Y215680D01*
X255430Y216508D01*
X255829Y217472D01*
X255965Y218506D01*
X255829Y219540D01*
X255430Y220504D01*
X254794Y221332D01*
X254212Y221779D01*
Y223107D01*
X254794Y223554D01*
X255430Y224382D01*
X255829Y225346D01*
X255965Y226380D01*
X255829Y227414D01*
X255430Y228378D01*
X254794Y229206D01*
X253967Y229841D01*
X253471Y230046D01*
Y230588D01*
X253967Y230793D01*
X254794Y231428D01*
X255430Y232256D01*
X255829Y233220D01*
X255965Y234254D01*
X255829Y235288D01*
X255430Y236252D01*
X254794Y237080D01*
X253967Y237715D01*
X253471Y237920D01*
Y238461D01*
X253967Y238667D01*
X254794Y239302D01*
X255430Y240130D01*
X255829Y241094D01*
X255965Y242128D01*
X255869Y242856D01*
X258686Y245673D01*
X259172Y246401D01*
X259343Y247259D01*
Y252745D01*
X259172Y253603D01*
X258686Y254331D01*
X255869Y257148D01*
X255965Y257876D01*
X255829Y258910D01*
X255430Y259874D01*
X254794Y260702D01*
X253967Y261337D01*
X253471Y261542D01*
Y262084D01*
X253967Y262289D01*
X254794Y262924D01*
X255430Y263752D01*
X255829Y264716D01*
X255965Y265750D01*
X255829Y266784D01*
X255430Y267748D01*
X254794Y268576D01*
X253967Y269211D01*
X253471Y269416D01*
Y269958D01*
X253967Y270163D01*
X254794Y270798D01*
X255430Y271626D01*
X255829Y272590D01*
X255965Y273624D01*
X255829Y274658D01*
X255430Y275622D01*
X254794Y276450D01*
X253967Y277085D01*
X253471Y277290D01*
Y277832D01*
X253967Y278037D01*
X254794Y278672D01*
X255430Y279500D01*
X255829Y280464D01*
X255965Y281498D01*
X255829Y282532D01*
X255430Y283496D01*
X254794Y284324D01*
X253967Y284959D01*
X253003Y285358D01*
X252036Y285486D01*
Y285990D01*
X252846Y286096D01*
X253664Y286435D01*
X254366Y286974D01*
X254905Y287676D01*
X255244Y288494D01*
X255294Y288872D01*
X251969D01*
Y289872D01*
X255294D01*
X255244Y290250D01*
X255206Y290341D01*
X255484Y290757D01*
X260071D01*
X266214Y284614D01*
D02*
G37*
G36*
X324964Y126164D02*
X324704Y125717D01*
X323912Y125612D01*
X323085Y125270D01*
X322375Y124725D01*
X321830Y124015D01*
X321487Y123188D01*
X321371Y122300D01*
X321487Y121412D01*
X321830Y120585D01*
X322375Y119875D01*
X323085Y119330D01*
X323912Y118988D01*
X324800Y118871D01*
X325027Y118901D01*
X326954Y116974D01*
Y115171D01*
X326797D01*
Y114571D01*
X324697D01*
Y109821D01*
Y105071D01*
X326678D01*
X326759Y104571D01*
X326418Y104180D01*
X326100Y104243D01*
X303829D01*
X278887Y129186D01*
X279078Y129648D01*
X321480D01*
X324964Y126164D01*
D02*
G37*
G36*
X300014Y97114D02*
X300742Y96628D01*
X301600Y96457D01*
X321271D01*
X323957Y93771D01*
X323750Y93271D01*
X322397D01*
Y89021D01*
X324197D01*
Y88021D01*
X322397D01*
Y83771D01*
X324297D01*
Y83171D01*
X324297D01*
X324123Y82743D01*
X305029D01*
X273986Y113786D01*
X273258Y114272D01*
X272400Y114443D01*
X256003D01*
X255725Y114859D01*
X255829Y115108D01*
X255965Y116143D01*
X255829Y117177D01*
X255761Y117341D01*
X256038Y117757D01*
X279371D01*
X300014Y97114D01*
D02*
G37*
%LPC*%
G36*
X335646Y288795D02*
X332390D01*
Y286327D01*
X335646D01*
Y288795D01*
D02*
G37*
G36*
X331390D02*
X328134D01*
Y286327D01*
X331390D01*
Y288795D01*
D02*
G37*
G36*
X346571Y287024D02*
X342626D01*
Y284260D01*
X346571D01*
Y287024D01*
D02*
G37*
G36*
X341626D02*
X337681D01*
Y284260D01*
X341626D01*
Y287024D01*
D02*
G37*
G36*
X335646Y285327D02*
X332390D01*
Y282858D01*
X335646D01*
Y285327D01*
D02*
G37*
G36*
X331390D02*
X328134D01*
Y282858D01*
X331390D01*
Y285327D01*
D02*
G37*
G36*
X346571Y283260D02*
X342626D01*
Y280496D01*
X346571D01*
Y283260D01*
D02*
G37*
G36*
X341626D02*
X337681D01*
Y280496D01*
X341626D01*
Y283260D01*
D02*
G37*
G36*
X332390Y282280D02*
Y278710D01*
X335959D01*
X335884Y279280D01*
X335471Y280278D01*
X334814Y281134D01*
X333958Y281792D01*
X332960Y282205D01*
X332390Y282280D01*
D02*
G37*
G36*
X331390D02*
X330820Y282205D01*
X329822Y281792D01*
X328966Y281134D01*
X328308Y280278D01*
X327895Y279280D01*
X327820Y278710D01*
X331390D01*
Y282280D01*
D02*
G37*
G36*
X335959Y277710D02*
X332390D01*
Y274141D01*
X332960Y274216D01*
X333958Y274629D01*
X334814Y275286D01*
X335471Y276143D01*
X335884Y277140D01*
X335959Y277710D01*
D02*
G37*
G36*
X331390D02*
X327820D01*
X327895Y277140D01*
X328308Y276143D01*
X328966Y275286D01*
X329822Y274629D01*
X330820Y274216D01*
X331390Y274141D01*
Y277710D01*
D02*
G37*
G36*
X171473Y282102D02*
X168217D01*
Y279634D01*
X171473D01*
Y282102D01*
D02*
G37*
G36*
X167217D02*
X163961D01*
Y279634D01*
X167217D01*
Y282102D01*
D02*
G37*
G36*
X182398Y280331D02*
X178453D01*
Y277567D01*
X182398D01*
Y280331D01*
D02*
G37*
G36*
X177453D02*
X173508D01*
Y277567D01*
X177453D01*
Y280331D01*
D02*
G37*
G36*
X171473Y278634D02*
X168217D01*
Y276165D01*
X171473D01*
Y278634D01*
D02*
G37*
G36*
X167217D02*
X163961D01*
Y276165D01*
X167217D01*
Y278634D01*
D02*
G37*
G36*
X182398Y276567D02*
X178453D01*
Y273803D01*
X182398D01*
Y276567D01*
D02*
G37*
G36*
X177453D02*
X173508D01*
Y273803D01*
X177453D01*
Y276567D01*
D02*
G37*
G36*
X178453Y272922D02*
Y269353D01*
X182022D01*
X181947Y269923D01*
X181534Y270920D01*
X180877Y271777D01*
X180020Y272434D01*
X179023Y272847D01*
X178453Y272922D01*
D02*
G37*
G36*
X177453D02*
X176883Y272847D01*
X175885Y272434D01*
X175029Y271777D01*
X174371Y270920D01*
X173958Y269923D01*
X173883Y269353D01*
X177453D01*
Y272922D01*
D02*
G37*
G36*
X182022Y268353D02*
X178453D01*
Y264783D01*
X179023Y264858D01*
X180020Y265271D01*
X180877Y265929D01*
X181534Y266785D01*
X181947Y267782D01*
X182022Y268353D01*
D02*
G37*
G36*
X177453D02*
X173883D01*
X173958Y267782D01*
X174371Y266785D01*
X175029Y265929D01*
X175885Y265271D01*
X176883Y264858D01*
X177453Y264783D01*
Y268353D01*
D02*
G37*
G36*
X156980Y256038D02*
X156410Y255963D01*
X155413Y255550D01*
X154556Y254893D01*
X153899Y254036D01*
X153486Y253039D01*
X153411Y252468D01*
X156980D01*
Y256038D01*
D02*
G37*
G36*
X161550Y251468D02*
X157980D01*
Y247899D01*
X158551Y247974D01*
X159548Y248387D01*
X160405Y249044D01*
X161062Y249901D01*
X161475Y250898D01*
X161550Y251468D01*
D02*
G37*
G36*
X156980D02*
X153411D01*
X153486Y250898D01*
X153899Y249901D01*
X154556Y249044D01*
X155413Y248387D01*
X156410Y247974D01*
X156980Y247899D01*
Y251468D01*
D02*
G37*
G36*
X163432Y247273D02*
X161554D01*
Y245100D01*
X163432D01*
Y247273D01*
D02*
G37*
G36*
X160554D02*
X158676D01*
Y245100D01*
X160554D01*
Y247273D01*
D02*
G37*
G36*
X163432Y244100D02*
X161554D01*
Y241927D01*
X163432D01*
Y244100D01*
D02*
G37*
G36*
X160554D02*
X158676D01*
Y241927D01*
X160554D01*
Y244100D01*
D02*
G37*
G36*
X179050Y249153D02*
X170339D01*
Y247873D01*
X164769D01*
Y241327D01*
X170339D01*
Y240047D01*
X179050D01*
Y249153D01*
D02*
G37*
G36*
X191800Y229729D02*
X190912Y229612D01*
X190085Y229270D01*
X189375Y228725D01*
X188830Y228015D01*
X188488Y227188D01*
X188371Y226300D01*
X188488Y225412D01*
X188830Y224585D01*
X189107Y224224D01*
X188860Y223724D01*
X188527D01*
Y217769D01*
X195073D01*
Y223724D01*
X194739D01*
X194493Y224224D01*
X194770Y224585D01*
X195113Y225412D01*
X195229Y226300D01*
X195113Y227188D01*
X194770Y228015D01*
X194225Y228725D01*
X193515Y229270D01*
X192688Y229612D01*
X191800Y229729D01*
D02*
G37*
G36*
X323697Y114571D02*
X322397D01*
Y111517D01*
X321897Y111418D01*
X321702Y111889D01*
X321045Y112745D01*
X320188Y113402D01*
X319191Y113815D01*
X318621Y113890D01*
Y109821D01*
Y105751D01*
X319191Y105826D01*
X320188Y106239D01*
X321045Y106897D01*
X321702Y107753D01*
X321897Y108224D01*
X322397Y108125D01*
Y105071D01*
X323697D01*
Y109821D01*
Y114571D01*
D02*
G37*
G36*
X317621Y113890D02*
X317051Y113815D01*
X316053Y113402D01*
X315197Y112745D01*
X314540Y111889D01*
X314126Y110891D01*
X314051Y110321D01*
X317621D01*
Y113890D01*
D02*
G37*
G36*
Y109321D02*
X314051D01*
X314126Y108750D01*
X314540Y107753D01*
X315197Y106897D01*
X316053Y106239D01*
X317051Y105826D01*
X317621Y105751D01*
Y109321D01*
D02*
G37*
G36*
X317221Y92590D02*
Y89021D01*
X320790D01*
X320715Y89591D01*
X320302Y90588D01*
X319645Y91445D01*
X318789Y92102D01*
X317791Y92515D01*
X317221Y92590D01*
D02*
G37*
G36*
X316221D02*
X315651Y92515D01*
X314653Y92102D01*
X313797Y91445D01*
X313140Y90588D01*
X312726Y89591D01*
X312651Y89021D01*
X316221D01*
Y92590D01*
D02*
G37*
G36*
X320790Y88021D02*
X317221D01*
Y84451D01*
X317791Y84526D01*
X318789Y84939D01*
X319645Y85597D01*
X320302Y86453D01*
X320715Y87450D01*
X320790Y88021D01*
D02*
G37*
G36*
X316221D02*
X312651D01*
X312726Y87450D01*
X313140Y86453D01*
X313797Y85597D01*
X314653Y84939D01*
X315651Y84526D01*
X316221Y84451D01*
Y88021D01*
D02*
G37*
%LPD*%
D10*
X161054Y244600D02*
D03*
X167746D02*
D03*
D11*
X174695D02*
D03*
X186505D02*
D03*
D12*
X342126Y283760D02*
D03*
Y295177D02*
D03*
X330800Y372617D02*
D03*
Y361200D02*
D03*
X341053Y372617D02*
D03*
Y361200D02*
D03*
X177953Y277067D02*
D03*
Y288484D02*
D03*
X327272Y171043D02*
D03*
Y182461D02*
D03*
X317019Y171043D02*
D03*
Y182461D02*
D03*
D13*
X295169Y372913D02*
D03*
X362131Y170748D02*
D03*
D14*
X319972Y381968D02*
D03*
Y372913D02*
D03*
Y363858D02*
D03*
X337328Y161693D02*
D03*
Y170748D02*
D03*
Y179803D02*
D03*
D15*
X160138Y294764D02*
D03*
X157579D02*
D03*
X155020D02*
D03*
X152461D02*
D03*
X149902D02*
D03*
X147343D02*
D03*
X144783D02*
D03*
X142224D02*
D03*
Y272165D02*
D03*
X144783D02*
D03*
X147343D02*
D03*
X149902D02*
D03*
X152461D02*
D03*
X155020D02*
D03*
X157579D02*
D03*
X160138D02*
D03*
X324311Y301457D02*
D03*
X321752D02*
D03*
X319193D02*
D03*
X316634D02*
D03*
X314075D02*
D03*
X311516D02*
D03*
X308957D02*
D03*
X306398D02*
D03*
Y278858D02*
D03*
X308957D02*
D03*
X311516D02*
D03*
X314075D02*
D03*
X316634D02*
D03*
X319193D02*
D03*
X321752D02*
D03*
X324311D02*
D03*
D16*
X167717Y286417D02*
D03*
Y279134D02*
D03*
X331890Y293110D02*
D03*
Y285827D02*
D03*
X362700Y95658D02*
D03*
Y102942D02*
D03*
D17*
X191800Y214054D02*
D03*
Y220746D02*
D03*
D18*
X351697Y88521D02*
D03*
X349197D02*
D03*
X346697D02*
D03*
X344197D02*
D03*
X341697D02*
D03*
X339197D02*
D03*
X336697D02*
D03*
X334197D02*
D03*
X331697D02*
D03*
X329197D02*
D03*
X326697D02*
D03*
X324197D02*
D03*
Y109821D02*
D03*
X326697D02*
D03*
X329197D02*
D03*
X331697D02*
D03*
X334197D02*
D03*
X336697D02*
D03*
X339197D02*
D03*
X341697D02*
D03*
X344197D02*
D03*
X346697D02*
D03*
X349197D02*
D03*
X351697D02*
D03*
D19*
X349554Y131266D02*
D03*
X360971D02*
D03*
X137188Y180709D02*
D03*
X148606D02*
D03*
X137188Y205118D02*
D03*
X148606D02*
D03*
X137188Y168504D02*
D03*
X148606D02*
D03*
X137188Y192913D02*
D03*
X148606D02*
D03*
X137188Y217323D02*
D03*
X148606D02*
D03*
D20*
X356542Y121800D02*
D03*
X349258D02*
D03*
D21*
X158700Y244600D02*
X161054D01*
X157480Y245820D02*
X158700Y244600D01*
X157480Y245820D02*
Y251969D01*
X155020Y254429D02*
X157480Y251969D01*
X155020Y254429D02*
Y272165D01*
X324610Y293110D02*
X324705D01*
X316634Y285134D02*
X324610Y293110D01*
X316634Y278858D02*
Y285134D01*
X244094Y147639D02*
X251969D01*
X191800Y220746D02*
Y226300D01*
X222464Y179136D02*
X228346D01*
X196600Y205000D02*
X222464Y179136D01*
X191800Y209800D02*
X196600Y205000D01*
X191800Y209800D02*
Y214054D01*
X240163Y206700D02*
X244094Y210632D01*
X232278Y206700D02*
X240163D01*
X228346Y210632D02*
X232278Y206700D01*
X240089Y214500D02*
X244094Y218506D01*
X232352Y214500D02*
X240089D01*
X228346Y218506D02*
X232352Y214500D01*
X228346Y226380D02*
X232326Y222400D01*
X240115D01*
X244094Y226380D01*
X251969Y218506D02*
Y226380D01*
X248115Y230400D02*
X251969Y234254D01*
X240074Y230400D02*
X248115D01*
X236221Y234254D02*
X240074Y230400D01*
X248066Y246100D02*
X251969Y250002D01*
X240193Y246100D02*
X248066D01*
X236221Y242128D02*
X240193Y246100D01*
X251969Y242128D02*
X257100Y247259D01*
Y252745D01*
X251969Y257876D02*
X257100Y252745D01*
X248118Y261900D02*
X251969Y265750D01*
X240245Y261900D02*
X248118D01*
X236221Y257876D02*
X240245Y261900D01*
X228346Y250002D02*
Y257876D01*
X248044Y269700D02*
X251969Y273624D01*
X240171Y269700D02*
X248044D01*
X236221Y265750D02*
X240171Y269700D01*
X247971Y277500D02*
X251969Y281498D01*
X240096Y277500D02*
X247971D01*
X236221Y273624D02*
X240096Y277500D01*
X236221Y281498D02*
Y289372D01*
X324311Y234711D02*
Y278858D01*
X252988Y163388D02*
X324311Y234711D01*
X251969Y163388D02*
X252988D01*
X335000Y137800D02*
X339197Y133603D01*
Y109821D02*
Y133603D01*
X341697Y109821D02*
X341700Y109824D01*
Y138100D01*
X331100Y129400D02*
X334197Y126303D01*
Y109821D02*
Y126303D01*
X336697Y109821D02*
Y130003D01*
X326935Y139765D02*
X336697Y130003D01*
X251969Y139765D02*
X326935D01*
X329197Y109821D02*
Y117903D01*
X324800Y122300D02*
X329197Y117903D01*
X331697Y109821D02*
Y122603D01*
X322409Y131891D02*
X331697Y122603D01*
X251969Y131891D02*
X322409D01*
X240156Y309055D02*
X244094Y312994D01*
X216929Y309055D02*
X240156D01*
X203937Y296063D02*
X216929Y309055D01*
X203937Y271260D02*
Y296063D01*
X188189Y255512D02*
X203937Y271260D01*
X163386Y255512D02*
X188189D01*
X157579Y261319D02*
X163386Y255512D01*
X157579Y261319D02*
Y272165D01*
X214963Y312994D02*
X228346D01*
X200000Y298031D02*
X214963Y312994D01*
X200000Y272047D02*
Y298031D01*
X186614Y258661D02*
X200000Y272047D01*
X164567Y258661D02*
X186614D01*
X160138Y263090D02*
X164567Y258661D01*
X160138Y263090D02*
Y272165D01*
X142224Y302067D02*
X183465Y343307D01*
X174803Y316929D02*
X230315D01*
X160138Y302264D02*
X174803Y316929D01*
X160138Y294764D02*
Y302264D01*
X248031Y332679D02*
Y341732D01*
X239370Y350394D02*
X248031Y341732D01*
X178347Y350394D02*
X239370D01*
X131496Y303543D02*
X178347Y350394D01*
X131496Y288583D02*
Y303543D01*
X180709Y346850D02*
X238189D01*
X134646Y300787D02*
X180709Y346850D01*
X134646Y291339D02*
Y300787D01*
X142224Y294764D02*
Y302067D01*
X182285Y336616D02*
X228346D01*
X147343Y301673D02*
X182285Y336616D01*
X147343Y294764D02*
Y301673D01*
X228346Y328742D02*
X232283Y324805D01*
Y318898D02*
Y324805D01*
X230315Y316929D02*
X232283Y318898D01*
X172443Y320868D02*
X228346D01*
X152461Y300886D02*
X172443Y320868D01*
X152461Y294764D02*
Y300886D01*
X244094Y328742D02*
X248031Y332679D01*
X131496Y288583D02*
X135039Y285039D01*
X144488D01*
X149902Y290453D01*
Y294764D01*
X134646Y291339D02*
X137795Y288189D01*
X142520D02*
X144783Y290453D01*
X137795Y288189D02*
X142520D01*
X144783Y290453D02*
Y294764D01*
X244094Y336616D02*
Y340945D01*
X238189Y346850D02*
X244094Y340945D01*
X152461Y278346D02*
X160531Y286417D01*
X152461Y272165D02*
Y278346D01*
X224408Y171262D02*
X228346D01*
X149902Y245768D02*
X224408Y171262D01*
X149902Y245768D02*
Y272165D01*
X147343Y243996D02*
Y272165D01*
Y243996D02*
X224016Y167323D01*
X240156D01*
X244094Y171262D01*
X223226Y163388D02*
X228346D01*
X144783Y241831D02*
X223226Y163388D01*
X144783Y241831D02*
Y272165D01*
X232281Y159449D02*
X236221Y163388D01*
X223228Y159449D02*
X232281D01*
X142224Y240453D02*
X223228Y159449D01*
X142224Y240453D02*
Y272165D01*
X324705Y293110D02*
X331890D01*
X321752Y296063D02*
X324705Y293110D01*
X321752Y296063D02*
Y301457D01*
X319193Y283071D02*
X321949Y285827D01*
X331890D01*
X319193Y278858D02*
Y283071D01*
X157776Y279134D02*
X167717D01*
X155020Y276378D02*
X157776Y279134D01*
X155020Y272165D02*
Y276378D01*
X160531Y286417D02*
X167717D01*
X157579Y289370D02*
X160531Y286417D01*
X157579Y289370D02*
Y294764D01*
X251969Y336616D02*
Y340945D01*
X255512Y344488D01*
X288189D01*
X316634Y316043D01*
Y301457D02*
Y316043D01*
X251969Y328742D02*
X298029D01*
X314075Y312697D01*
Y301457D02*
Y312697D01*
X183465Y343307D02*
X229134D01*
X232283Y332679D02*
X236221Y328742D01*
X232283Y332679D02*
Y340158D01*
X229134Y343307D02*
X232283Y340158D01*
X236221Y336616D02*
X240158Y332679D01*
Y325984D02*
Y332679D01*
Y325984D02*
X241342Y324800D01*
X296900D01*
X311516Y310184D01*
Y301457D02*
Y310184D01*
X236221Y320868D02*
X240389Y316700D01*
X298300D01*
X306398Y308602D01*
Y301457D02*
Y308602D01*
X308957Y297357D02*
Y301457D01*
X251969Y312994D02*
X282006D01*
X251969Y179136D02*
X306398Y233565D01*
Y278858D01*
X244094Y163388D02*
X248406Y167700D01*
X253444D01*
X321752Y236008D01*
Y278858D01*
X308957D02*
Y284643D01*
X240466Y293000D02*
X261000D01*
X236221Y297246D02*
X240466Y293000D01*
X236221Y305120D02*
X240341Y301000D01*
X261400D01*
X311516Y278858D02*
Y286684D01*
X314075Y278858D02*
Y288425D01*
X251969Y305120D02*
X269180D01*
X261000Y293000D02*
X267800Y286200D01*
X307400D01*
X308957Y284643D01*
X261400Y301000D02*
X272900Y289500D01*
X308700D01*
X311516Y286684D01*
X269180Y305120D02*
X282000Y292300D01*
X310200D01*
X314075Y288425D01*
X282006Y312994D02*
X299700Y295300D01*
X306900D01*
X308957Y297357D01*
X228346Y155514D02*
X228386D01*
X232400Y151500D01*
X238197D01*
X240200Y153503D01*
Y157600D01*
X242100Y159500D01*
X248081D01*
X251969Y163388D01*
X244094Y155514D02*
X248308Y151300D01*
X254700D01*
X331100Y227700D01*
Y253100D01*
X352800Y274800D01*
Y306300D01*
X346900Y312200D02*
X352800Y306300D01*
X328100Y312200D02*
X346900D01*
X324311Y308411D02*
X328100Y312200D01*
X324311Y301457D02*
Y308411D01*
X228346Y108269D02*
X235715Y100900D01*
X268500D01*
X297300Y72100D01*
X236221Y108269D02*
X240889Y103600D01*
X269900D01*
X298400Y75100D01*
X331800D01*
X336697Y79997D01*
Y88521D01*
X251969Y108269D02*
X270331D01*
X300600Y78000D01*
X328300D01*
X331697Y81397D01*
Y88521D01*
X329197Y83197D02*
Y88521D01*
X326500Y80500D02*
X329197Y83197D01*
X304100Y80500D02*
X326500D01*
X272400Y112200D02*
X304100Y80500D01*
X248026Y112200D02*
X272400D01*
X244094Y108269D02*
X248026Y112200D01*
X236221Y116143D02*
X240078Y120000D01*
X236221Y124017D02*
X240404Y128200D01*
X240078Y120000D02*
X280300D01*
X301600Y98700D01*
X322200D01*
X326697Y94203D01*
Y88521D02*
Y94203D01*
X334197Y88521D02*
Y93903D01*
X326100Y102000D02*
X334197Y93903D01*
X240404Y128200D02*
X276700D01*
X302900Y102000D01*
X326100D01*
X297300Y72100D02*
X332900D01*
X339197Y78397D01*
Y88521D01*
D22*
X167746Y244600D02*
X174695D01*
X186505D02*
X197600D01*
X199000Y246000D01*
X232219D01*
X236221Y250002D01*
X316721Y88521D02*
X324197D01*
Y109821D02*
X326697D01*
X360121Y88521D02*
X362700Y91100D01*
X346700Y101805D02*
X349197Y104303D01*
X346700Y97000D02*
Y101805D01*
X346697Y96997D02*
X346700Y97000D01*
X346697Y88521D02*
Y96997D01*
X362700Y91100D02*
Y95658D01*
X351697Y88521D02*
X360121D01*
X349197D02*
X351697D01*
X350558Y102942D02*
X362700D01*
X349197Y104303D02*
X350558Y102942D01*
X349197Y104303D02*
Y109821D01*
X356542Y114665D02*
Y121800D01*
X351697Y109821D02*
X356542Y114665D01*
X349197Y109821D02*
Y121739D01*
D23*
X377200Y62239D02*
Y141400D01*
X320161Y5200D02*
X377200Y62239D01*
X232300Y5200D02*
X320161D01*
X318121Y109821D02*
X324197D01*
X177500Y268400D02*
X177953Y268853D01*
Y277067D01*
X187484Y288484D02*
X187500Y288500D01*
X177953Y288484D02*
X187484D01*
X341053Y353447D02*
X341100Y353400D01*
X341053Y353447D02*
Y361200D01*
X307400Y354200D02*
Y367700D01*
X312613Y372913D01*
X319972D01*
X360971Y131266D02*
X368766D01*
X377200Y141400D02*
Y361400D01*
X347900Y141400D02*
X377200D01*
X337328Y151972D02*
X347900Y141400D01*
X337328Y151972D02*
Y161693D01*
X220400Y72762D02*
X228346Y80709D01*
X220400Y17100D02*
Y72762D01*
Y17100D02*
X232300Y5200D01*
X365983Y372617D02*
X377200Y361400D01*
X341053Y372617D02*
X365983D01*
X362700Y102942D02*
Y110800D01*
X349900Y150400D02*
Y165200D01*
X344352Y170748D02*
X349900Y165200D01*
X337328Y170748D02*
X344352D01*
X360971Y124571D02*
Y131266D01*
X358200Y121800D02*
X360971Y124571D01*
X356542Y121800D02*
X358200D01*
X349554Y122095D02*
Y131266D01*
X331890Y278210D02*
X331900Y278200D01*
X331890Y278210D02*
Y285827D01*
X342126Y295177D02*
Y303174D01*
X342200Y303100D01*
X251969Y72835D02*
Y80709D01*
Y88583D01*
Y96457D01*
X244094D02*
X251969D01*
X244094Y80709D02*
X251969D01*
X236221D02*
X244094D01*
Y88583D02*
X251969D01*
X236221D02*
X244094D01*
Y57087D02*
Y64961D01*
Y72835D01*
X236221Y64961D02*
X244094D01*
Y72835D02*
Y80709D01*
Y88583D01*
Y96457D01*
X236221D02*
X244094D01*
X236221Y88583D02*
Y96457D01*
Y80709D02*
Y88583D01*
Y72835D02*
Y80709D01*
Y64961D02*
Y72835D01*
Y57087D02*
Y64961D01*
X251969D02*
Y72835D01*
Y57087D02*
Y64961D01*
X244094Y57087D02*
X251969D01*
X236221D02*
X244094D01*
X228346D02*
X236221D01*
X244094Y72835D02*
X251969D01*
X236221D02*
X244094D01*
X228346D02*
X236221D01*
X228346Y64961D02*
Y72835D01*
Y57087D02*
Y64961D01*
X137188Y205118D02*
Y217323D01*
Y192913D02*
Y205118D01*
Y180709D02*
Y192913D01*
Y168504D02*
Y180709D01*
X105404Y168504D02*
X137188D01*
X96400Y159500D02*
X105404Y168504D01*
X96400Y112463D02*
Y159500D01*
Y112463D02*
X118563Y90300D01*
X128563D01*
X138563D02*
Y121280D01*
X136221Y123622D02*
X138563Y121280D01*
X136221Y123622D02*
Y145276D01*
X203543Y96457D02*
X228346D01*
X154724Y145276D02*
X203543Y96457D01*
X154724Y145276D02*
Y162385D01*
X148606Y168504D02*
X154724Y162385D01*
X148606Y168504D02*
Y180709D01*
Y192913D01*
Y205118D01*
Y217323D01*
X228346Y80709D02*
Y88583D01*
Y96457D01*
X319972Y381968D02*
X335693D01*
X341053Y376608D01*
Y372617D02*
Y376608D01*
X320268Y372617D02*
X330800D01*
X330800Y361200D02*
X341053D01*
X319972Y363858D02*
X322630Y361200D01*
X330800D01*
X317019Y165582D02*
Y171043D01*
Y165582D02*
X320907Y161693D01*
X337328D01*
X327272Y171043D02*
X337032D01*
X334670Y182461D02*
X337328Y179803D01*
X327272Y182461D02*
X334670D01*
X317019D02*
X327272D01*
X331890Y293110D02*
X333957Y295177D01*
X342126D01*
X333957Y283760D02*
X342126D01*
X331890Y285827D02*
X333957Y283760D01*
X167717Y279134D02*
X169783Y277067D01*
X177953D01*
X167717Y286417D02*
X169783Y288484D01*
X177953D01*
D24*
X117717Y145276D02*
D03*
X136221D02*
D03*
X154724D02*
D03*
D25*
X118639Y90300D02*
D03*
X128639D02*
D03*
D26*
X138639D02*
D03*
D27*
X251969Y96457D02*
D03*
X244094Y72835D02*
D03*
X228346Y64961D02*
D03*
X244094Y96457D02*
D03*
X228346Y88583D02*
D03*
X251969Y72835D02*
D03*
X236221D02*
D03*
X251969Y57087D02*
D03*
X236221Y96457D02*
D03*
X251969Y80709D02*
D03*
X236221Y64961D02*
D03*
X228346Y72835D02*
D03*
X244094Y57087D02*
D03*
X228346Y80709D02*
D03*
X244094Y80709D02*
D03*
X236221Y88583D02*
D03*
X251969Y64961D02*
D03*
X236221Y57087D02*
D03*
X251969Y88583D02*
D03*
X236221Y80709D02*
D03*
X244094Y64961D02*
D03*
X228346Y57087D02*
D03*
X244094Y88583D02*
D03*
Y139765D02*
D03*
X228346Y124017D02*
D03*
X244094Y116143D02*
D03*
X236221Y147639D02*
D03*
X251969Y139765D02*
D03*
X236221Y124017D02*
D03*
X251969Y116143D02*
D03*
X236221Y139765D02*
D03*
X244094Y147639D02*
D03*
X228346Y131891D02*
D03*
X244094Y124017D02*
D03*
X228346Y108269D02*
D03*
X236221Y116143D02*
D03*
X251969Y147639D02*
D03*
X236221Y131891D02*
D03*
X251969Y124017D02*
D03*
X236221Y108269D02*
D03*
X251969D02*
D03*
X228346Y139765D02*
D03*
X244094Y131891D02*
D03*
X228346Y116143D02*
D03*
X244094Y108269D02*
D03*
X251969Y131891D02*
D03*
Y273624D02*
D03*
X244094Y250002D02*
D03*
X228346Y257876D02*
D03*
X244094Y273624D02*
D03*
X228346Y281498D02*
D03*
X251969Y250002D02*
D03*
X236221D02*
D03*
X251969Y265750D02*
D03*
X236221Y273624D02*
D03*
X251969Y289372D02*
D03*
X236221Y257876D02*
D03*
X228346Y250002D02*
D03*
X244094Y265750D02*
D03*
X228346Y273624D02*
D03*
X244094Y289372D02*
D03*
X236221Y281498D02*
D03*
X251969Y257876D02*
D03*
X236221Y265750D02*
D03*
X251969Y281498D02*
D03*
X236221Y289372D02*
D03*
X244094Y257876D02*
D03*
X228346Y265750D02*
D03*
X244094Y281498D02*
D03*
X228346Y289372D02*
D03*
X244094Y328742D02*
D03*
X228346Y312994D02*
D03*
X244094Y305120D02*
D03*
X236221Y336616D02*
D03*
X251969Y328742D02*
D03*
X236221Y312994D02*
D03*
X251969Y305120D02*
D03*
X236221Y328742D02*
D03*
X244094Y336616D02*
D03*
X228346Y320868D02*
D03*
X244094Y312994D02*
D03*
X228346Y297246D02*
D03*
X236221Y305120D02*
D03*
X251969Y336616D02*
D03*
X236221Y320868D02*
D03*
X251969Y312994D02*
D03*
X236221Y297246D02*
D03*
X251969D02*
D03*
X228346Y328742D02*
D03*
X244094Y320868D02*
D03*
X228346Y305120D02*
D03*
X244094Y297246D02*
D03*
X251969Y320868D02*
D03*
Y226380D02*
D03*
X244094Y202758D02*
D03*
X228346Y210632D02*
D03*
X244094Y226380D02*
D03*
X228346Y234254D02*
D03*
X251969Y202758D02*
D03*
X236221D02*
D03*
X251969Y218506D02*
D03*
X236221Y226380D02*
D03*
X251969Y242128D02*
D03*
X236221Y210632D02*
D03*
X228346Y202758D02*
D03*
X244094Y218506D02*
D03*
X228346Y226380D02*
D03*
X244094Y242128D02*
D03*
X236221Y234254D02*
D03*
X251969Y210632D02*
D03*
X236221Y218506D02*
D03*
X251969Y234254D02*
D03*
X236221Y242128D02*
D03*
X244094Y210632D02*
D03*
X228346Y218506D02*
D03*
X244094Y234254D02*
D03*
X228346Y242128D02*
D03*
Y194884D02*
D03*
X244094Y187010D02*
D03*
X228346Y171262D02*
D03*
X244094Y163388D02*
D03*
X236221Y194884D02*
D03*
X251969Y187010D02*
D03*
X236221Y171262D02*
D03*
X251969Y163388D02*
D03*
X236221Y187010D02*
D03*
X244094Y194884D02*
D03*
X228346Y179136D02*
D03*
X244094Y171262D02*
D03*
X228346Y155514D02*
D03*
X236221Y163388D02*
D03*
X251969Y194884D02*
D03*
X236221Y179136D02*
D03*
X251969Y171262D02*
D03*
X236221Y155514D02*
D03*
X251969D02*
D03*
X228346Y187010D02*
D03*
X244094Y179136D02*
D03*
X228346Y163388D02*
D03*
X244094Y155514D02*
D03*
X251969Y179136D02*
D03*
D28*
X228346Y96457D02*
D03*
Y147639D02*
D03*
Y336616D02*
D03*
D29*
X370079Y43307D02*
D03*
X316721Y88521D02*
D03*
X318121Y109821D02*
D03*
X157480Y251969D02*
D03*
X177953Y268853D02*
D03*
X187484Y288484D02*
D03*
X341053Y353447D02*
D03*
X307400Y354200D02*
D03*
X368766Y131266D02*
D03*
X360121Y88521D02*
D03*
X346700Y97000D02*
D03*
X362700Y110800D02*
D03*
X349900Y150400D02*
D03*
X331890Y278210D02*
D03*
X342200Y303100D02*
D03*
D30*
X362205Y19685D02*
D03*
X98425D02*
D03*
X362205Y409449D02*
D03*
X98425D02*
D03*
D31*
X191800Y226300D02*
D03*
X196600Y205000D02*
D03*
X335000Y137800D02*
D03*
X341700Y138100D02*
D03*
X331100Y129400D02*
D03*
X324800Y122300D02*
D03*
D32*
X244193Y396014D02*
D03*
X196949D02*
D03*
X244193Y33027D02*
D03*
X196949D02*
D03*
M02*
