G04 Layer_Physical_Order=8*
G04 Layer_Color=16711680*
%FSLAX25Y25*%
%MOIN*%
G70*
G01*
G75*
%ADD21C,0.01200*%
%ADD23C,0.02000*%
%ADD24C,0.11024*%
%ADD25C,0.06693*%
%ADD26R,0.06693X0.06693*%
%ADD27C,0.04724*%
%ADD28R,0.04724X0.04724*%
%ADD29C,0.06200*%
%ADD30C,0.24410*%
%ADD31C,0.03600*%
%ADD32C,0.22835*%
G36*
X365655Y426793D02*
X367889Y426194D01*
X370026Y425309D01*
X372029Y424152D01*
X373864Y422744D01*
X375500Y421108D01*
X376908Y419273D01*
X378065Y417270D01*
X378950Y415133D01*
X379549Y412899D01*
X379851Y410605D01*
Y409449D01*
Y19685D01*
Y18528D01*
X379549Y16235D01*
X378950Y14001D01*
X378065Y11864D01*
X376908Y9860D01*
X375500Y8025D01*
X373864Y6390D01*
X372029Y4981D01*
X370026Y3825D01*
X367889Y2940D01*
X365655Y2341D01*
X363361Y2039D01*
X97269D01*
X94975Y2341D01*
X92741Y2940D01*
X90604Y3825D01*
X88601Y4981D01*
X86765Y6390D01*
X85130Y8025D01*
X83722Y9860D01*
X82565Y11864D01*
X81680Y14001D01*
X81081Y16235D01*
X80779Y18528D01*
Y19685D01*
Y409449D01*
Y410605D01*
X81081Y412899D01*
X81680Y415133D01*
X82565Y417270D01*
X83722Y419273D01*
X85130Y421108D01*
X86765Y422744D01*
X88601Y424152D01*
X90604Y425309D01*
X92741Y426194D01*
X94975Y426793D01*
X97269Y427095D01*
X363361D01*
X365655Y426793D01*
D02*
G37*
%LPC*%
G36*
X362205Y423296D02*
X360038Y423126D01*
X357926Y422618D01*
X355918Y421787D01*
X354065Y420652D01*
X352413Y419240D01*
X351002Y417588D01*
X349867Y415735D01*
X349035Y413728D01*
X348528Y411615D01*
X348357Y409449D01*
X348528Y407283D01*
X349035Y405170D01*
X349867Y403162D01*
X351002Y401309D01*
X352413Y399657D01*
X354065Y398246D01*
X355918Y397111D01*
X357926Y396279D01*
X360038Y395772D01*
X362205Y395601D01*
X364371Y395772D01*
X366484Y396279D01*
X368491Y397111D01*
X370344Y398246D01*
X371996Y399657D01*
X373408Y401309D01*
X374543Y403162D01*
X375374Y405170D01*
X375882Y407283D01*
X376052Y409449D01*
X375882Y411615D01*
X375374Y413728D01*
X374543Y415735D01*
X373408Y417588D01*
X371996Y419240D01*
X370344Y420652D01*
X368491Y421787D01*
X366484Y422618D01*
X364371Y423126D01*
X362205Y423296D01*
D02*
G37*
G36*
X98425D02*
X96259Y423126D01*
X94146Y422618D01*
X92139Y421787D01*
X90286Y420652D01*
X88634Y419240D01*
X87222Y417588D01*
X86087Y415735D01*
X85255Y413728D01*
X84748Y411615D01*
X84578Y409449D01*
X84748Y407283D01*
X85255Y405170D01*
X86087Y403162D01*
X87222Y401309D01*
X88634Y399657D01*
X90286Y398246D01*
X92139Y397111D01*
X94146Y396279D01*
X96259Y395772D01*
X98425Y395601D01*
X100591Y395772D01*
X102704Y396279D01*
X104712Y397111D01*
X106564Y398246D01*
X108217Y399657D01*
X109628Y401309D01*
X110763Y403162D01*
X111595Y405170D01*
X112102Y407283D01*
X112273Y409449D01*
X112102Y411615D01*
X111595Y413728D01*
X110763Y415735D01*
X109628Y417588D01*
X108217Y419240D01*
X106564Y420652D01*
X104712Y421787D01*
X102704Y422618D01*
X100591Y423126D01*
X98425Y423296D01*
D02*
G37*
G36*
X244193Y409071D02*
X242150Y408911D01*
X240158Y408432D01*
X238265Y407648D01*
X236518Y406578D01*
X234960Y405247D01*
X233629Y403689D01*
X232558Y401942D01*
X231774Y400049D01*
X231296Y398056D01*
X231135Y396014D01*
X231296Y393971D01*
X231774Y391979D01*
X232558Y390086D01*
X233629Y388339D01*
X234960Y386781D01*
X236518Y385450D01*
X238265Y384379D01*
X240158Y383595D01*
X242150Y383117D01*
X244193Y382956D01*
X246236Y383117D01*
X248228Y383595D01*
X250121Y384379D01*
X251868Y385450D01*
X253426Y386781D01*
X254757Y388339D01*
X255827Y390086D01*
X256611Y391979D01*
X257090Y393971D01*
X257250Y396014D01*
X257090Y398056D01*
X256611Y400049D01*
X255827Y401942D01*
X254757Y403689D01*
X253426Y405247D01*
X251868Y406578D01*
X250121Y407648D01*
X248228Y408432D01*
X246236Y408911D01*
X244193Y409071D01*
D02*
G37*
G36*
X196949D02*
X194906Y408911D01*
X192914Y408432D01*
X191021Y407648D01*
X189274Y406578D01*
X187716Y405247D01*
X186385Y403689D01*
X185314Y401942D01*
X184530Y400049D01*
X184052Y398056D01*
X183891Y396014D01*
X184052Y393971D01*
X184530Y391979D01*
X185314Y390086D01*
X186385Y388339D01*
X187716Y386781D01*
X189274Y385450D01*
X191021Y384379D01*
X192914Y383595D01*
X194906Y383117D01*
X196949Y382956D01*
X198992Y383117D01*
X200984Y383595D01*
X202877Y384379D01*
X204624Y385450D01*
X206182Y386781D01*
X207513Y388339D01*
X208583Y390086D01*
X209367Y391979D01*
X209846Y393971D01*
X210006Y396014D01*
X209846Y398056D01*
X209367Y400049D01*
X208583Y401942D01*
X207513Y403689D01*
X206182Y405247D01*
X204624Y406578D01*
X202877Y407648D01*
X200984Y408432D01*
X198992Y408911D01*
X196949Y409071D01*
D02*
G37*
G36*
X341553Y357517D02*
Y353947D01*
X345123D01*
X345047Y354517D01*
X344634Y355515D01*
X343977Y356371D01*
X343121Y357028D01*
X342123Y357441D01*
X341553Y357517D01*
D02*
G37*
G36*
X340553D02*
X339983Y357441D01*
X338985Y357028D01*
X338129Y356371D01*
X337472Y355515D01*
X337058Y354517D01*
X336983Y353947D01*
X340553D01*
Y357517D01*
D02*
G37*
G36*
X307400Y358941D02*
X306173Y358779D01*
X305030Y358306D01*
X304048Y357552D01*
X303294Y356570D01*
X302821Y355427D01*
X302659Y354200D01*
X302821Y352973D01*
X303294Y351830D01*
X304048Y350848D01*
X305030Y350095D01*
X306173Y349621D01*
X307400Y349459D01*
X308627Y349621D01*
X309770Y350095D01*
X310752Y350848D01*
X311506Y351830D01*
X311979Y352973D01*
X312141Y354200D01*
X311979Y355427D01*
X311506Y356570D01*
X310752Y357552D01*
X309770Y358306D01*
X308627Y358779D01*
X307400Y358941D01*
D02*
G37*
G36*
X345123Y352947D02*
X341553D01*
Y349377D01*
X342123Y349453D01*
X343121Y349866D01*
X343977Y350523D01*
X344634Y351379D01*
X345047Y352377D01*
X345123Y352947D01*
D02*
G37*
G36*
X340553D02*
X336983D01*
X337058Y352377D01*
X337472Y351379D01*
X338129Y350523D01*
X338985Y349866D01*
X339983Y349453D01*
X340553Y349377D01*
Y352947D01*
D02*
G37*
G36*
X260133Y341608D02*
X259552D01*
X259355Y341569D01*
X259154Y341569D01*
X258583Y341455D01*
X258398Y341378D01*
X258201Y341339D01*
X257663Y341117D01*
X257497Y341005D01*
X257311Y340928D01*
X256827Y340605D01*
X256685Y340463D01*
X256518Y340352D01*
X256107Y339940D01*
X255995Y339773D01*
X255854Y339631D01*
X255586Y339231D01*
X255279Y339160D01*
X255007Y339174D01*
X254997Y339178D01*
X254794Y339442D01*
X253967Y340077D01*
X253003Y340476D01*
X251969Y340613D01*
X250934Y340476D01*
X249970Y340077D01*
X249143Y339442D01*
X248507Y338614D01*
X248302Y338118D01*
X247761D01*
X247555Y338614D01*
X246920Y339442D01*
X246093Y340077D01*
X245129Y340476D01*
X244094Y340613D01*
X243060Y340476D01*
X242096Y340077D01*
X241269Y339442D01*
X240634Y338614D01*
X240428Y338118D01*
X239887D01*
X239682Y338614D01*
X239046Y339442D01*
X238219Y340077D01*
X237255Y340476D01*
X236221Y340613D01*
X235186Y340476D01*
X234222Y340077D01*
X233395Y339442D01*
X232809Y338678D01*
X232577Y338696D01*
X232309Y338817D01*
Y340578D01*
X224384D01*
Y332654D01*
X226146D01*
X226267Y332385D01*
X226284Y332154D01*
X225521Y331568D01*
X224886Y330740D01*
X224486Y329777D01*
X224350Y328742D01*
X224486Y327708D01*
X224886Y326744D01*
X225521Y325916D01*
X226348Y325281D01*
X226844Y325076D01*
Y324535D01*
X226348Y324329D01*
X225521Y323694D01*
X224886Y322866D01*
X224486Y321902D01*
X224350Y320868D01*
X224486Y319834D01*
X224886Y318870D01*
X225521Y318042D01*
X226348Y317407D01*
X226844Y317202D01*
Y316660D01*
X226348Y316455D01*
X225521Y315820D01*
X224886Y314992D01*
X224486Y314028D01*
X224350Y312994D01*
X224486Y311960D01*
X224886Y310996D01*
X225521Y310168D01*
X226348Y309533D01*
X226844Y309328D01*
Y308787D01*
X226348Y308581D01*
X225521Y307946D01*
X224886Y307118D01*
X224486Y306154D01*
X224350Y305120D01*
X224486Y304086D01*
X224886Y303122D01*
X225521Y302294D01*
X226348Y301659D01*
X226844Y301454D01*
Y300912D01*
X226348Y300707D01*
X225521Y300072D01*
X225073Y299489D01*
X224846D01*
X223988Y299318D01*
X223260Y298832D01*
X218014Y293586D01*
X217528Y292858D01*
X217357Y292000D01*
Y272600D01*
X217528Y271742D01*
X218014Y271014D01*
X224609Y264418D01*
X224886Y263752D01*
X225521Y262924D01*
X226348Y262289D01*
X226844Y262084D01*
Y261542D01*
X226348Y261337D01*
X225521Y260702D01*
X224886Y259874D01*
X224486Y258910D01*
X224350Y257876D01*
X224486Y256842D01*
X224886Y255878D01*
X225521Y255050D01*
X226348Y254415D01*
X226844Y254210D01*
Y253668D01*
X226348Y253463D01*
X225521Y252828D01*
X224886Y252000D01*
X224486Y251036D01*
X224350Y250002D01*
X224486Y248968D01*
X224886Y248004D01*
X225521Y247176D01*
X226348Y246541D01*
X226844Y246336D01*
Y245794D01*
X226348Y245589D01*
X225521Y244954D01*
X224886Y244126D01*
X224486Y243162D01*
X224350Y242128D01*
X224486Y241094D01*
X224886Y240130D01*
X225521Y239302D01*
X226348Y238667D01*
X226844Y238461D01*
Y237920D01*
X226348Y237715D01*
X225521Y237080D01*
X224886Y236252D01*
X224486Y235288D01*
X224350Y234254D01*
X224486Y233220D01*
X224886Y232256D01*
X225521Y231428D01*
X226348Y230793D01*
X226844Y230588D01*
Y230046D01*
X226348Y229841D01*
X225521Y229206D01*
X224886Y228378D01*
X224486Y227414D01*
X224350Y226380D01*
X224486Y225346D01*
X224886Y224382D01*
X225521Y223554D01*
X226348Y222919D01*
X226844Y222713D01*
Y222172D01*
X226348Y221967D01*
X225521Y221332D01*
X224886Y220504D01*
X224486Y219540D01*
X224350Y218506D01*
X224486Y217472D01*
X224886Y216508D01*
X225521Y215680D01*
X226348Y215045D01*
X226844Y214840D01*
Y214298D01*
X226348Y214093D01*
X225521Y213458D01*
X224886Y212630D01*
X224486Y211666D01*
X224350Y210632D01*
X224486Y209598D01*
X224886Y208634D01*
X225521Y207806D01*
X226348Y207171D01*
X226844Y206965D01*
Y206424D01*
X226348Y206219D01*
X225521Y205584D01*
X224886Y204756D01*
X224486Y203792D01*
X224350Y202758D01*
X224486Y201724D01*
X224886Y200760D01*
X225521Y199932D01*
X226348Y199297D01*
X226844Y199091D01*
Y198550D01*
X226348Y198345D01*
X225521Y197710D01*
X224886Y196882D01*
X224486Y195918D01*
X224350Y194884D01*
X224486Y193850D01*
X224886Y192886D01*
X225521Y192058D01*
X226348Y191423D01*
X226844Y191218D01*
Y190676D01*
X226348Y190471D01*
X225521Y189836D01*
X224886Y189008D01*
X224486Y188044D01*
X224350Y187010D01*
X224486Y185976D01*
X224886Y185012D01*
X225521Y184184D01*
X226348Y183549D01*
X226844Y183343D01*
Y182802D01*
X226348Y182597D01*
X225521Y181962D01*
X224886Y181134D01*
X224486Y180170D01*
X224350Y179136D01*
X224486Y178102D01*
X224886Y177138D01*
X225521Y176310D01*
X226348Y175675D01*
X226844Y175469D01*
Y174928D01*
X226348Y174723D01*
X225521Y174088D01*
X224886Y173260D01*
X224486Y172296D01*
X224350Y171262D01*
X224486Y170228D01*
X224886Y169264D01*
X225521Y168436D01*
X226348Y167801D01*
X226844Y167595D01*
Y167054D01*
X226348Y166849D01*
X225521Y166214D01*
X224886Y165386D01*
X224486Y164422D01*
X224350Y163388D01*
X224486Y162354D01*
X224886Y161390D01*
X225521Y160562D01*
X226348Y159927D01*
X226844Y159721D01*
Y159180D01*
X226348Y158975D01*
X225521Y158340D01*
X224886Y157512D01*
X224486Y156548D01*
X224350Y155514D01*
X224486Y154479D01*
X224886Y153516D01*
X225521Y152688D01*
X226286Y152101D01*
X226269Y151876D01*
X226147Y151601D01*
X224384D01*
Y143677D01*
X226146D01*
X226267Y143408D01*
X226284Y143177D01*
X225521Y142591D01*
X224886Y141763D01*
X224486Y140799D01*
X224350Y139765D01*
X224486Y138730D01*
X224886Y137767D01*
X225521Y136939D01*
X226348Y136304D01*
X226844Y136098D01*
Y135557D01*
X226348Y135352D01*
X225521Y134717D01*
X224886Y133889D01*
X224486Y132925D01*
X224350Y131891D01*
X224486Y130856D01*
X224886Y129893D01*
X225521Y129065D01*
X226348Y128430D01*
X226844Y128224D01*
Y127683D01*
X226348Y127478D01*
X225521Y126843D01*
X224886Y126015D01*
X224486Y125051D01*
X224350Y124017D01*
X224486Y122982D01*
X224886Y122019D01*
X225521Y121191D01*
X226348Y120556D01*
X226844Y120350D01*
Y119809D01*
X226348Y119604D01*
X225521Y118969D01*
X224886Y118141D01*
X224486Y117177D01*
X224350Y116143D01*
X224486Y115108D01*
X224886Y114145D01*
X225521Y113317D01*
X226348Y112682D01*
X226844Y112476D01*
Y111935D01*
X226348Y111730D01*
X225521Y111095D01*
X224886Y110267D01*
X224486Y109303D01*
X224350Y108269D01*
X224486Y107234D01*
X224886Y106271D01*
X225521Y105443D01*
X226348Y104808D01*
X227312Y104409D01*
X228346Y104272D01*
X229381Y104409D01*
X230345Y104808D01*
X231172Y105443D01*
X231807Y106271D01*
X232013Y106766D01*
X232554D01*
X232759Y106271D01*
X233395Y105443D01*
X234222Y104808D01*
X235186Y104409D01*
X236221Y104272D01*
X237255Y104409D01*
X238219Y104808D01*
X239046Y105443D01*
X239682Y106271D01*
X239887Y106766D01*
X240428D01*
X240634Y106271D01*
X241269Y105443D01*
X242096Y104808D01*
X243060Y104409D01*
X244094Y104272D01*
X245129Y104409D01*
X246093Y104808D01*
X246920Y105443D01*
X247555Y106271D01*
X247761Y106766D01*
X248302D01*
X248507Y106271D01*
X249143Y105443D01*
X249970Y104808D01*
X250934Y104409D01*
X251969Y104272D01*
X253003Y104409D01*
X253967Y104808D01*
X254794Y105443D01*
X255430Y106271D01*
X255829Y107234D01*
X255965Y108269D01*
X255829Y109303D01*
X255689Y109641D01*
X255966Y110057D01*
X296400D01*
X297258Y110228D01*
X297986Y110714D01*
X307329Y120057D01*
X322236D01*
X322375Y119875D01*
X323085Y119330D01*
X323912Y118988D01*
X324800Y118871D01*
X325688Y118988D01*
X326515Y119330D01*
X327225Y119875D01*
X327770Y120585D01*
X328113Y121412D01*
X328229Y122300D01*
X328113Y123188D01*
X327770Y124015D01*
X327225Y124725D01*
X326515Y125270D01*
X325688Y125612D01*
X324800Y125729D01*
X323912Y125612D01*
X323085Y125270D01*
X322375Y124725D01*
X322236Y124543D01*
X306400D01*
X305542Y124372D01*
X304814Y123886D01*
X295471Y114543D01*
X256045D01*
X255767Y114959D01*
X255829Y115108D01*
X255965Y116143D01*
X255829Y117177D01*
X255430Y118141D01*
X254794Y118969D01*
X253967Y119604D01*
X253471Y119809D01*
Y120350D01*
X253967Y120556D01*
X254794Y121191D01*
X255242Y121774D01*
X269217D01*
X270075Y121944D01*
X270803Y122431D01*
X279929Y131557D01*
X325771D01*
X327701Y129627D01*
X327671Y129400D01*
X327787Y128512D01*
X328130Y127685D01*
X328675Y126975D01*
X329385Y126430D01*
X330212Y126087D01*
X331100Y125971D01*
X331988Y126087D01*
X332815Y126430D01*
X333525Y126975D01*
X334070Y127685D01*
X334413Y128512D01*
X334529Y129400D01*
X334413Y130288D01*
X334070Y131115D01*
X333525Y131825D01*
X332815Y132370D01*
X331988Y132712D01*
X331100Y132829D01*
X330873Y132799D01*
X328286Y135386D01*
X327558Y135872D01*
X326700Y136043D01*
X279000D01*
X278142Y135872D01*
X277414Y135386D01*
X268288Y126260D01*
X255242D01*
X254794Y126843D01*
X253967Y127478D01*
X253471Y127683D01*
Y128224D01*
X253967Y128430D01*
X254794Y129065D01*
X255430Y129893D01*
X255829Y130856D01*
X255965Y131891D01*
X255829Y132925D01*
X255430Y133889D01*
X254794Y134717D01*
X253967Y135352D01*
X253471Y135557D01*
Y136098D01*
X253967Y136304D01*
X254794Y136939D01*
X255430Y137767D01*
X255829Y138730D01*
X255965Y139765D01*
X255829Y140799D01*
X255430Y141763D01*
X254794Y142591D01*
X253967Y143226D01*
X253471Y143431D01*
Y143972D01*
X253967Y144178D01*
X254794Y144813D01*
X254997Y145076D01*
X255007Y145081D01*
X255279Y145095D01*
X255586Y145024D01*
X255854Y144624D01*
X255995Y144482D01*
X256107Y144315D01*
X256518Y143903D01*
X256685Y143792D01*
X256827Y143650D01*
X257311Y143326D01*
X257497Y143250D01*
X257663Y143138D01*
X258201Y142915D01*
X258398Y142876D01*
X258583Y142799D01*
X259154Y142686D01*
X259355D01*
X259552Y142647D01*
X260133D01*
X260330Y142686D01*
X260531D01*
X261102Y142799D01*
X261287Y142876D01*
X261484Y142915D01*
X262021Y143138D01*
X262189Y143250D01*
X262374Y143326D01*
X262858Y143650D01*
X263000Y143792D01*
X263167Y143903D01*
X263578Y144315D01*
X263690Y144482D01*
X263832Y144624D01*
X264155Y145107D01*
X264232Y145293D01*
X264343Y145460D01*
X264566Y145997D01*
X264605Y146194D01*
X264682Y146380D01*
X264795Y146950D01*
X264795Y147151D01*
X264834Y147348D01*
Y147930D01*
X264795Y148127D01*
X264795Y148327D01*
X264682Y148898D01*
X264605Y149083D01*
X264566Y149280D01*
X264343Y149818D01*
X264232Y149985D01*
X264155Y150170D01*
X263832Y150654D01*
X263690Y150796D01*
X263578Y150963D01*
X263167Y151374D01*
X263000Y151486D01*
X262858Y151628D01*
X262374Y151951D01*
X262189Y152028D01*
X262021Y152139D01*
X261484Y152362D01*
X261287Y152401D01*
X261102Y152478D01*
X260531Y152592D01*
X260330Y152592D01*
X260133Y152631D01*
X259552D01*
X259355Y152592D01*
X259154Y152592D01*
X258583Y152478D01*
X258398Y152401D01*
X258201Y152362D01*
X257663Y152139D01*
X257497Y152028D01*
X257311Y151951D01*
X256827Y151628D01*
X256685Y151486D01*
X256518Y151374D01*
X256107Y150963D01*
X255995Y150796D01*
X255854Y150654D01*
X255586Y150254D01*
X255279Y150183D01*
X255007Y150196D01*
X254997Y150201D01*
X254794Y150465D01*
X253967Y151100D01*
X253469Y151306D01*
Y151847D01*
X253967Y152053D01*
X254794Y152688D01*
X255430Y153516D01*
X255829Y154479D01*
X255965Y155514D01*
X255829Y156548D01*
X255430Y157512D01*
X254794Y158340D01*
X253967Y158975D01*
X253471Y159180D01*
Y159721D01*
X253967Y159927D01*
X254794Y160562D01*
X255430Y161390D01*
X255829Y162354D01*
X255965Y163388D01*
X255829Y164422D01*
X255430Y165386D01*
X254794Y166214D01*
X253967Y166849D01*
X253471Y167054D01*
Y167595D01*
X253967Y167801D01*
X254794Y168436D01*
X255430Y169264D01*
X255829Y170228D01*
X255965Y171262D01*
X255829Y172296D01*
X255430Y173260D01*
X254794Y174088D01*
X253967Y174723D01*
X253471Y174928D01*
Y175469D01*
X253967Y175675D01*
X254794Y176310D01*
X255430Y177138D01*
X255829Y178102D01*
X255965Y179136D01*
X255829Y180170D01*
X255430Y181134D01*
X254794Y181962D01*
X253967Y182597D01*
X253471Y182802D01*
Y183343D01*
X253967Y183549D01*
X254794Y184184D01*
X255430Y185012D01*
X255829Y185976D01*
X255965Y187010D01*
X255829Y188044D01*
X255430Y189008D01*
X254794Y189836D01*
X254212Y190283D01*
Y191611D01*
X254794Y192058D01*
X255430Y192886D01*
X255829Y193850D01*
X255965Y194884D01*
X255829Y195918D01*
X255430Y196882D01*
X254794Y197710D01*
X253967Y198345D01*
X253471Y198550D01*
Y199091D01*
X253967Y199297D01*
X254794Y199932D01*
X255430Y200760D01*
X255829Y201724D01*
X255965Y202758D01*
X255829Y203792D01*
X255430Y204756D01*
X254794Y205584D01*
X253967Y206219D01*
X253471Y206424D01*
Y206965D01*
X253967Y207171D01*
X254794Y207806D01*
X255430Y208634D01*
X255829Y209598D01*
X255965Y210632D01*
X255829Y211666D01*
X255430Y212630D01*
X254794Y213458D01*
X253967Y214093D01*
X253471Y214298D01*
Y214840D01*
X253967Y215045D01*
X254794Y215680D01*
X255430Y216508D01*
X255829Y217472D01*
X255965Y218506D01*
X255829Y219540D01*
X255430Y220504D01*
X254794Y221332D01*
X253967Y221967D01*
X253471Y222172D01*
Y222713D01*
X253967Y222919D01*
X254794Y223554D01*
X255430Y224382D01*
X255829Y225346D01*
X255965Y226380D01*
X255829Y227414D01*
X255430Y228378D01*
X254794Y229206D01*
X253967Y229841D01*
X253471Y230046D01*
Y230588D01*
X253967Y230793D01*
X254794Y231428D01*
X255430Y232256D01*
X255829Y233220D01*
X255965Y234254D01*
X255829Y235288D01*
X255683Y235641D01*
X255960Y236057D01*
X268971D01*
X332757Y172271D01*
Y140364D01*
X332575Y140225D01*
X332030Y139515D01*
X331687Y138688D01*
X331571Y137800D01*
X331687Y136912D01*
X332030Y136085D01*
X332575Y135375D01*
X333285Y134830D01*
X334112Y134487D01*
X335000Y134371D01*
X335888Y134487D01*
X336715Y134830D01*
X337425Y135375D01*
X337970Y136085D01*
X338141Y136500D01*
X338683D01*
X338730Y136385D01*
X339275Y135675D01*
X339985Y135130D01*
X340812Y134787D01*
X341700Y134671D01*
X342588Y134787D01*
X343415Y135130D01*
X344125Y135675D01*
X344670Y136385D01*
X345012Y137212D01*
X345129Y138100D01*
X345012Y138988D01*
X344670Y139815D01*
X344125Y140525D01*
X343943Y140664D01*
Y187700D01*
X343772Y188558D01*
X343286Y189286D01*
X276986Y255586D01*
X276258Y256072D01*
X275400Y256243D01*
X256031D01*
X255753Y256659D01*
X255829Y256842D01*
X255965Y257876D01*
X255829Y258910D01*
X255430Y259874D01*
X254794Y260702D01*
X253967Y261337D01*
X253471Y261542D01*
Y262084D01*
X253967Y262289D01*
X254794Y262924D01*
X255430Y263752D01*
X255829Y264716D01*
X255965Y265750D01*
X255829Y266784D01*
X255430Y267748D01*
X254794Y268576D01*
X253967Y269211D01*
X253471Y269416D01*
Y269958D01*
X253967Y270163D01*
X254794Y270798D01*
X255430Y271626D01*
X255829Y272590D01*
X255965Y273624D01*
X255829Y274658D01*
X255430Y275622D01*
X254794Y276450D01*
X253967Y277085D01*
X253471Y277290D01*
Y277832D01*
X253967Y278037D01*
X254794Y278672D01*
X255430Y279500D01*
X255829Y280464D01*
X255965Y281498D01*
X255829Y282532D01*
X255430Y283496D01*
X254794Y284324D01*
X253967Y284959D01*
X253003Y285358D01*
X252382Y285440D01*
X252036Y285486D01*
Y285878D01*
X252306Y286025D01*
X252382Y286035D01*
X252846Y286096D01*
X253664Y286435D01*
X254366Y286974D01*
X254905Y287676D01*
X255244Y288494D01*
X255294Y288872D01*
X251969D01*
Y289872D01*
X255294D01*
X255244Y290250D01*
X254905Y291068D01*
X254366Y291770D01*
X253664Y292309D01*
X252846Y292648D01*
X252382Y292709D01*
X252036Y292754D01*
Y293259D01*
X252382Y293304D01*
X253003Y293386D01*
X253967Y293785D01*
X254794Y294420D01*
X255430Y295248D01*
X255829Y296212D01*
X255965Y297246D01*
X255829Y298280D01*
X255430Y299244D01*
X254794Y300072D01*
X253967Y300707D01*
X253471Y300912D01*
Y301454D01*
X253967Y301659D01*
X254794Y302294D01*
X255430Y303122D01*
X255829Y304086D01*
X255965Y305120D01*
X255829Y306154D01*
X255430Y307118D01*
X254794Y307946D01*
X253967Y308581D01*
X253471Y308787D01*
Y309328D01*
X253967Y309533D01*
X254794Y310168D01*
X255430Y310996D01*
X255829Y311960D01*
X255965Y312994D01*
X255829Y314028D01*
X255430Y314992D01*
X254794Y315820D01*
X253967Y316455D01*
X253471Y316660D01*
Y317202D01*
X253967Y317407D01*
X254794Y318042D01*
X255430Y318870D01*
X255829Y319834D01*
X255965Y320868D01*
X255829Y321902D01*
X255430Y322866D01*
X254794Y323694D01*
X253967Y324329D01*
X253471Y324535D01*
Y325076D01*
X253967Y325281D01*
X254794Y325916D01*
X255430Y326744D01*
X255829Y327708D01*
X255965Y328742D01*
X255829Y329777D01*
X255430Y330740D01*
X254794Y331568D01*
X253967Y332203D01*
X253471Y332408D01*
Y332950D01*
X253967Y333155D01*
X254794Y333790D01*
X254997Y334054D01*
X255007Y334059D01*
X255279Y334072D01*
X255586Y334001D01*
X255854Y333601D01*
X255995Y333459D01*
X256107Y333292D01*
X256518Y332881D01*
X256685Y332769D01*
X256827Y332627D01*
X257311Y332304D01*
X257497Y332227D01*
X257663Y332116D01*
X258201Y331893D01*
X258398Y331854D01*
X258583Y331777D01*
X259154Y331663D01*
X259355D01*
X259552Y331624D01*
X260133D01*
X260330Y331663D01*
X260531D01*
X261102Y331777D01*
X261287Y331854D01*
X261484Y331893D01*
X262021Y332116D01*
X262189Y332227D01*
X262374Y332304D01*
X262858Y332627D01*
X263000Y332769D01*
X263167Y332881D01*
X263578Y333292D01*
X263690Y333459D01*
X263832Y333601D01*
X264155Y334085D01*
X264232Y334270D01*
X264343Y334437D01*
X264566Y334975D01*
X264605Y335172D01*
X264682Y335357D01*
X264795Y335928D01*
X264795Y336128D01*
X264834Y336325D01*
Y336907D01*
X264795Y337104D01*
X264795Y337305D01*
X264682Y337875D01*
X264605Y338061D01*
X264566Y338258D01*
X264343Y338795D01*
X264232Y338962D01*
X264155Y339148D01*
X263832Y339631D01*
X263690Y339773D01*
X263578Y339940D01*
X263167Y340352D01*
X263000Y340463D01*
X262858Y340605D01*
X262374Y340928D01*
X262189Y341005D01*
X262021Y341117D01*
X261484Y341339D01*
X261287Y341378D01*
X261102Y341455D01*
X260531Y341569D01*
X260330Y341569D01*
X260133Y341608D01*
D02*
G37*
G36*
X342200Y307841D02*
X340973Y307679D01*
X339830Y307206D01*
X338848Y306452D01*
X338094Y305470D01*
X337621Y304327D01*
X337459Y303100D01*
X337621Y301873D01*
X338094Y300730D01*
X338848Y299748D01*
X339830Y298994D01*
X340973Y298521D01*
X342200Y298359D01*
X343427Y298521D01*
X344570Y298994D01*
X345552Y299748D01*
X346305Y300730D01*
X346779Y301873D01*
X346941Y303100D01*
X346779Y304327D01*
X346305Y305470D01*
X345552Y306452D01*
X344570Y307206D01*
X343427Y307679D01*
X342200Y307841D01*
D02*
G37*
G36*
X187484Y293225D02*
X186257Y293063D01*
X185114Y292590D01*
X184132Y291836D01*
X183379Y290855D01*
X182905Y289711D01*
X182744Y288484D01*
X182905Y287257D01*
X183379Y286114D01*
X184132Y285132D01*
X185114Y284379D01*
X186257Y283905D01*
X187484Y283744D01*
X188711Y283905D01*
X189855Y284379D01*
X190836Y285132D01*
X191590Y286114D01*
X192063Y287257D01*
X192225Y288484D01*
X192063Y289711D01*
X191590Y290855D01*
X190836Y291836D01*
X189855Y292590D01*
X188711Y293063D01*
X187484Y293225D01*
D02*
G37*
G36*
X332390Y282280D02*
Y278710D01*
X335959D01*
X335884Y279280D01*
X335471Y280278D01*
X334814Y281134D01*
X333958Y281792D01*
X332960Y282205D01*
X332390Y282280D01*
D02*
G37*
G36*
X331390D02*
X330820Y282205D01*
X329822Y281792D01*
X328966Y281134D01*
X328308Y280278D01*
X327895Y279280D01*
X327820Y278710D01*
X331390D01*
Y282280D01*
D02*
G37*
G36*
X335959Y277710D02*
X332390D01*
Y274141D01*
X332960Y274216D01*
X333958Y274629D01*
X334814Y275286D01*
X335471Y276143D01*
X335884Y277140D01*
X335959Y277710D01*
D02*
G37*
G36*
X331390D02*
X327820D01*
X327895Y277140D01*
X328308Y276143D01*
X328966Y275286D01*
X329822Y274629D01*
X330820Y274216D01*
X331390Y274141D01*
Y277710D01*
D02*
G37*
G36*
X178453Y272922D02*
Y269353D01*
X182022D01*
X181947Y269923D01*
X181534Y270920D01*
X180877Y271777D01*
X180020Y272434D01*
X179023Y272847D01*
X178453Y272922D01*
D02*
G37*
G36*
X177453D02*
X176883Y272847D01*
X175885Y272434D01*
X175029Y271777D01*
X174371Y270920D01*
X173958Y269923D01*
X173883Y269353D01*
X177453D01*
Y272922D01*
D02*
G37*
G36*
X182022Y268353D02*
X178453D01*
Y264783D01*
X179023Y264858D01*
X180020Y265271D01*
X180877Y265929D01*
X181534Y266785D01*
X181947Y267782D01*
X182022Y268353D01*
D02*
G37*
G36*
X177453D02*
X173883D01*
X173958Y267782D01*
X174371Y266785D01*
X175029Y265929D01*
X175885Y265271D01*
X176883Y264858D01*
X177453Y264783D01*
Y268353D01*
D02*
G37*
G36*
X157980Y256038D02*
Y252468D01*
X161550D01*
X161475Y253039D01*
X161062Y254036D01*
X160405Y254893D01*
X159548Y255550D01*
X158551Y255963D01*
X157980Y256038D01*
D02*
G37*
G36*
X156980D02*
X156410Y255963D01*
X155413Y255550D01*
X154556Y254893D01*
X153899Y254036D01*
X153486Y253039D01*
X153411Y252468D01*
X156980D01*
Y256038D01*
D02*
G37*
G36*
X161550Y251468D02*
X157980D01*
Y247899D01*
X158551Y247974D01*
X159548Y248387D01*
X160405Y249044D01*
X161062Y249901D01*
X161475Y250898D01*
X161550Y251468D01*
D02*
G37*
G36*
X156980D02*
X153411D01*
X153486Y250898D01*
X153899Y249901D01*
X154556Y249044D01*
X155413Y248387D01*
X156410Y247974D01*
X156980Y247899D01*
Y251468D01*
D02*
G37*
G36*
X191800Y229729D02*
X190912Y229612D01*
X190085Y229270D01*
X189375Y228725D01*
X188830Y228015D01*
X188488Y227188D01*
X188371Y226300D01*
X188488Y225412D01*
X188830Y224585D01*
X189375Y223875D01*
X190085Y223330D01*
X190912Y222988D01*
X191800Y222871D01*
X192688Y222988D01*
X193515Y223330D01*
X194225Y223875D01*
X194770Y224585D01*
X195113Y225412D01*
X195229Y226300D01*
X195113Y227188D01*
X194770Y228015D01*
X194225Y228725D01*
X193515Y229270D01*
X192688Y229612D01*
X191800Y229729D01*
D02*
G37*
G36*
X196600Y208429D02*
X195712Y208313D01*
X194885Y207970D01*
X194175Y207425D01*
X193630Y206715D01*
X193288Y205888D01*
X193171Y205000D01*
X193288Y204112D01*
X193630Y203285D01*
X194175Y202575D01*
X194885Y202030D01*
X195712Y201688D01*
X196600Y201571D01*
X197488Y201688D01*
X198315Y202030D01*
X199025Y202575D01*
X199570Y203285D01*
X199913Y204112D01*
X200029Y205000D01*
X199913Y205888D01*
X199570Y206715D01*
X199025Y207425D01*
X198315Y207970D01*
X197488Y208313D01*
X196600Y208429D01*
D02*
G37*
G36*
X212889Y160506D02*
X212308D01*
X212111Y160467D01*
X211910Y160467D01*
X211339Y160353D01*
X211154Y160276D01*
X210957Y160237D01*
X210419Y160014D01*
X210252Y159903D01*
X210067Y159826D01*
X209583Y159503D01*
X209441Y159361D01*
X209274Y159249D01*
X208863Y158838D01*
X208751Y158671D01*
X208609Y158529D01*
X208286Y158045D01*
X208209Y157860D01*
X208098Y157693D01*
X207875Y157155D01*
X207836Y156958D01*
X207759Y156773D01*
X207646Y156202D01*
Y156002D01*
X207607Y155805D01*
Y155223D01*
X207646Y155026D01*
Y154825D01*
X207759Y154255D01*
X207836Y154069D01*
X207875Y153872D01*
X208098Y153335D01*
X208209Y153168D01*
X208286Y152982D01*
X208609Y152499D01*
X208751Y152357D01*
X208863Y152190D01*
X209274Y151778D01*
X209441Y151667D01*
X209583Y151525D01*
X210067Y151202D01*
X210252Y151125D01*
X210419Y151013D01*
X210957Y150791D01*
X211154Y150751D01*
X211339Y150674D01*
X211910Y150561D01*
X212111D01*
X212308Y150522D01*
X212889D01*
X213086Y150561D01*
X213287D01*
X213858Y150674D01*
X214043Y150751D01*
X214240Y150791D01*
X214777Y151013D01*
X214944Y151125D01*
X215130Y151202D01*
X215614Y151525D01*
X215756Y151667D01*
X215923Y151778D01*
X216334Y152190D01*
X216445Y152357D01*
X216587Y152499D01*
X216911Y152982D01*
X216987Y153168D01*
X217099Y153335D01*
X217322Y153872D01*
X217361Y154069D01*
X217438Y154255D01*
X217551Y154825D01*
X217551Y155026D01*
X217590Y155223D01*
Y155805D01*
X217551Y156002D01*
X217551Y156202D01*
X217438Y156773D01*
X217361Y156958D01*
X217322Y157155D01*
X217099Y157693D01*
X216987Y157860D01*
X216911Y158045D01*
X216587Y158529D01*
X216445Y158671D01*
X216334Y158838D01*
X215923Y159249D01*
X215756Y159361D01*
X215614Y159503D01*
X215130Y159826D01*
X214944Y159903D01*
X214777Y160014D01*
X214240Y160237D01*
X214043Y160276D01*
X213858Y160353D01*
X213287Y160467D01*
X213086Y160467D01*
X212889Y160506D01*
D02*
G37*
G36*
X349900Y155141D02*
X348673Y154979D01*
X347530Y154505D01*
X346548Y153752D01*
X345795Y152770D01*
X345321Y151627D01*
X345159Y150400D01*
X345321Y149173D01*
X345795Y148030D01*
X346548Y147048D01*
X347530Y146295D01*
X348673Y145821D01*
X349900Y145659D01*
X351127Y145821D01*
X352270Y146295D01*
X353252Y147048D01*
X354006Y148030D01*
X354479Y149173D01*
X354641Y150400D01*
X354479Y151627D01*
X354006Y152770D01*
X353252Y153752D01*
X352270Y154505D01*
X351127Y154979D01*
X349900Y155141D01*
D02*
G37*
G36*
X154724Y152422D02*
X153330Y152285D01*
X151990Y151878D01*
X150754Y151217D01*
X149671Y150329D01*
X148783Y149246D01*
X148122Y148010D01*
X147715Y146670D01*
X147578Y145276D01*
X147715Y143881D01*
X148122Y142541D01*
X148783Y141305D01*
X149671Y140223D01*
X150754Y139334D01*
X151990Y138673D01*
X153330Y138267D01*
X154724Y138129D01*
X156119Y138267D01*
X157459Y138673D01*
X158695Y139334D01*
X159777Y140223D01*
X160666Y141305D01*
X161327Y142541D01*
X161733Y143881D01*
X161871Y145276D01*
X161733Y146670D01*
X161327Y148010D01*
X160666Y149246D01*
X159777Y150329D01*
X158695Y151217D01*
X157459Y151878D01*
X156119Y152285D01*
X154724Y152422D01*
D02*
G37*
G36*
X136221D02*
X134826Y152285D01*
X133486Y151878D01*
X132250Y151217D01*
X131167Y150329D01*
X130279Y149246D01*
X129618Y148010D01*
X129212Y146670D01*
X129074Y145276D01*
X129212Y143881D01*
X129618Y142541D01*
X130279Y141305D01*
X131167Y140223D01*
X132250Y139334D01*
X133486Y138673D01*
X134826Y138267D01*
X136221Y138129D01*
X137615Y138267D01*
X138955Y138673D01*
X140191Y139334D01*
X141274Y140223D01*
X142162Y141305D01*
X142823Y142541D01*
X143229Y143881D01*
X143367Y145276D01*
X143229Y146670D01*
X142823Y148010D01*
X142162Y149246D01*
X141274Y150329D01*
X140191Y151217D01*
X138955Y151878D01*
X137615Y152285D01*
X136221Y152422D01*
D02*
G37*
G36*
X117717D02*
X116322Y152285D01*
X114982Y151878D01*
X113746Y151217D01*
X112663Y150329D01*
X111775Y149246D01*
X111114Y148010D01*
X110708Y146670D01*
X110570Y145276D01*
X110708Y143881D01*
X111114Y142541D01*
X111775Y141305D01*
X112663Y140223D01*
X113746Y139334D01*
X114982Y138673D01*
X116322Y138267D01*
X117717Y138129D01*
X119111Y138267D01*
X120451Y138673D01*
X121687Y139334D01*
X122770Y140223D01*
X123658Y141305D01*
X124319Y142541D01*
X124725Y143881D01*
X124863Y145276D01*
X124725Y146670D01*
X124319Y148010D01*
X123658Y149246D01*
X122770Y150329D01*
X121687Y151217D01*
X120451Y151878D01*
X119111Y152285D01*
X117717Y152422D01*
D02*
G37*
G36*
X368766Y136006D02*
X367539Y135845D01*
X366395Y135371D01*
X365413Y134618D01*
X364660Y133636D01*
X364187Y132492D01*
X364025Y131266D01*
X364187Y130039D01*
X364660Y128895D01*
X365413Y127913D01*
X366395Y127160D01*
X367539Y126687D01*
X368766Y126525D01*
X369992Y126687D01*
X371136Y127160D01*
X372118Y127913D01*
X372871Y128895D01*
X373345Y130039D01*
X373506Y131266D01*
X373345Y132492D01*
X372871Y133636D01*
X372118Y134618D01*
X371136Y135371D01*
X369992Y135845D01*
X368766Y136006D01*
D02*
G37*
G36*
X363200Y114870D02*
Y111300D01*
X366770D01*
X366694Y111870D01*
X366281Y112868D01*
X365624Y113724D01*
X364768Y114381D01*
X363770Y114795D01*
X363200Y114870D01*
D02*
G37*
G36*
X362200D02*
X361630Y114795D01*
X360632Y114381D01*
X359776Y113724D01*
X359119Y112868D01*
X358705Y111870D01*
X358630Y111300D01*
X362200D01*
Y114870D01*
D02*
G37*
G36*
X318621Y113890D02*
Y110321D01*
X322190D01*
X322115Y110891D01*
X321702Y111889D01*
X321045Y112745D01*
X320188Y113402D01*
X319191Y113815D01*
X318621Y113890D01*
D02*
G37*
G36*
X317621D02*
X317051Y113815D01*
X316053Y113402D01*
X315197Y112745D01*
X314540Y111889D01*
X314126Y110891D01*
X314051Y110321D01*
X317621D01*
Y113890D01*
D02*
G37*
G36*
X366770Y110300D02*
X363200D01*
Y106730D01*
X363770Y106806D01*
X364768Y107219D01*
X365624Y107876D01*
X366281Y108732D01*
X366694Y109730D01*
X366770Y110300D01*
D02*
G37*
G36*
X362200D02*
X358630D01*
X358705Y109730D01*
X359119Y108732D01*
X359776Y107876D01*
X360632Y107219D01*
X361630Y106806D01*
X362200Y106730D01*
Y110300D01*
D02*
G37*
G36*
X322190Y109321D02*
X318621D01*
Y105751D01*
X319191Y105826D01*
X320188Y106239D01*
X321045Y106897D01*
X321702Y107753D01*
X322115Y108750D01*
X322190Y109321D01*
D02*
G37*
G36*
X317621D02*
X314051D01*
X314126Y108750D01*
X314540Y107753D01*
X315197Y106897D01*
X316053Y106239D01*
X317051Y105826D01*
X317621Y105751D01*
Y109321D01*
D02*
G37*
G36*
X212889Y113261D02*
X212308D01*
X212111Y113221D01*
X211910Y113221D01*
X211339Y113108D01*
X211154Y113031D01*
X210957Y112992D01*
X210419Y112769D01*
X210252Y112658D01*
X210067Y112581D01*
X209583Y112258D01*
X209441Y112116D01*
X209274Y112004D01*
X208863Y111593D01*
X208751Y111426D01*
X208609Y111284D01*
X208286Y110800D01*
X208209Y110615D01*
X208098Y110448D01*
X207875Y109910D01*
X207836Y109713D01*
X207759Y109528D01*
X207646Y108957D01*
Y108756D01*
X207607Y108560D01*
Y107978D01*
X207646Y107781D01*
Y107580D01*
X207759Y107010D01*
X207836Y106824D01*
X207875Y106627D01*
X208098Y106090D01*
X208209Y105923D01*
X208286Y105737D01*
X208609Y105254D01*
X208751Y105112D01*
X208863Y104945D01*
X209274Y104533D01*
X209441Y104422D01*
X209583Y104280D01*
X210067Y103956D01*
X210252Y103880D01*
X210419Y103768D01*
X210957Y103545D01*
X211154Y103506D01*
X211339Y103429D01*
X211910Y103316D01*
X212111D01*
X212308Y103277D01*
X212889D01*
X213086Y103316D01*
X213287D01*
X213858Y103429D01*
X214043Y103506D01*
X214240Y103545D01*
X214777Y103768D01*
X214944Y103880D01*
X215130Y103956D01*
X215614Y104280D01*
X215756Y104422D01*
X215923Y104533D01*
X216334Y104945D01*
X216445Y105112D01*
X216587Y105254D01*
X216911Y105737D01*
X216987Y105923D01*
X217099Y106090D01*
X217322Y106627D01*
X217361Y106824D01*
X217438Y107009D01*
X217551Y107580D01*
X217551Y107781D01*
X217590Y107978D01*
Y108560D01*
X217551Y108756D01*
X217551Y108957D01*
X217438Y109528D01*
X217361Y109713D01*
X217322Y109910D01*
X217099Y110448D01*
X216987Y110615D01*
X216911Y110800D01*
X216587Y111284D01*
X216445Y111426D01*
X216334Y111593D01*
X215923Y112004D01*
X215756Y112116D01*
X215614Y112258D01*
X215130Y112581D01*
X214944Y112658D01*
X214777Y112769D01*
X214240Y112992D01*
X214043Y113031D01*
X213858Y113108D01*
X213287Y113221D01*
X213086Y113221D01*
X212889Y113261D01*
D02*
G37*
G36*
X260133Y101449D02*
X259552D01*
X259355Y101409D01*
X259154Y101409D01*
X258583Y101296D01*
X258398Y101219D01*
X258201Y101180D01*
X257663Y100957D01*
X257497Y100846D01*
X257311Y100769D01*
X256827Y100446D01*
X256685Y100304D01*
X256518Y100192D01*
X256107Y99781D01*
X255995Y99614D01*
X255854Y99472D01*
X255530Y98988D01*
X255453Y98803D01*
X255342Y98636D01*
X255280Y98486D01*
X254707Y98410D01*
X254366Y98855D01*
X253664Y99393D01*
X252846Y99732D01*
X252468Y99782D01*
Y96457D01*
Y93131D01*
X252846Y93181D01*
X253664Y93520D01*
X254366Y94059D01*
X254707Y94503D01*
X255280Y94428D01*
X255342Y94278D01*
X255453Y94111D01*
X255530Y93925D01*
X255854Y93441D01*
X255995Y93300D01*
X256107Y93133D01*
X256518Y92721D01*
X256685Y92610D01*
X256827Y92468D01*
X257311Y92144D01*
X257497Y92068D01*
X257663Y91956D01*
X258201Y91733D01*
X258398Y91694D01*
X258583Y91617D01*
X259154Y91504D01*
X259355D01*
X259552Y91465D01*
X260133D01*
X260330Y91504D01*
X260531D01*
X261102Y91617D01*
X261287Y91694D01*
X261484Y91733D01*
X262021Y91956D01*
X262189Y92068D01*
X262374Y92144D01*
X262858Y92468D01*
X263000Y92610D01*
X263167Y92721D01*
X263578Y93133D01*
X263690Y93300D01*
X263832Y93441D01*
X264155Y93925D01*
X264232Y94111D01*
X264343Y94278D01*
X264566Y94815D01*
X264605Y95012D01*
X264682Y95197D01*
X264795Y95768D01*
X264795Y95969D01*
X264834Y96166D01*
Y96747D01*
X264795Y96944D01*
X264795Y97145D01*
X264682Y97716D01*
X264605Y97901D01*
X264566Y98098D01*
X264343Y98636D01*
X264232Y98803D01*
X264155Y98988D01*
X263832Y99472D01*
X263690Y99614D01*
X263578Y99781D01*
X263167Y100192D01*
X263000Y100304D01*
X262858Y100446D01*
X262374Y100769D01*
X262189Y100846D01*
X262021Y100957D01*
X261484Y101180D01*
X261287Y101219D01*
X261102Y101296D01*
X260531Y101409D01*
X260330Y101409D01*
X260133Y101449D01*
D02*
G37*
G36*
X347200Y101070D02*
Y97500D01*
X350769D01*
X350694Y98070D01*
X350281Y99068D01*
X349624Y99924D01*
X348768Y100581D01*
X347770Y100995D01*
X347200Y101070D01*
D02*
G37*
G36*
X346200D02*
X345630Y100995D01*
X344632Y100581D01*
X343776Y99924D01*
X343119Y99068D01*
X342705Y98070D01*
X342631Y97500D01*
X346200D01*
Y101070D01*
D02*
G37*
G36*
X251468Y99782D02*
X251091Y99732D01*
X250273Y99393D01*
X249571Y98855D01*
X249032Y98152D01*
X248693Y97334D01*
X248643Y96957D01*
X251468D01*
Y99782D01*
D02*
G37*
G36*
X244595D02*
Y96957D01*
X247420D01*
X247370Y97334D01*
X247031Y98152D01*
X246492Y98855D01*
X245790Y99393D01*
X244972Y99732D01*
X244595Y99782D01*
D02*
G37*
G36*
X243595D02*
X243217Y99732D01*
X242399Y99393D01*
X241697Y98855D01*
X241158Y98152D01*
X240819Y97334D01*
X240769Y96957D01*
X243595D01*
Y99782D01*
D02*
G37*
G36*
X236720D02*
Y96957D01*
X239546D01*
X239496Y97334D01*
X239157Y98152D01*
X238618Y98855D01*
X237916Y99393D01*
X237098Y99732D01*
X236720Y99782D01*
D02*
G37*
G36*
X235720D02*
X235343Y99732D01*
X234525Y99393D01*
X233822Y98855D01*
X233284Y98152D01*
X232945Y97334D01*
X232895Y96957D01*
X235720D01*
Y99782D01*
D02*
G37*
G36*
X251468Y95957D02*
X248643D01*
X248693Y95579D01*
X249032Y94761D01*
X249571Y94059D01*
X250273Y93520D01*
X251091Y93181D01*
X251468Y93131D01*
Y95957D01*
D02*
G37*
G36*
X247420D02*
X244595D01*
Y93131D01*
X244972Y93181D01*
X245790Y93520D01*
X246492Y94059D01*
X247031Y94761D01*
X247370Y95579D01*
X247420Y95957D01*
D02*
G37*
G36*
X243595D02*
X240769D01*
X240819Y95579D01*
X241158Y94761D01*
X241697Y94059D01*
X242399Y93520D01*
X243217Y93181D01*
X243595Y93131D01*
Y95957D01*
D02*
G37*
G36*
X239546D02*
X236720D01*
Y93131D01*
X237098Y93181D01*
X237916Y93520D01*
X238618Y94059D01*
X239157Y94761D01*
X239496Y95579D01*
X239546Y95957D01*
D02*
G37*
G36*
X235720D02*
X232895D01*
X232945Y95579D01*
X233284Y94761D01*
X233822Y94059D01*
X234525Y93520D01*
X235343Y93181D01*
X235720Y93131D01*
Y95957D01*
D02*
G37*
G36*
X350769Y96500D02*
X347200D01*
Y92930D01*
X347770Y93006D01*
X348768Y93419D01*
X349624Y94076D01*
X350281Y94932D01*
X350694Y95930D01*
X350769Y96500D01*
D02*
G37*
G36*
X346200D02*
X342631D01*
X342705Y95930D01*
X343119Y94932D01*
X343776Y94076D01*
X344632Y93419D01*
X345630Y93006D01*
X346200Y92930D01*
Y96500D01*
D02*
G37*
G36*
X129139Y94618D02*
Y90800D01*
X132958D01*
X132874Y91435D01*
X132436Y92492D01*
X131739Y93400D01*
X130831Y94097D01*
X129774Y94535D01*
X129139Y94618D01*
D02*
G37*
G36*
X119140D02*
Y90800D01*
X122958D01*
X122874Y91435D01*
X122436Y92492D01*
X121739Y93400D01*
X120831Y94097D01*
X119774Y94535D01*
X119140Y94618D01*
D02*
G37*
G36*
X128139Y94618D02*
X127505Y94535D01*
X126447Y94097D01*
X125540Y93400D01*
X124843Y92492D01*
X124405Y91435D01*
X124321Y90800D01*
X128139D01*
Y94618D01*
D02*
G37*
G36*
X118140D02*
X117505Y94535D01*
X116447Y94097D01*
X115540Y93400D01*
X114843Y92492D01*
X114405Y91435D01*
X114321Y90800D01*
X118140D01*
Y94618D01*
D02*
G37*
G36*
X252468Y91908D02*
Y89083D01*
X255294D01*
X255244Y89460D01*
X254905Y90278D01*
X254366Y90981D01*
X253664Y91519D01*
X252846Y91858D01*
X252468Y91908D01*
D02*
G37*
G36*
X251468D02*
X251091Y91858D01*
X250273Y91519D01*
X249571Y90981D01*
X249032Y90278D01*
X248693Y89460D01*
X248643Y89083D01*
X251468D01*
Y91908D01*
D02*
G37*
G36*
X244595D02*
Y89083D01*
X247420D01*
X247370Y89460D01*
X247031Y90278D01*
X246492Y90981D01*
X245790Y91519D01*
X244972Y91858D01*
X244595Y91908D01*
D02*
G37*
G36*
X243595D02*
X243217Y91858D01*
X242399Y91519D01*
X241697Y90981D01*
X241158Y90278D01*
X240819Y89460D01*
X240769Y89083D01*
X243595D01*
Y91908D01*
D02*
G37*
G36*
X236720D02*
Y89083D01*
X239546D01*
X239496Y89460D01*
X239157Y90278D01*
X238618Y90981D01*
X237916Y91519D01*
X237098Y91858D01*
X236720Y91908D01*
D02*
G37*
G36*
X317221Y92590D02*
Y89021D01*
X320790D01*
X320715Y89591D01*
X320302Y90588D01*
X319645Y91445D01*
X318789Y92102D01*
X317791Y92515D01*
X317221Y92590D01*
D02*
G37*
G36*
X316221D02*
X315651Y92515D01*
X314653Y92102D01*
X313797Y91445D01*
X313140Y90588D01*
X312726Y89591D01*
X312651Y89021D01*
X316221D01*
Y92590D01*
D02*
G37*
G36*
X132958Y89800D02*
X129139D01*
Y85982D01*
X129774Y86065D01*
X130831Y86503D01*
X131739Y87200D01*
X132436Y88108D01*
X132874Y89165D01*
X132958Y89800D01*
D02*
G37*
G36*
X122958D02*
X119140D01*
Y85982D01*
X119774Y86065D01*
X120831Y86503D01*
X121739Y87200D01*
X122436Y88108D01*
X122874Y89165D01*
X122958Y89800D01*
D02*
G37*
G36*
X128139D02*
X124321D01*
X124405Y89165D01*
X124843Y88108D01*
X125540Y87200D01*
X126447Y86503D01*
X127505Y86065D01*
X128139Y85982D01*
Y89800D01*
D02*
G37*
G36*
X118140D02*
X114321D01*
X114405Y89165D01*
X114843Y88108D01*
X115540Y87200D01*
X116447Y86503D01*
X117505Y86065D01*
X118140Y85982D01*
Y89800D01*
D02*
G37*
G36*
X143586Y95246D02*
X133693D01*
Y85353D01*
X143586D01*
Y95246D01*
D02*
G37*
G36*
X255294Y88083D02*
X252468D01*
Y85257D01*
X252846Y85307D01*
X253664Y85646D01*
X254366Y86185D01*
X254905Y86887D01*
X255244Y87705D01*
X255294Y88083D01*
D02*
G37*
G36*
X251468D02*
X248643D01*
X248693Y87705D01*
X249032Y86887D01*
X249571Y86185D01*
X250273Y85646D01*
X251091Y85307D01*
X251468Y85257D01*
Y88083D01*
D02*
G37*
G36*
X247420D02*
X244595D01*
Y85257D01*
X244972Y85307D01*
X245790Y85646D01*
X246492Y86185D01*
X247031Y86887D01*
X247370Y87705D01*
X247420Y88083D01*
D02*
G37*
G36*
X243595D02*
X240769D01*
X240819Y87705D01*
X241158Y86887D01*
X241697Y86185D01*
X242399Y85646D01*
X243217Y85307D01*
X243595Y85257D01*
Y88083D01*
D02*
G37*
G36*
X239546D02*
X236720D01*
Y85257D01*
X237098Y85307D01*
X237916Y85646D01*
X238618Y86185D01*
X239157Y86887D01*
X239496Y87705D01*
X239546Y88083D01*
D02*
G37*
G36*
X232309Y100419D02*
X224384D01*
Y92494D01*
X226146D01*
X226267Y92226D01*
X226284Y91995D01*
X225521Y91408D01*
X224886Y90581D01*
X224486Y89617D01*
X224350Y88583D01*
X224486Y87548D01*
X224886Y86584D01*
X225521Y85757D01*
X226348Y85122D01*
X226844Y84916D01*
Y84375D01*
X226348Y84170D01*
X225521Y83534D01*
X224886Y82707D01*
X224486Y81743D01*
X224350Y80709D01*
X224486Y79674D01*
X224886Y78710D01*
X225521Y77883D01*
X226348Y77248D01*
X227312Y76848D01*
X227933Y76767D01*
X228278Y76721D01*
Y76217D01*
X227469Y76110D01*
X226651Y75771D01*
X225949Y75233D01*
X225410Y74530D01*
X225071Y73712D01*
X225021Y73335D01*
X231672D01*
X231622Y73712D01*
X231283Y74530D01*
X230744Y75233D01*
X230042Y75771D01*
X229224Y76110D01*
X228414Y76217D01*
Y76721D01*
X228760Y76767D01*
X229381Y76848D01*
X230345Y77248D01*
X231172Y77883D01*
X231807Y78710D01*
X232207Y79674D01*
X232289Y80295D01*
X232334Y80641D01*
X232838D01*
X232945Y79831D01*
X233284Y79013D01*
X233822Y78311D01*
X234525Y77772D01*
X235343Y77433D01*
X235720Y77383D01*
Y80709D01*
Y84034D01*
X235343Y83984D01*
X234525Y83645D01*
X233822Y83107D01*
X233284Y82404D01*
X232945Y81586D01*
X232838Y80777D01*
X232334D01*
X232289Y81122D01*
X232207Y81743D01*
X231807Y82707D01*
X231172Y83534D01*
X230345Y84170D01*
X229849Y84375D01*
Y84916D01*
X230345Y85122D01*
X231172Y85757D01*
X231807Y86584D01*
X232207Y87548D01*
X232289Y88169D01*
X232334Y88515D01*
X232838D01*
X232945Y87705D01*
X233284Y86887D01*
X233822Y86185D01*
X234525Y85646D01*
X235343Y85307D01*
X235720Y85257D01*
Y88583D01*
Y91908D01*
X235343Y91858D01*
X234525Y91519D01*
X233822Y90981D01*
X233284Y90278D01*
X232945Y89460D01*
X232838Y88651D01*
X232334D01*
X232289Y88996D01*
X232207Y89617D01*
X231807Y90581D01*
X231172Y91408D01*
X230409Y91995D01*
X230426Y92226D01*
X230547Y92494D01*
X232309D01*
Y100419D01*
D02*
G37*
G36*
X320790Y88021D02*
X317221D01*
Y84451D01*
X317791Y84526D01*
X318789Y84939D01*
X319645Y85597D01*
X320302Y86453D01*
X320715Y87450D01*
X320790Y88021D01*
D02*
G37*
G36*
X316221D02*
X312651D01*
X312726Y87450D01*
X313140Y86453D01*
X313797Y85597D01*
X314653Y84939D01*
X315651Y84526D01*
X316221Y84451D01*
Y88021D01*
D02*
G37*
G36*
X360121Y93261D02*
X358894Y93100D01*
X357751Y92626D01*
X356769Y91873D01*
X356015Y90891D01*
X355542Y89748D01*
X355380Y88521D01*
X355542Y87294D01*
X356015Y86150D01*
X356769Y85169D01*
X357751Y84415D01*
X358894Y83942D01*
X360121Y83780D01*
X361348Y83942D01*
X362491Y84415D01*
X363473Y85169D01*
X364226Y86150D01*
X364700Y87294D01*
X364861Y88521D01*
X364700Y89748D01*
X364226Y90891D01*
X363473Y91873D01*
X362491Y92626D01*
X361348Y93100D01*
X360121Y93261D01*
D02*
G37*
G36*
X252468Y84034D02*
Y81209D01*
X255294D01*
X255244Y81586D01*
X254905Y82404D01*
X254366Y83107D01*
X253664Y83645D01*
X252846Y83984D01*
X252468Y84034D01*
D02*
G37*
G36*
X251468D02*
X251091Y83984D01*
X250273Y83645D01*
X249571Y83107D01*
X249032Y82404D01*
X248693Y81586D01*
X248643Y81209D01*
X251468D01*
Y84034D01*
D02*
G37*
G36*
X244595D02*
Y81209D01*
X247420D01*
X247370Y81586D01*
X247031Y82404D01*
X246492Y83107D01*
X245790Y83645D01*
X244972Y83984D01*
X244595Y84034D01*
D02*
G37*
G36*
X243595D02*
X243217Y83984D01*
X242399Y83645D01*
X241697Y83107D01*
X241158Y82404D01*
X240819Y81586D01*
X240769Y81209D01*
X243595D01*
Y84034D01*
D02*
G37*
G36*
X236720D02*
Y81209D01*
X239546D01*
X239496Y81586D01*
X239157Y82404D01*
X238618Y83107D01*
X237916Y83645D01*
X237098Y83984D01*
X236720Y84034D01*
D02*
G37*
G36*
X255294Y80209D02*
X252468D01*
Y77383D01*
X252846Y77433D01*
X253664Y77772D01*
X254366Y78311D01*
X254905Y79013D01*
X255244Y79831D01*
X255294Y80209D01*
D02*
G37*
G36*
X251468D02*
X248643D01*
X248693Y79831D01*
X249032Y79013D01*
X249571Y78311D01*
X250273Y77772D01*
X251091Y77433D01*
X251468Y77383D01*
Y80209D01*
D02*
G37*
G36*
X247420D02*
X244595D01*
Y77383D01*
X244972Y77433D01*
X245790Y77772D01*
X246492Y78311D01*
X247031Y79013D01*
X247370Y79831D01*
X247420Y80209D01*
D02*
G37*
G36*
X243595D02*
X240769D01*
X240819Y79831D01*
X241158Y79013D01*
X241697Y78311D01*
X242399Y77772D01*
X243217Y77433D01*
X243595Y77383D01*
Y80209D01*
D02*
G37*
G36*
X239546D02*
X236720D01*
Y77383D01*
X237098Y77433D01*
X237916Y77772D01*
X238618Y78311D01*
X239157Y79013D01*
X239496Y79831D01*
X239546Y80209D01*
D02*
G37*
G36*
X252468Y76160D02*
Y73335D01*
X255294D01*
X255244Y73712D01*
X254905Y74530D01*
X254366Y75233D01*
X253664Y75771D01*
X252846Y76110D01*
X252468Y76160D01*
D02*
G37*
G36*
X251468D02*
X251091Y76110D01*
X250273Y75771D01*
X249571Y75233D01*
X249032Y74530D01*
X248693Y73712D01*
X248643Y73335D01*
X251468D01*
Y76160D01*
D02*
G37*
G36*
X244595D02*
Y73335D01*
X247420D01*
X247370Y73712D01*
X247031Y74530D01*
X246492Y75233D01*
X245790Y75771D01*
X244972Y76110D01*
X244595Y76160D01*
D02*
G37*
G36*
X243595D02*
X243217Y76110D01*
X242399Y75771D01*
X241697Y75233D01*
X241158Y74530D01*
X240819Y73712D01*
X240769Y73335D01*
X243595D01*
Y76160D01*
D02*
G37*
G36*
X236720D02*
Y73335D01*
X239546D01*
X239496Y73712D01*
X239157Y74530D01*
X238618Y75233D01*
X237916Y75771D01*
X237098Y76110D01*
X236720Y76160D01*
D02*
G37*
G36*
X235720D02*
X235343Y76110D01*
X234525Y75771D01*
X233822Y75233D01*
X233284Y74530D01*
X232945Y73712D01*
X232895Y73335D01*
X235720D01*
Y76160D01*
D02*
G37*
G36*
X255294Y72335D02*
X252468D01*
Y69509D01*
X252846Y69559D01*
X253664Y69898D01*
X254366Y70437D01*
X254905Y71139D01*
X255244Y71957D01*
X255294Y72335D01*
D02*
G37*
G36*
X251468D02*
X248643D01*
X248693Y71957D01*
X249032Y71139D01*
X249571Y70437D01*
X250273Y69898D01*
X251091Y69559D01*
X251468Y69509D01*
Y72335D01*
D02*
G37*
G36*
X247420D02*
X244595D01*
Y69509D01*
X244972Y69559D01*
X245790Y69898D01*
X246492Y70437D01*
X247031Y71139D01*
X247370Y71957D01*
X247420Y72335D01*
D02*
G37*
G36*
X243595D02*
X240769D01*
X240819Y71957D01*
X241158Y71139D01*
X241697Y70437D01*
X242399Y69898D01*
X243217Y69559D01*
X243595Y69509D01*
Y72335D01*
D02*
G37*
G36*
X239546D02*
X236720D01*
Y69509D01*
X237098Y69559D01*
X237916Y69898D01*
X238618Y70437D01*
X239157Y71139D01*
X239496Y71957D01*
X239546Y72335D01*
D02*
G37*
G36*
X235720D02*
X232895D01*
X232945Y71957D01*
X233284Y71139D01*
X233822Y70437D01*
X234525Y69898D01*
X235343Y69559D01*
X235720Y69509D01*
Y72335D01*
D02*
G37*
G36*
X231672D02*
X228847D01*
Y69509D01*
X229224Y69559D01*
X230042Y69898D01*
X230744Y70437D01*
X231283Y71139D01*
X231622Y71957D01*
X231672Y72335D01*
D02*
G37*
G36*
X227847D02*
X225021D01*
X225071Y71957D01*
X225410Y71139D01*
X225949Y70437D01*
X226651Y69898D01*
X227469Y69559D01*
X227847Y69509D01*
Y72335D01*
D02*
G37*
G36*
X252468Y68286D02*
Y65461D01*
X255294D01*
X255244Y65838D01*
X254905Y66656D01*
X254366Y67358D01*
X253664Y67897D01*
X252846Y68236D01*
X252468Y68286D01*
D02*
G37*
G36*
X251468D02*
X251091Y68236D01*
X250273Y67897D01*
X249571Y67358D01*
X249032Y66656D01*
X248693Y65838D01*
X248643Y65461D01*
X251468D01*
Y68286D01*
D02*
G37*
G36*
X244595D02*
Y65461D01*
X247420D01*
X247370Y65838D01*
X247031Y66656D01*
X246492Y67358D01*
X245790Y67897D01*
X244972Y68236D01*
X244595Y68286D01*
D02*
G37*
G36*
X243595D02*
X243217Y68236D01*
X242399Y67897D01*
X241697Y67358D01*
X241158Y66656D01*
X240819Y65838D01*
X240769Y65461D01*
X243595D01*
Y68286D01*
D02*
G37*
G36*
X236720D02*
Y65461D01*
X239546D01*
X239496Y65838D01*
X239157Y66656D01*
X238618Y67358D01*
X237916Y67897D01*
X237098Y68236D01*
X236720Y68286D01*
D02*
G37*
G36*
X235720D02*
X235343Y68236D01*
X234525Y67897D01*
X233822Y67358D01*
X233284Y66656D01*
X232945Y65838D01*
X232895Y65461D01*
X235720D01*
Y68286D01*
D02*
G37*
G36*
X228847D02*
Y65461D01*
X231672D01*
X231622Y65838D01*
X231283Y66656D01*
X230744Y67358D01*
X230042Y67897D01*
X229224Y68236D01*
X228847Y68286D01*
D02*
G37*
G36*
X227847D02*
X227469Y68236D01*
X226651Y67897D01*
X225949Y67358D01*
X225410Y66656D01*
X225071Y65838D01*
X225021Y65461D01*
X227847D01*
Y68286D01*
D02*
G37*
G36*
X255294Y64461D02*
X252468D01*
Y61635D01*
X252846Y61685D01*
X253664Y62024D01*
X254366Y62563D01*
X254905Y63265D01*
X255244Y64083D01*
X255294Y64461D01*
D02*
G37*
G36*
X251468D02*
X248643D01*
X248693Y64083D01*
X249032Y63265D01*
X249571Y62563D01*
X250273Y62024D01*
X251091Y61685D01*
X251468Y61635D01*
Y64461D01*
D02*
G37*
G36*
X247420D02*
X244595D01*
Y61635D01*
X244972Y61685D01*
X245790Y62024D01*
X246492Y62563D01*
X247031Y63265D01*
X247370Y64083D01*
X247420Y64461D01*
D02*
G37*
G36*
X243595D02*
X240769D01*
X240819Y64083D01*
X241158Y63265D01*
X241697Y62563D01*
X242399Y62024D01*
X243217Y61685D01*
X243595Y61635D01*
Y64461D01*
D02*
G37*
G36*
X239546D02*
X236720D01*
Y61635D01*
X237098Y61685D01*
X237916Y62024D01*
X238618Y62563D01*
X239157Y63265D01*
X239496Y64083D01*
X239546Y64461D01*
D02*
G37*
G36*
X235720D02*
X232895D01*
X232945Y64083D01*
X233284Y63265D01*
X233822Y62563D01*
X234525Y62024D01*
X235343Y61685D01*
X235720Y61635D01*
Y64461D01*
D02*
G37*
G36*
X231672D02*
X228847D01*
Y61635D01*
X229224Y61685D01*
X230042Y62024D01*
X230744Y62563D01*
X231283Y63265D01*
X231622Y64083D01*
X231672Y64461D01*
D02*
G37*
G36*
X227847D02*
X225021D01*
X225071Y64083D01*
X225410Y63265D01*
X225949Y62563D01*
X226651Y62024D01*
X227469Y61685D01*
X227847Y61635D01*
Y64461D01*
D02*
G37*
G36*
X252468Y60412D02*
Y57587D01*
X255294D01*
X255244Y57964D01*
X254905Y58782D01*
X254366Y59484D01*
X253664Y60023D01*
X252846Y60362D01*
X252468Y60412D01*
D02*
G37*
G36*
X251468D02*
X251091Y60362D01*
X250273Y60023D01*
X249571Y59484D01*
X249032Y58782D01*
X248693Y57964D01*
X248643Y57587D01*
X251468D01*
Y60412D01*
D02*
G37*
G36*
X244595D02*
Y57587D01*
X247420D01*
X247370Y57964D01*
X247031Y58782D01*
X246492Y59484D01*
X245790Y60023D01*
X244972Y60362D01*
X244595Y60412D01*
D02*
G37*
G36*
X243595D02*
X243217Y60362D01*
X242399Y60023D01*
X241697Y59484D01*
X241158Y58782D01*
X240819Y57964D01*
X240769Y57587D01*
X243595D01*
Y60412D01*
D02*
G37*
G36*
X236720D02*
Y57587D01*
X239546D01*
X239496Y57964D01*
X239157Y58782D01*
X238618Y59484D01*
X237916Y60023D01*
X237098Y60362D01*
X236720Y60412D01*
D02*
G37*
G36*
X235720D02*
X235343Y60362D01*
X234525Y60023D01*
X233822Y59484D01*
X233284Y58782D01*
X232945Y57964D01*
X232895Y57587D01*
X235720D01*
Y60412D01*
D02*
G37*
G36*
X228847D02*
Y57587D01*
X231672D01*
X231622Y57964D01*
X231283Y58782D01*
X230744Y59484D01*
X230042Y60023D01*
X229224Y60362D01*
X228847Y60412D01*
D02*
G37*
G36*
X227847D02*
X227469Y60362D01*
X226651Y60023D01*
X225949Y59484D01*
X225410Y58782D01*
X225071Y57964D01*
X225021Y57587D01*
X227847D01*
Y60412D01*
D02*
G37*
G36*
X255294Y56587D02*
X252468D01*
Y53761D01*
X252846Y53811D01*
X253664Y54150D01*
X254366Y54689D01*
X254905Y55391D01*
X255244Y56209D01*
X255294Y56587D01*
D02*
G37*
G36*
X251468D02*
X248643D01*
X248693Y56209D01*
X249032Y55391D01*
X249571Y54689D01*
X250273Y54150D01*
X251091Y53811D01*
X251468Y53761D01*
Y56587D01*
D02*
G37*
G36*
X247420D02*
X244595D01*
Y53761D01*
X244972Y53811D01*
X245790Y54150D01*
X246492Y54689D01*
X247031Y55391D01*
X247370Y56209D01*
X247420Y56587D01*
D02*
G37*
G36*
X243595D02*
X240769D01*
X240819Y56209D01*
X241158Y55391D01*
X241697Y54689D01*
X242399Y54150D01*
X243217Y53811D01*
X243595Y53761D01*
Y56587D01*
D02*
G37*
G36*
X239546D02*
X236720D01*
Y53761D01*
X237098Y53811D01*
X237916Y54150D01*
X238618Y54689D01*
X239157Y55391D01*
X239496Y56209D01*
X239546Y56587D01*
D02*
G37*
G36*
X235720D02*
X232895D01*
X232945Y56209D01*
X233284Y55391D01*
X233822Y54689D01*
X234525Y54150D01*
X235343Y53811D01*
X235720Y53761D01*
Y56587D01*
D02*
G37*
G36*
X231672D02*
X228847D01*
Y53761D01*
X229224Y53811D01*
X230042Y54150D01*
X230744Y54689D01*
X231283Y55391D01*
X231622Y56209D01*
X231672Y56587D01*
D02*
G37*
G36*
X227847D02*
X225021D01*
X225071Y56209D01*
X225410Y55391D01*
X225949Y54689D01*
X226651Y54150D01*
X227469Y53811D01*
X227847Y53761D01*
Y56587D01*
D02*
G37*
G36*
X212889Y62078D02*
X212308D01*
X212111Y62039D01*
X211910Y62039D01*
X211339Y61926D01*
X211154Y61849D01*
X210957Y61810D01*
X210419Y61587D01*
X210252Y61476D01*
X210067Y61399D01*
X209583Y61076D01*
X209441Y60934D01*
X209274Y60822D01*
X208863Y60411D01*
X208751Y60244D01*
X208609Y60102D01*
X208286Y59618D01*
X208209Y59433D01*
X208098Y59266D01*
X207875Y58728D01*
X207836Y58531D01*
X207759Y58346D01*
X207646Y57775D01*
Y57574D01*
X207607Y57377D01*
Y56796D01*
X207646Y56599D01*
Y56398D01*
X207759Y55827D01*
X207836Y55642D01*
X207875Y55445D01*
X208098Y54908D01*
X208209Y54741D01*
X208286Y54555D01*
X208609Y54071D01*
X208751Y53929D01*
X208863Y53762D01*
X209274Y53351D01*
X209441Y53240D01*
X209583Y53097D01*
X210067Y52774D01*
X210252Y52697D01*
X210419Y52586D01*
X210957Y52363D01*
X211154Y52324D01*
X211339Y52247D01*
X211910Y52134D01*
X212111D01*
X212308Y52095D01*
X212889D01*
X213086Y52134D01*
X213287D01*
X213858Y52247D01*
X214043Y52324D01*
X214240Y52363D01*
X214777Y52586D01*
X214944Y52697D01*
X215130Y52774D01*
X215614Y53097D01*
X215756Y53240D01*
X215923Y53351D01*
X216334Y53762D01*
X216445Y53929D01*
X216587Y54071D01*
X216911Y54555D01*
X216987Y54741D01*
X217099Y54908D01*
X217322Y55445D01*
X217361Y55642D01*
X217438Y55827D01*
X217551Y56398D01*
X217551Y56599D01*
X217590Y56796D01*
Y57377D01*
X217551Y57574D01*
X217551Y57775D01*
X217438Y58346D01*
X217361Y58531D01*
X217322Y58728D01*
X217099Y59266D01*
X216987Y59433D01*
X216911Y59618D01*
X216587Y60102D01*
X216445Y60244D01*
X216334Y60411D01*
X215923Y60822D01*
X215756Y60934D01*
X215614Y61076D01*
X215130Y61399D01*
X214944Y61476D01*
X214777Y61587D01*
X214240Y61810D01*
X214043Y61849D01*
X213858Y61926D01*
X213287Y62039D01*
X213086Y62039D01*
X212889Y62078D01*
D02*
G37*
G36*
X370079Y48048D02*
X368852Y47886D01*
X367708Y47412D01*
X366727Y46659D01*
X365973Y45677D01*
X365500Y44534D01*
X365338Y43307D01*
X365500Y42080D01*
X365973Y40937D01*
X366727Y39955D01*
X367708Y39202D01*
X368852Y38728D01*
X370079Y38566D01*
X371306Y38728D01*
X372449Y39202D01*
X373431Y39955D01*
X374184Y40937D01*
X374658Y42080D01*
X374819Y43307D01*
X374658Y44534D01*
X374184Y45677D01*
X373431Y46659D01*
X372449Y47412D01*
X371306Y47886D01*
X370079Y48048D01*
D02*
G37*
G36*
X244193Y46085D02*
X242150Y45924D01*
X240158Y45446D01*
X238265Y44662D01*
X236518Y43591D01*
X234960Y42261D01*
X233629Y40703D01*
X232558Y38956D01*
X231774Y37062D01*
X231296Y35070D01*
X231135Y33027D01*
X231296Y30985D01*
X231774Y28993D01*
X232558Y27099D01*
X233629Y25352D01*
X234960Y23794D01*
X236518Y22464D01*
X238265Y21393D01*
X240158Y20609D01*
X242150Y20131D01*
X244193Y19970D01*
X246236Y20131D01*
X248228Y20609D01*
X250121Y21393D01*
X251868Y22464D01*
X253426Y23794D01*
X254757Y25352D01*
X255827Y27099D01*
X256611Y28993D01*
X257090Y30985D01*
X257250Y33027D01*
X257090Y35070D01*
X256611Y37062D01*
X255827Y38956D01*
X254757Y40703D01*
X253426Y42261D01*
X251868Y43591D01*
X250121Y44662D01*
X248228Y45446D01*
X246236Y45924D01*
X244193Y46085D01*
D02*
G37*
G36*
X196949D02*
X194906Y45924D01*
X192914Y45446D01*
X191021Y44662D01*
X189274Y43591D01*
X187716Y42261D01*
X186385Y40703D01*
X185314Y38956D01*
X184530Y37062D01*
X184052Y35070D01*
X183891Y33027D01*
X184052Y30985D01*
X184530Y28993D01*
X185314Y27099D01*
X186385Y25352D01*
X187716Y23794D01*
X189274Y22464D01*
X191021Y21393D01*
X192914Y20609D01*
X194906Y20131D01*
X196949Y19970D01*
X198992Y20131D01*
X200984Y20609D01*
X202877Y21393D01*
X204624Y22464D01*
X206182Y23794D01*
X207513Y25352D01*
X208583Y27099D01*
X209367Y28993D01*
X209846Y30985D01*
X210006Y33027D01*
X209846Y35070D01*
X209367Y37062D01*
X208583Y38956D01*
X207513Y40703D01*
X206182Y42261D01*
X204624Y43591D01*
X202877Y44662D01*
X200984Y45446D01*
X198992Y45924D01*
X196949Y46085D01*
D02*
G37*
G36*
X362205Y33533D02*
X360038Y33362D01*
X357926Y32855D01*
X355918Y32023D01*
X354065Y30888D01*
X352413Y29477D01*
X351002Y27824D01*
X349867Y25972D01*
X349035Y23964D01*
X348528Y21851D01*
X348357Y19685D01*
X348528Y17519D01*
X349035Y15406D01*
X349867Y13398D01*
X351002Y11546D01*
X352413Y9893D01*
X354065Y8482D01*
X355918Y7347D01*
X357926Y6515D01*
X360038Y6008D01*
X362205Y5838D01*
X364371Y6008D01*
X366484Y6515D01*
X368491Y7347D01*
X370344Y8482D01*
X371996Y9893D01*
X373408Y11546D01*
X374543Y13398D01*
X375374Y15406D01*
X375882Y17519D01*
X376052Y19685D01*
X375882Y21851D01*
X375374Y23964D01*
X374543Y25972D01*
X373408Y27824D01*
X371996Y29477D01*
X370344Y30888D01*
X368491Y32023D01*
X366484Y32855D01*
X364371Y33362D01*
X362205Y33533D01*
D02*
G37*
G36*
X98425D02*
X96259Y33362D01*
X94146Y32855D01*
X92139Y32023D01*
X90286Y30888D01*
X88634Y29477D01*
X87222Y27824D01*
X86087Y25972D01*
X85255Y23964D01*
X84748Y21851D01*
X84578Y19685D01*
X84748Y17519D01*
X85255Y15406D01*
X86087Y13398D01*
X87222Y11546D01*
X88634Y9893D01*
X90286Y8482D01*
X92139Y7347D01*
X94146Y6515D01*
X96259Y6008D01*
X98425Y5838D01*
X100591Y6008D01*
X102704Y6515D01*
X104712Y7347D01*
X106564Y8482D01*
X108217Y9893D01*
X109628Y11546D01*
X110763Y13398D01*
X111595Y15406D01*
X112102Y17519D01*
X112273Y19685D01*
X112102Y21851D01*
X111595Y23964D01*
X110763Y25972D01*
X109628Y27824D01*
X108217Y29477D01*
X106564Y30888D01*
X104712Y32023D01*
X102704Y32855D01*
X100591Y33362D01*
X98425Y33533D01*
D02*
G37*
%LPD*%
D21*
X248107Y167400D02*
X251969Y171262D01*
X240233Y167400D02*
X248107D01*
X236221Y163388D02*
X240233Y167400D01*
X236221Y171262D02*
Y179136D01*
X244094D02*
Y187010D01*
X240111Y190900D02*
X244094Y194884D01*
X232237Y190900D02*
X240111D01*
X228346Y187010D02*
X232237Y190900D01*
X251969Y187010D02*
Y194884D01*
X248211Y199000D02*
X251969Y202758D01*
X239978Y199000D02*
X248211D01*
X236221Y202758D02*
X239978Y199000D01*
X248037Y206700D02*
X251969Y210632D01*
X240152Y206700D02*
X248037D01*
X236221Y210632D02*
X240152Y206700D01*
X240241Y230400D02*
X244094Y234254D01*
X232200Y230400D02*
X240241D01*
X228346Y234254D02*
X232200Y230400D01*
X240400Y245822D02*
X244094Y242128D01*
X240400Y245822D02*
Y277803D01*
X244094Y281498D01*
X228346Y273624D02*
Y281498D01*
X226450Y265750D02*
X228346D01*
X219600Y272600D02*
X226450Y265750D01*
X219600Y272600D02*
Y292000D01*
X224846Y297246D01*
X228346D01*
X240122Y285400D02*
X244094Y289372D01*
X232318Y285400D02*
X240122D01*
X228346Y289372D02*
X232318Y285400D01*
X240174Y301200D02*
X244094Y305120D01*
X232266Y301200D02*
X240174D01*
X228346Y305120D02*
X232266Y301200D01*
X247800Y316700D02*
X251969Y320868D01*
X239926Y316700D02*
X247800D01*
X236221Y312994D02*
X239926Y316700D01*
X228346Y242128D02*
X232174Y238300D01*
X269900D01*
X335000Y173200D01*
Y137800D02*
Y173200D01*
X341700Y138100D02*
Y187700D01*
X275400Y254000D02*
X341700Y187700D01*
X248093Y254000D02*
X275400D01*
X244094Y250002D02*
X248093Y254000D01*
X251969Y124017D02*
X269217D01*
X279000Y133800D01*
X326700D01*
X331100Y129400D01*
X306400Y122300D02*
X324800D01*
X296400Y112300D02*
X306400Y122300D01*
X247937Y112300D02*
X296400D01*
X244094Y116143D02*
X247937Y112300D01*
X236221Y155514D02*
X244094D01*
D23*
X251969Y289372D02*
X256528D01*
X267690Y278210D01*
X331890D01*
D24*
X117717Y145276D02*
D03*
X136221D02*
D03*
X154724D02*
D03*
D25*
X118639Y90300D02*
D03*
X128639D02*
D03*
D26*
X138639D02*
D03*
D27*
X251969Y96457D02*
D03*
X244094Y72835D02*
D03*
X228346Y64961D02*
D03*
X244094Y96457D02*
D03*
X228346Y88583D02*
D03*
X251969Y72835D02*
D03*
X236221D02*
D03*
X251969Y57087D02*
D03*
X236221Y96457D02*
D03*
X251969Y80709D02*
D03*
X236221Y64961D02*
D03*
X228346Y72835D02*
D03*
X244094Y57087D02*
D03*
X228346Y80709D02*
D03*
X244094Y80709D02*
D03*
X236221Y88583D02*
D03*
X251969Y64961D02*
D03*
X236221Y57087D02*
D03*
X251969Y88583D02*
D03*
X236221Y80709D02*
D03*
X244094Y64961D02*
D03*
X228346Y57087D02*
D03*
X244094Y88583D02*
D03*
Y139765D02*
D03*
X228346Y124017D02*
D03*
X244094Y116143D02*
D03*
X236221Y147639D02*
D03*
X251969Y139765D02*
D03*
X236221Y124017D02*
D03*
X251969Y116143D02*
D03*
X236221Y139765D02*
D03*
X244094Y147639D02*
D03*
X228346Y131891D02*
D03*
X244094Y124017D02*
D03*
X228346Y108269D02*
D03*
X236221Y116143D02*
D03*
X251969Y147639D02*
D03*
X236221Y131891D02*
D03*
X251969Y124017D02*
D03*
X236221Y108269D02*
D03*
X251969D02*
D03*
X228346Y139765D02*
D03*
X244094Y131891D02*
D03*
X228346Y116143D02*
D03*
X244094Y108269D02*
D03*
X251969Y131891D02*
D03*
Y273624D02*
D03*
X244094Y250002D02*
D03*
X228346Y257876D02*
D03*
X244094Y273624D02*
D03*
X228346Y281498D02*
D03*
X251969Y250002D02*
D03*
X236221D02*
D03*
X251969Y265750D02*
D03*
X236221Y273624D02*
D03*
X251969Y289372D02*
D03*
X236221Y257876D02*
D03*
X228346Y250002D02*
D03*
X244094Y265750D02*
D03*
X228346Y273624D02*
D03*
X244094Y289372D02*
D03*
X236221Y281498D02*
D03*
X251969Y257876D02*
D03*
X236221Y265750D02*
D03*
X251969Y281498D02*
D03*
X236221Y289372D02*
D03*
X244094Y257876D02*
D03*
X228346Y265750D02*
D03*
X244094Y281498D02*
D03*
X228346Y289372D02*
D03*
X244094Y328742D02*
D03*
X228346Y312994D02*
D03*
X244094Y305120D02*
D03*
X236221Y336616D02*
D03*
X251969Y328742D02*
D03*
X236221Y312994D02*
D03*
X251969Y305120D02*
D03*
X236221Y328742D02*
D03*
X244094Y336616D02*
D03*
X228346Y320868D02*
D03*
X244094Y312994D02*
D03*
X228346Y297246D02*
D03*
X236221Y305120D02*
D03*
X251969Y336616D02*
D03*
X236221Y320868D02*
D03*
X251969Y312994D02*
D03*
X236221Y297246D02*
D03*
X251969D02*
D03*
X228346Y328742D02*
D03*
X244094Y320868D02*
D03*
X228346Y305120D02*
D03*
X244094Y297246D02*
D03*
X251969Y320868D02*
D03*
Y226380D02*
D03*
X244094Y202758D02*
D03*
X228346Y210632D02*
D03*
X244094Y226380D02*
D03*
X228346Y234254D02*
D03*
X251969Y202758D02*
D03*
X236221D02*
D03*
X251969Y218506D02*
D03*
X236221Y226380D02*
D03*
X251969Y242128D02*
D03*
X236221Y210632D02*
D03*
X228346Y202758D02*
D03*
X244094Y218506D02*
D03*
X228346Y226380D02*
D03*
X244094Y242128D02*
D03*
X236221Y234254D02*
D03*
X251969Y210632D02*
D03*
X236221Y218506D02*
D03*
X251969Y234254D02*
D03*
X236221Y242128D02*
D03*
X244094Y210632D02*
D03*
X228346Y218506D02*
D03*
X244094Y234254D02*
D03*
X228346Y242128D02*
D03*
Y194884D02*
D03*
X244094Y187010D02*
D03*
X228346Y171262D02*
D03*
X244094Y163388D02*
D03*
X236221Y194884D02*
D03*
X251969Y187010D02*
D03*
X236221Y171262D02*
D03*
X251969Y163388D02*
D03*
X236221Y187010D02*
D03*
X244094Y194884D02*
D03*
X228346Y179136D02*
D03*
X244094Y171262D02*
D03*
X228346Y155514D02*
D03*
X236221Y163388D02*
D03*
X251969Y194884D02*
D03*
X236221Y179136D02*
D03*
X251969Y171262D02*
D03*
X236221Y155514D02*
D03*
X251969D02*
D03*
X228346Y187010D02*
D03*
X244094Y179136D02*
D03*
X228346Y163388D02*
D03*
X244094Y155514D02*
D03*
X251969Y179136D02*
D03*
D28*
X228346Y96457D02*
D03*
Y147639D02*
D03*
Y336616D02*
D03*
D29*
X370079Y43307D02*
D03*
X316721Y88521D02*
D03*
X318121Y109821D02*
D03*
X157480Y251969D02*
D03*
X177953Y268853D02*
D03*
X187484Y288484D02*
D03*
X341053Y353447D02*
D03*
X307400Y354200D02*
D03*
X368766Y131266D02*
D03*
X360121Y88521D02*
D03*
X346700Y97000D02*
D03*
X362700Y110800D02*
D03*
X349900Y150400D02*
D03*
X331890Y278210D02*
D03*
X342200Y303100D02*
D03*
D30*
X362205Y19685D02*
D03*
X98425D02*
D03*
X362205Y409449D02*
D03*
X98425D02*
D03*
D31*
X191800Y226300D02*
D03*
X196600Y205000D02*
D03*
X335000Y137800D02*
D03*
X341700Y138100D02*
D03*
X331100Y129400D02*
D03*
X324800Y122300D02*
D03*
D32*
X244193Y396014D02*
D03*
X196949D02*
D03*
X244193Y33027D02*
D03*
X196949D02*
D03*
M02*
