G04 Layer_Color=8421504*
%FSLAX25Y25*%
%MOIN*%
G70*
G01*
G75*
%ADD10R,0.02756X0.03347*%
%ADD11R,0.05512X0.05906*%
%ADD12R,0.06890X0.04528*%
%ADD13R,0.07874X0.14961*%
%ADD14R,0.07874X0.05906*%
G04:AMPARAMS|DCode=15|XSize=61.81mil|YSize=16.14mil|CornerRadius=2.02mil|HoleSize=0mil|Usage=FLASHONLY|Rotation=270.000|XOffset=0mil|YOffset=0mil|HoleType=Round|Shape=RoundedRectangle|*
%AMROUNDEDRECTD15*
21,1,0.06181,0.01211,0,0,270.0*
21,1,0.05778,0.01614,0,0,270.0*
1,1,0.00404,-0.00605,-0.02889*
1,1,0.00404,-0.00605,0.02889*
1,1,0.00404,0.00605,0.02889*
1,1,0.00404,0.00605,-0.02889*
%
%ADD15ROUNDEDRECTD15*%
%ADD16R,0.05512X0.03937*%
%ADD17R,0.03347X0.02756*%
%ADD18R,0.01600X0.07500*%
%ADD19R,0.04528X0.06890*%
%ADD20R,0.03937X0.05512*%
D10*
X161054Y244600D02*
D03*
X167746D02*
D03*
D11*
X174695D02*
D03*
X186505D02*
D03*
D12*
X342126Y283760D02*
D03*
Y295177D02*
D03*
X330800Y372617D02*
D03*
Y361200D02*
D03*
X341053Y372617D02*
D03*
Y361200D02*
D03*
X177953Y277067D02*
D03*
Y288484D02*
D03*
X327272Y171043D02*
D03*
Y182461D02*
D03*
X317019Y171043D02*
D03*
Y182461D02*
D03*
D13*
X295169Y372913D02*
D03*
X362131Y170748D02*
D03*
D14*
X319972Y381968D02*
D03*
Y372913D02*
D03*
Y363858D02*
D03*
X337328Y161693D02*
D03*
Y170748D02*
D03*
Y179803D02*
D03*
D15*
X160138Y294764D02*
D03*
X157579D02*
D03*
X155020D02*
D03*
X152461D02*
D03*
X149902D02*
D03*
X147343D02*
D03*
X144783D02*
D03*
X142224D02*
D03*
Y272165D02*
D03*
X144783D02*
D03*
X147343D02*
D03*
X149902D02*
D03*
X152461D02*
D03*
X155020D02*
D03*
X157579D02*
D03*
X160138D02*
D03*
X324311Y301457D02*
D03*
X321752D02*
D03*
X319193D02*
D03*
X316634D02*
D03*
X314075D02*
D03*
X311516D02*
D03*
X308957D02*
D03*
X306398D02*
D03*
Y278858D02*
D03*
X308957D02*
D03*
X311516D02*
D03*
X314075D02*
D03*
X316634D02*
D03*
X319193D02*
D03*
X321752D02*
D03*
X324311D02*
D03*
D16*
X167717Y286417D02*
D03*
Y279134D02*
D03*
X331890Y293110D02*
D03*
Y285827D02*
D03*
X362700Y95658D02*
D03*
Y102942D02*
D03*
D17*
X191800Y214054D02*
D03*
Y220746D02*
D03*
D18*
X351697Y88521D02*
D03*
X349197D02*
D03*
X346697D02*
D03*
X344197D02*
D03*
X341697D02*
D03*
X339197D02*
D03*
X336697D02*
D03*
X334197D02*
D03*
X331697D02*
D03*
X329197D02*
D03*
X326697D02*
D03*
X324197D02*
D03*
Y109821D02*
D03*
X326697D02*
D03*
X329197D02*
D03*
X331697D02*
D03*
X334197D02*
D03*
X336697D02*
D03*
X339197D02*
D03*
X341697D02*
D03*
X344197D02*
D03*
X346697D02*
D03*
X349197D02*
D03*
X351697D02*
D03*
D19*
X349554Y131266D02*
D03*
X360971D02*
D03*
X137188Y180709D02*
D03*
X148606D02*
D03*
X137188Y205118D02*
D03*
X148606D02*
D03*
X137188Y168504D02*
D03*
X148606D02*
D03*
X137188Y192913D02*
D03*
X148606D02*
D03*
X137188Y217323D02*
D03*
X148606D02*
D03*
D20*
X356542Y121800D02*
D03*
X349258D02*
D03*
M02*
